<svg width="26" height="26" viewBox="0 0 26 26" fill="none" xmlns="http://www.w3.org/2000/svg">
<path d="M23.8349 10.2753L24.1497 10.8439L24.1501 10.8437L23.8349 10.2753ZM22.3773 11.0822L22.6921 11.6509L22.6922 11.6509L22.3773 11.0822ZM24.6644 9.23631L25.2904 9.41113L25.2906 9.41066L24.6644 9.23631ZM24.4875 7.9387L23.9306 8.27393L23.9309 8.27443L24.4875 7.9387ZM23.1464 5.71094L23.7033 5.3757L23.7033 5.37567L23.1464 5.71094ZM22.0631 4.9152L22.2247 4.28561L22.2247 4.28559L22.0631 4.9152ZM20.7101 5.0848L21.0249 5.6535L21.0253 5.65328L20.7101 5.0848ZM19.2522 5.89174L18.9374 5.32305L18.9366 5.32353L19.2522 5.89174ZM18.5195 5.83601L18.1197 6.34847L18.1199 6.34866L18.5195 5.83601ZM17.5613 5.21627L17.2458 5.78452L17.2465 5.7849L17.5613 5.21627ZM16.5236 4.73075L16.2978 5.34026L16.2981 5.34039L16.5236 4.73075ZM16.5233 4.73066L16.7492 4.12115L16.7479 4.12069L16.5233 4.73066ZM16.1063 2.53517H16.7563V2.53498L16.1063 2.53517ZM9.43922 4.73066L9.21464 4.12069L9.21371 4.12104L9.43922 4.73066ZM8.40123 5.21627L8.71612 5.7849L8.71639 5.78475L8.40123 5.21627ZM7.44359 5.83574L7.8436 6.3481L7.84676 6.3456L7.44359 5.83574ZM6.71062 5.89174L6.39578 6.4604L6.39599 6.46052L6.71062 5.89174ZM5.2522 5.08427L4.93731 5.6529L4.93736 5.65292L5.2522 5.08427ZM3.89916 4.91493L3.738 4.28523L3.73747 4.28536L3.89916 4.91493ZM2.81584 5.71041L2.25908 5.37497L2.25896 5.37517L2.81584 5.71041ZM1.47476 7.93816L2.03162 8.27344L2.03164 8.2734L1.47476 7.93816ZM1.29819 9.23551L1.9243 9.0609L1.92422 9.0606L1.29819 9.23551ZM2.12737 10.2747L1.81231 10.8433L1.81251 10.8434L2.12737 10.2747ZM3.58523 11.0819L3.27038 11.6506L3.2705 11.6507L3.58523 11.0819ZM3.90083 11.7182L4.54124 11.8295L4.54173 11.8266L3.90083 11.7182ZM3.90083 13.93L4.54186 13.8223L4.54123 13.8187L3.90083 13.93ZM3.58523 14.5662L3.90001 15.1349L3.9003 15.1348L3.58523 14.5662ZM2.12737 15.3732L1.81259 14.8045L1.81248 14.8045L2.12737 15.3732ZM1.29819 16.4127L1.92422 16.5876L1.9243 16.5873L1.29819 16.4127ZM1.47476 17.7103L2.03164 17.375L2.03152 17.3748L1.47476 17.7103ZM2.81584 19.938L2.25896 20.2733L2.25915 20.2736L2.81584 19.938ZM5.25276 20.5642L5.56713 21.1331L5.56758 21.1328L5.25276 20.5642ZM6.71035 19.7572L7.02517 20.3259L7.02624 20.3253L6.71035 19.7572ZM7.44275 19.813L7.04284 20.3254L7.04291 20.3254L7.44275 19.813ZM8.40123 20.4332L8.71669 19.8649L8.71633 19.8647L8.40123 20.4332ZM9.4395 20.9188L9.6641 20.3088L9.65761 20.3065L9.4395 20.9188ZM16.5233 20.9188L16.3052 20.3065L16.2988 20.3089L16.5233 20.9188ZM17.5619 20.4332L17.2469 19.8647L17.2465 19.8649L17.5619 20.4332ZM18.5204 19.813L18.1208 19.3002L18.112 19.3073L18.5204 19.813ZM19.2533 19.7572L18.9383 20.3258L18.9385 20.3259L19.2533 19.7572ZM20.7101 20.5636L21.0253 19.9952L21.0249 19.995L20.7101 20.5636ZM22.0631 20.7335L22.2246 21.3631L22.2247 21.3631L22.0631 20.7335ZM23.1464 19.9378L22.5896 19.6025L22.5895 19.6026L23.1464 19.9378ZM24.4875 17.71L23.9307 17.3747L23.9306 17.3748L24.4875 17.71ZM24.6644 16.4129L25.2905 16.2384L25.2905 16.2383L24.6644 16.4129ZM23.8346 15.3734L23.5197 15.9421L23.52 15.9422L23.8346 15.3734ZM22.3776 14.5665L22.6925 13.9979L22.6923 13.9978L22.3776 14.5665ZM22.0617 13.9302L21.4228 13.81L21.4207 13.8228L22.0617 13.9302ZM22.0615 11.7185L21.4204 11.826L21.4211 11.8297L22.0615 11.7185ZM21.1889 11.858L20.5457 11.9518L20.546 11.9543L21.1889 11.858ZM21.1881 11.8526L21.8313 11.7588L21.8302 11.7518L21.8291 11.7448L21.1881 11.8526ZM21.1881 13.7954L21.8293 13.9023L21.8298 13.8988L21.1881 13.7954ZM21.1881 13.7956L21.8291 13.903L21.8292 13.9024L21.1881 13.7956ZM21.9352 15.3017L22.25 14.733L22.2499 14.733L21.9352 15.3017ZM23.3925 16.1084L23.708 15.5401L23.7073 15.5397L23.3925 16.1084ZM23.8096 16.6327L23.1836 16.8077L23.1838 16.8083L23.8096 16.6327ZM23.7215 17.2857L24.2784 17.621L24.2785 17.6208L23.7215 17.2857ZM22.3804 19.5135L22.9371 19.849L22.9373 19.8487L22.3804 19.5135ZM21.8343 19.9138L21.9967 20.5431L21.997 20.5431L21.8343 19.9138ZM21.1528 19.829L20.838 20.3977L20.8382 20.3978L21.1528 19.829ZM19.6963 19.0228L19.3809 19.5912L19.3815 19.5915L19.6963 19.0228ZM17.9629 19.1543L17.5636 18.6414L17.5371 18.662L17.5129 18.6852L17.9629 19.1543ZM17.1198 19.6986L16.8049 19.1299L16.8048 19.13L17.1198 19.6986ZM16.2066 20.1268L16.0346 19.5L16.0081 19.5073L15.9822 19.5168L16.2066 20.1268ZM9.75732 20.1266L9.98169 19.5165L9.97733 19.5149L9.75732 20.1266ZM8.84445 19.6986L9.15965 19.1301L9.15934 19.1299L8.84445 19.6986ZM8.00165 19.1543L8.47155 18.7052L8.43852 18.6706L8.40079 18.6413L8.00165 19.1543ZM6.26851 19.0228L6.58316 19.5916L6.58456 19.5908L6.26851 19.0228ZM5.28418 19.5674L4.96952 18.9986L4.96572 19.0007L5.28418 19.5674ZM4.96376 19.745L5.2765 20.3148L5.27798 20.314L4.96376 19.745ZM4.96303 19.7454L4.65028 19.1756L4.64875 19.1764L4.96303 19.7454ZM4.8112 19.8292L4.49692 19.2603L4.49649 19.2605L4.8112 19.8292ZM3.58357 19.5143L3.02668 19.8495L3.02674 19.8496L3.58357 19.5143ZM2.24248 17.2865L1.68542 17.6215L1.6856 17.6218L2.24248 17.2865ZM2.15434 16.6329L2.78016 16.8086L2.78053 16.8073L2.15434 16.6329ZM2.57115 16.1087L2.25695 15.5396L2.25539 15.5405L2.57115 16.1087ZM2.62123 16.081L2.30948 15.5106L2.30703 15.512L2.62123 16.081ZM2.62135 16.0809L2.9331 16.6513L2.93554 16.65L2.62135 16.0809ZM3.0433 15.8457L2.72888 15.2768L2.72147 15.2809L2.71417 15.2852L3.0433 15.8457ZM4.02763 15.3017L4.34204 15.8706L4.34234 15.8704L4.02763 15.3017ZM4.77449 13.7961L4.1321 13.8955L4.13341 13.9034L4.77449 13.7961ZM4.7743 13.7948L5.41665 13.6954L5.41649 13.6944L4.7743 13.7948ZM4.77448 11.8532L4.13305 11.748L4.13276 11.7498L4.77448 11.8532ZM4.77449 11.8531L4.13348 11.7454L4.13307 11.7479L4.77449 11.8531ZM4.02763 10.347L3.7127 10.9156L3.71304 10.9158L4.02763 10.347ZM3.04107 9.80059L3.356 9.23197L3.35578 9.23185L3.04107 9.80059ZM2.56976 9.53978L2.88447 8.97105L2.8844 8.97101L2.56976 9.53978ZM2.15295 9.01604L2.77908 8.84153L2.77883 8.84061L2.15295 9.01604ZM2.24109 8.36244L1.68421 8.0272L1.68368 8.02808L2.24109 8.36244ZM3.58217 6.13468L3.02551 5.79909L3.02529 5.79944L3.58217 6.13468ZM4.12828 5.73494L4.28951 6.36463L4.29073 6.36431L4.12828 5.73494ZM4.80925 5.81894L5.1241 5.25028L5.12277 5.24955L4.80925 5.81894ZM6.26767 6.62642L5.95283 7.19508L5.95286 7.19509L6.26767 6.62642ZM8.00082 6.49468L8.40052 7.00742L8.4104 6.9994L8.00082 6.49468ZM8.8439 5.95094L9.15911 6.51939L9.15915 6.51938L8.8439 5.95094ZM9.75593 5.52294L9.93991 6.14636L9.96038 6.14032L9.9804 6.13295L9.75593 5.52294ZM16.205 5.52267L15.9807 6.13276L15.985 6.13433L16.205 5.52267ZM17.1178 5.95068L17.433 5.38217L17.4327 5.38204L17.1178 5.95068ZM17.9606 6.49442L17.5314 6.98253L17.5458 6.99517L17.5609 7.00694L17.9606 6.49442ZM19.6938 6.62642L19.3791 6.05768L19.3784 6.05803L19.6938 6.62642ZM21.1516 5.81974L21.4663 6.38848L21.4674 6.38789L21.1516 5.81974ZM21.8332 5.73521L21.671 6.36464L21.6718 6.36485L21.8332 5.73521ZM22.379 6.13468L22.9359 5.79944L22.9357 5.79909L22.379 6.13468ZM23.7201 8.36244L24.2772 8.02751L24.277 8.0272L23.7201 8.36244ZM23.8082 9.01604L23.1824 8.84041L23.1823 8.84081L23.8082 9.01604ZM23.3911 9.53978L23.0768 8.97083L23.0761 8.97126L23.3911 9.53978ZM21.9347 10.347L22.2494 10.9157L22.2498 10.9155L21.9347 10.347ZM23.5201 9.70659L22.0625 10.5135L22.6922 11.6509L24.1497 10.8439L23.5201 9.70659ZM24.0383 9.0615C23.963 9.33122 23.7834 9.56063 23.5198 9.70678L24.1501 10.8437C24.709 10.5339 25.1188 10.0257 25.2904 9.41113L24.0383 9.0615ZM23.9309 8.27443C24.0761 8.51499 24.1135 8.7915 24.0382 9.06196L25.2906 9.41066C25.4616 8.79632 25.3745 8.15068 25.0441 7.60297L23.9309 8.27443ZM22.5896 6.04618L23.9306 8.27393L25.0444 7.60346L23.7033 5.3757L22.5896 6.04618ZM21.9015 5.54479C22.2033 5.62225 22.4432 5.80302 22.5896 6.04621L23.7033 5.37567C23.3748 4.83006 22.8455 4.44495 22.2247 4.28561L21.9015 5.54479ZM21.0253 5.65328C21.2887 5.50723 21.5991 5.46721 21.9016 5.54481L22.2247 4.28559C21.6062 4.12692 20.954 4.20636 20.3949 4.51632L21.0253 5.65328ZM19.567 6.46044L21.0249 5.6535L20.3953 4.5161L18.9374 5.32305L19.567 6.46044ZM18.1199 6.34866C18.3426 6.5222 18.6141 6.58908 18.8292 6.60541C19.0446 6.62176 19.3222 6.59645 19.5679 6.45995L18.9366 5.32353C18.9524 5.31474 18.9637 5.31062 18.9685 5.30904C18.9735 5.30742 18.9745 5.3075 18.9712 5.30807C18.9679 5.30861 18.9622 5.30934 18.9541 5.30967C18.9461 5.30999 18.9371 5.30986 18.9276 5.30914C18.9181 5.30842 18.9092 5.30719 18.9014 5.30568C18.8936 5.30416 18.8882 5.3026 18.8853 5.30164C18.8823 5.30065 18.8836 5.30083 18.8886 5.30337C18.8934 5.30583 18.9044 5.31188 18.9191 5.32336L18.1199 6.34866ZM17.2465 5.7849C17.5032 5.92709 17.7211 6.0675 17.8762 6.17352C18.0311 6.27942 18.1204 6.34902 18.1197 6.34847L18.9194 5.32355C18.8879 5.29896 18.4733 4.97827 17.8762 4.64763L17.2465 5.7849ZM16.2981 5.34039C16.3065 5.34348 16.7387 5.50291 17.2458 5.78452L17.8769 4.64802C17.2876 4.32072 16.7862 4.13486 16.7491 4.12111L16.2981 5.34039ZM16.2975 5.34017L16.2978 5.34026L16.7494 4.12124L16.7492 4.12115L16.2975 5.34017ZM15.4563 4.14852C15.4563 4.43867 15.5796 4.69505 15.7061 4.87151C15.8341 5.04997 16.0342 5.24322 16.2988 5.34063L16.7479 4.12069C16.7642 4.12667 16.7745 4.13241 16.7794 4.13535C16.7844 4.13834 16.7858 4.13972 16.7842 4.13844C16.7828 4.13721 16.7797 4.13441 16.7755 4.12986C16.7713 4.12534 16.7669 4.11998 16.7627 4.11407C16.7584 4.10816 16.755 4.10262 16.7525 4.09795C16.7512 4.09567 16.7503 4.09382 16.7497 4.09246C16.7491 4.09109 16.7488 4.09039 16.7488 4.09042C16.7488 4.09043 16.7492 4.09139 16.7497 4.09332C16.7503 4.09525 16.7512 4.09842 16.7521 4.10284C16.7538 4.1113 16.7563 4.12681 16.7563 4.14852H15.4563ZM15.4563 2.53517V4.14852H16.7563V2.53517H15.4563ZM14.3222 1.47422C14.9726 1.47422 15.4561 1.97577 15.4563 2.53536L16.7563 2.53498C16.7559 1.20709 15.6389 0.174219 14.3222 0.174219V1.47422ZM11.6401 1.47422H14.3222V0.174219H11.6401V1.47422ZM10.5063 2.5349C10.5063 1.97583 10.9896 1.47422 11.6401 1.47422V0.174219C10.3235 0.174219 9.20631 1.20702 9.20631 2.5349H10.5063ZM10.5063 4.14879V2.5349H9.20631V4.14879H10.5063ZM9.66381 5.34063C9.92867 5.24311 10.1288 5.04948 10.2565 4.87127C10.3827 4.69516 10.5063 4.43883 10.5063 4.14879H9.20631C9.20631 4.12681 9.20879 4.11113 9.21055 4.1026C9.21146 4.09814 9.21233 4.09494 9.2129 4.093C9.21348 4.09106 9.21384 4.0901 9.21385 4.09009C9.21385 4.09007 9.21358 4.09078 9.21294 4.09217C9.2123 4.09354 9.21138 4.09542 9.21013 4.09771C9.20756 4.10243 9.2041 4.10802 9.19983 4.11398C9.19557 4.11994 9.19114 4.12534 9.18695 4.1299C9.18272 4.13449 9.17958 4.13732 9.1781 4.13855C9.17654 4.13985 9.17796 4.13846 9.18295 4.13545C9.18784 4.13249 9.19831 4.12671 9.21464 4.12069L9.66381 5.34063ZM8.71639 5.78475C9.22588 5.50229 9.65987 5.34209 9.66473 5.34029L9.21371 4.12104C9.17964 4.13364 8.67713 4.3201 8.08606 4.64778L8.71639 5.78475ZM7.84676 6.3456C7.84389 6.34786 8.19911 6.07121 8.71612 5.7849L8.08633 4.64763C7.49 4.97787 7.07498 5.29855 7.04042 5.32589L7.84676 6.3456ZM6.39599 6.46052C6.64165 6.59641 6.91889 6.62173 7.13455 6.60525C7.34969 6.58881 7.62112 6.52177 7.84359 6.34809L7.04359 5.32339C7.05833 5.31189 7.06935 5.3058 7.07423 5.30332C7.07926 5.30076 7.08063 5.30056 7.07765 5.30155C7.07479 5.30249 7.06939 5.30405 7.06159 5.30556C7.05385 5.30707 7.045 5.30831 7.03551 5.30903C7.02602 5.30976 7.017 5.30989 7.00896 5.30957C7.00087 5.30925 6.99503 5.30852 6.99171 5.30796C6.98828 5.30738 6.98919 5.30727 6.99397 5.30884C6.99862 5.31036 7.00971 5.31437 7.02526 5.32297L6.39599 6.46052ZM4.93736 5.65292L6.39578 6.4604L7.02547 5.32308L5.56705 4.51561L4.93736 5.65292ZM4.06033 5.54463C4.36421 5.46686 4.67381 5.50698 4.93731 5.6529L5.56709 4.51563C5.00809 4.20608 4.35727 4.12673 3.738 4.28523L4.06033 5.54463ZM3.3726 6.04585C3.51897 5.80291 3.75912 5.62199 4.06085 5.5445L3.73747 4.28536C3.11716 4.44467 2.58764 4.82963 2.25908 5.37497L3.3726 6.04585ZM2.03164 8.2734L3.37272 6.04564L2.25896 5.37517L0.917879 7.60293L2.03164 8.2734ZM1.92422 9.0606C1.84901 8.79144 1.88625 8.51489 2.03162 8.27344L0.917902 7.60289C0.588347 8.15025 0.500456 8.79584 0.672169 9.41042L1.92422 9.0606ZM2.44242 9.70618C2.17933 9.56039 1.99967 9.33116 1.9243 9.0609L0.672087 9.41013C0.843628 10.0252 1.25346 10.5336 1.81231 10.8433L2.44242 9.70618ZM3.90009 10.5133L2.44222 9.70607L1.81251 10.8434L3.27038 11.6506L3.90009 10.5133ZM4.54173 11.8266C4.59029 11.5394 4.5102 11.2657 4.41347 11.0709C4.31576 10.874 4.14816 10.6506 3.89996 10.5132L3.2705 11.6507C3.25467 11.6419 3.24462 11.6341 3.23967 11.63C3.23463 11.6258 3.23293 11.6236 3.23378 11.6246C3.23614 11.6273 3.24254 11.6358 3.24902 11.6489C3.25199 11.6548 3.25424 11.6603 3.25581 11.6648C3.25739 11.6693 3.25784 11.6716 3.25776 11.6712C3.2577 11.6709 3.25673 11.6661 3.25639 11.6569C3.25605 11.6477 3.25625 11.6316 3.25993 11.6098L4.54173 11.8266ZM4.47158 12.8244C4.47158 12.245 4.54225 11.8236 4.54123 11.8295L3.26043 11.6069C3.25274 11.6512 3.17158 12.1499 3.17158 12.8244H4.47158ZM4.54123 13.8187C4.54224 13.8245 4.47158 13.4037 4.47158 12.8244H3.17158C3.17158 13.4989 3.25275 13.9971 3.26043 14.0413L4.54123 13.8187ZM3.9003 15.1348C4.1484 14.9973 4.31577 14.7737 4.41329 14.5771C4.50984 14.3826 4.59005 14.1092 4.54185 13.8223L3.25982 14.0377C3.25615 14.0159 3.25598 13.9997 3.25632 13.9906C3.25666 13.9814 3.25764 13.9767 3.25768 13.9765C3.25775 13.9761 3.25727 13.9785 3.25566 13.9831C3.25407 13.9877 3.25178 13.9932 3.24878 13.9993C3.24579 14.0053 3.24258 14.0108 3.23952 14.0155C3.23642 14.0201 3.23416 14.0229 3.23335 14.0238C3.23248 14.0248 3.23417 14.0227 3.23921 14.0185C3.24417 14.0143 3.25426 14.0065 3.27017 13.9977L3.9003 15.1348ZM2.44214 15.9419L3.90001 15.1349L3.27046 13.9975L1.81259 14.8045L2.44214 15.9419ZM1.9243 16.5873C1.99977 16.3167 2.17934 16.0874 2.44226 15.9418L1.81248 14.8045C1.25289 15.1144 0.843534 15.6233 0.672087 16.238L1.9243 16.5873ZM2.03152 17.3748C1.88633 17.1339 1.84898 16.8569 1.92422 16.5876L0.672169 16.2377C0.500491 16.8522 0.588265 17.4984 0.918002 18.0457L2.03152 17.3748ZM3.37272 19.6028L2.03164 17.375L0.917879 18.0455L2.25896 20.2733L3.37272 19.6028ZM4.93838 19.9953C4.38109 20.3032 3.67792 20.1091 3.37254 19.6025L2.25915 20.2736C2.93809 21.4 4.41992 21.767 5.56713 21.1331L4.93838 19.9953ZM6.39552 19.1886L4.93793 19.9955L5.56758 21.1328L7.02517 20.3259L6.39552 19.1886ZM7.84266 19.3005C7.62031 19.127 7.3489 19.06 7.1339 19.0436C6.91851 19.0271 6.64057 19.0523 6.39445 19.1892L7.02624 20.3253C7.0104 20.3341 6.99903 20.3383 6.99417 20.3398C6.98917 20.3415 6.98809 20.3414 6.99141 20.3409C6.99461 20.3403 7.00035 20.3396 7.00839 20.3393C7.01637 20.339 7.02536 20.3391 7.03484 20.3398C7.04431 20.3405 7.05317 20.3418 7.06092 20.3433C7.06873 20.3448 7.07415 20.3464 7.07703 20.3473C7.08002 20.3483 7.07866 20.3481 7.07363 20.3455C7.06874 20.3431 7.05766 20.3369 7.04284 20.3254L7.84266 19.3005ZM8.71633 19.8647C8.45953 19.7224 8.24153 19.5818 8.08636 19.4757C7.93138 19.3697 7.84196 19.3 7.8426 19.3005L7.04291 20.3254C7.07432 20.3499 7.48912 20.6709 8.08612 21.0018L8.71633 19.8647ZM9.65761 20.3065C9.66093 20.3077 9.22741 20.1484 8.71669 19.8649L8.08577 21.0016C8.67616 21.3293 9.17915 21.5161 9.2214 21.5312L9.65761 20.3065ZM10.5066 21.5007C10.5066 21.2106 10.383 20.9543 10.2567 20.7781C10.1289 20.5998 9.92879 20.4063 9.66409 20.3089L9.21491 21.5288C9.19864 21.5228 9.18821 21.5171 9.18333 21.5141C9.17836 21.5111 9.17695 21.5097 9.1785 21.511C9.17997 21.5122 9.18311 21.5151 9.18732 21.5196C9.1915 21.5242 9.19592 21.5296 9.20017 21.5355C9.20442 21.5414 9.20786 21.547 9.21042 21.5517C9.21166 21.554 9.21258 21.5558 9.21321 21.5572C9.21385 21.5586 9.21412 21.5593 9.21411 21.5593C9.2141 21.5592 9.21373 21.5583 9.21316 21.5563C9.21258 21.5544 9.21172 21.5512 9.21081 21.5467C9.20905 21.5382 9.20659 21.5226 9.20659 21.5007H10.5066ZM10.5066 23.1135V21.5007H9.20659V23.1135H10.5066ZM11.6403 24.1742C10.99 24.1742 10.5066 23.6722 10.5066 23.1135H9.20659C9.20659 24.4408 10.3237 25.4742 11.6403 25.4742V24.1742ZM14.3225 24.1742H11.6403V25.4742H14.3225V24.1742ZM15.4563 23.1135C15.4563 23.6722 14.9728 24.1742 14.3225 24.1742V25.4742C15.6392 25.4742 16.7563 24.4408 16.7563 23.1135H15.4563ZM15.4563 21.5007V23.1135H16.7563V21.5007H15.4563ZM16.2988 20.3089C16.0339 20.4064 15.8338 20.6 15.7061 20.7782C15.5799 20.9543 15.4563 21.2107 15.4563 21.5007H16.7563C16.7563 21.5227 16.7538 21.5384 16.752 21.5469C16.7511 21.5514 16.7502 21.5546 16.7497 21.5565C16.7491 21.5584 16.7487 21.5594 16.7487 21.5594C16.7487 21.5594 16.749 21.5587 16.7496 21.5573C16.7503 21.556 16.7512 21.5541 16.7524 21.5518C16.755 21.5471 16.7585 21.5415 16.7627 21.5355C16.767 21.5296 16.7714 21.5242 16.7756 21.5196C16.7798 21.515 16.783 21.5122 16.7845 21.511C16.786 21.5097 16.7846 21.511 16.7796 21.5141C16.7747 21.517 16.7643 21.5228 16.7479 21.5288L16.2988 20.3089ZM17.2465 19.8649C16.736 20.1481 16.3019 20.3077 16.3052 20.3065L16.7415 21.5312C16.7837 21.5161 17.2872 21.329 17.8773 21.0016L17.2465 19.8649ZM18.112 19.3073C18.1203 19.3005 17.7657 19.5772 17.2469 19.8647L17.8769 21.0018C18.472 20.6722 18.8887 20.351 18.9288 20.3187L18.112 19.3073ZM19.5684 19.1887C19.3227 19.0525 19.0452 19.0274 18.8301 19.0438C18.6154 19.06 18.3436 19.1267 18.1208 19.3002L18.9199 20.3257C18.905 20.3373 18.8939 20.3434 18.889 20.3459C18.884 20.3484 18.8827 20.3486 18.8857 20.3476C18.8886 20.3466 18.8941 20.3451 18.902 20.3435C18.9099 20.342 18.9188 20.3408 18.9284 20.34C18.938 20.3393 18.9471 20.3392 18.9552 20.3395C18.9634 20.3398 18.9693 20.3406 18.9726 20.3411C18.9761 20.3417 18.9751 20.3418 18.9702 20.3402C18.9655 20.3387 18.9541 20.3346 18.9383 20.3258L19.5684 19.1887ZM21.0249 19.995L19.5681 19.1885L18.9385 20.3259L20.3953 21.1323L21.0249 19.995ZM21.9017 20.1039C21.5991 20.1814 21.2889 20.1413 21.0253 19.9952L20.3949 21.1321C20.9538 21.442 21.6056 21.5218 22.2246 21.3631L21.9017 20.1039ZM22.5895 19.6026C22.4434 19.8454 22.2033 20.0264 21.9015 20.1039L22.2247 21.3631C22.8455 21.2038 23.3751 20.8184 23.7034 20.2729L22.5895 19.6026ZM23.9306 17.3748L22.5896 19.6025L23.7033 20.273L25.0444 18.0452L23.9306 17.3748ZM24.0382 16.5875C24.1133 16.8568 24.0761 17.1332 23.9307 17.3747L25.0444 18.0453C25.3739 17.498 25.4618 16.8528 25.2905 16.2384L24.0382 16.5875ZM23.52 15.9422C23.7829 16.0876 23.9629 16.3172 24.0383 16.5875L25.2905 16.2383C25.119 15.6233 24.7089 15.1142 24.1493 14.8047L23.52 15.9422ZM22.0627 15.1351L23.5197 15.9421L24.1496 14.8048L22.6925 13.9979L22.0627 15.1351ZM21.4207 13.8228C21.3726 14.1096 21.4526 14.383 21.5494 14.5779C21.6472 14.7747 21.8148 14.998 22.0629 15.1352L22.6923 13.9978C22.7081 14.0065 22.7181 14.0142 22.7231 14.0184C22.7281 14.0226 22.7298 14.0247 22.729 14.0237C22.7282 14.0228 22.7259 14.0201 22.7229 14.0155C22.7198 14.0109 22.7167 14.0054 22.7137 13.9995C22.7107 13.9935 22.7085 13.988 22.7069 13.9835C22.7053 13.9789 22.7048 13.9766 22.7049 13.977C22.7049 13.9772 22.7059 13.9819 22.7063 13.9911C22.7066 14.0001 22.7064 14.0161 22.7028 14.0377L21.4207 13.8228ZM21.491 12.8246C21.491 13.4062 21.42 13.8255 21.423 13.81L22.7005 14.0505C22.7107 13.9966 22.791 13.4964 22.791 12.8246H21.491ZM21.4211 11.8297C21.4201 11.8243 21.491 12.245 21.491 12.8246H22.791C22.791 12.1493 22.7095 11.6511 22.7019 11.6072L21.4211 11.8297ZM22.0626 10.5135C21.8144 10.6508 21.6468 10.8743 21.5491 11.071C21.4524 11.2658 21.3723 11.5392 21.4204 11.826L22.7025 11.6109C22.7061 11.6326 22.7063 11.6487 22.706 11.6577C22.7056 11.6669 22.7047 11.6716 22.7046 11.6719C22.7045 11.6722 22.705 11.6699 22.7066 11.6653C22.7082 11.6608 22.7105 11.6553 22.7134 11.6493C22.7164 11.6433 22.7196 11.6378 22.7227 11.6332C22.7257 11.6285 22.728 11.6258 22.7288 11.6249C22.7296 11.6239 22.7279 11.626 22.7229 11.6303C22.7179 11.6344 22.7079 11.6422 22.6921 11.6509L22.0626 10.5135ZM21.8321 11.7642L21.8313 11.7588L20.5449 11.9464L20.5457 11.9518L21.8321 11.7642ZM21.9056 12.8246C21.9056 12.2579 21.8414 11.8269 21.8317 11.7618L20.546 11.9543C20.5514 11.9902 20.6056 12.3497 20.6056 12.8246H21.9056ZM21.8298 13.8988C21.8342 13.8718 21.9056 13.4239 21.9056 12.8246H20.6056C20.6056 13.0752 20.5906 13.2944 20.5754 13.4511C20.5679 13.5291 20.5604 13.5909 20.5549 13.6324C20.5521 13.6531 20.5499 13.6688 20.5484 13.6788C20.5477 13.6838 20.5471 13.6874 20.5468 13.6895C20.5466 13.6906 20.5465 13.6913 20.5464 13.6917C20.5464 13.692 20.5464 13.6921 20.5464 13.6921L21.8298 13.8988ZM21.8292 13.9024L21.8293 13.9023L20.5469 13.6886L20.5469 13.6887L21.8292 13.9024ZM22.2499 14.733C21.9681 14.577 21.7826 14.1807 21.8291 13.903L20.547 13.6881C20.4056 14.532 20.8769 15.4589 21.6205 15.8704L22.2499 14.733ZM23.7073 15.5397L22.25 14.733L21.6204 15.8704L23.0777 16.6771L23.7073 15.5397ZM24.4356 16.4576C24.3253 16.0632 24.0634 15.7374 23.708 15.5401L23.0771 16.6767C23.1348 16.7088 23.1688 16.7546 23.1836 16.8077L24.4356 16.4576ZM24.2785 17.6208C24.4895 17.2699 24.5465 16.8529 24.4354 16.457L23.1838 16.8083C23.1978 16.8583 23.1915 16.9058 23.1645 16.9507L24.2785 17.6208ZM22.9373 19.8487L24.2784 17.621L23.1646 16.9505L21.8235 19.1783L22.9373 19.8487ZM21.997 20.5431C22.387 20.4422 22.7257 20.1998 22.9371 19.849L21.8237 19.178C21.796 19.224 21.7476 19.2648 21.6715 19.2845L21.997 20.5431ZM20.8382 20.3978C21.1923 20.5936 21.6054 20.6442 21.9967 20.5431L21.6718 19.2844C21.5983 19.3034 21.527 19.2931 21.4673 19.2601L20.8382 20.3978ZM19.3815 19.5915L20.838 20.3977L21.4675 19.2603L20.0111 18.4541L19.3815 19.5915ZM18.3622 19.6672C18.4729 19.581 18.6496 19.5119 18.859 19.496C19.0683 19.4801 19.2553 19.5215 19.3809 19.5912L20.0117 18.4545C19.6251 18.2399 19.1751 18.1682 18.7605 18.1997C18.3461 18.2312 17.9122 18.37 17.5636 18.6414L18.3622 19.6672ZM17.4347 20.2672C17.7024 20.119 17.9298 19.9724 18.0911 19.8623C18.1721 19.807 18.2372 19.7604 18.2834 19.7265C18.3064 19.7096 18.325 19.6957 18.3387 19.6853C18.3455 19.6801 18.3515 19.6755 18.3565 19.6716C18.3589 19.6698 18.362 19.6674 18.3651 19.6649C18.3665 19.6638 18.3693 19.6615 18.3727 19.6588C18.3743 19.6575 18.3775 19.6549 18.3815 19.6516C18.3835 19.6499 18.3868 19.6471 18.3908 19.6435C18.3938 19.6409 18.4024 19.6334 18.4129 19.6233L17.5129 18.6852C17.5233 18.6752 17.5318 18.6677 17.5348 18.6652C17.5388 18.6617 17.542 18.6589 17.544 18.6573C17.5478 18.654 17.5508 18.6516 17.5522 18.6505C17.5551 18.6481 17.5573 18.6463 17.558 18.6458C17.5596 18.6445 17.5604 18.6439 17.56 18.6443C17.5593 18.6448 17.557 18.6465 17.553 18.6496C17.5451 18.6555 17.5322 18.6653 17.5145 18.6782C17.4792 18.7041 17.426 18.7422 17.3582 18.7886C17.2218 18.8816 17.0294 19.0056 16.8049 19.1299L17.4347 20.2672ZM16.3786 20.7537C16.3918 20.7501 16.402 20.7468 16.4047 20.7459C16.409 20.7445 16.4125 20.7434 16.4144 20.7427C16.4183 20.7414 16.4215 20.7403 16.423 20.7398C16.4262 20.7387 16.4289 20.7377 16.4303 20.7372C16.4335 20.736 16.4366 20.7348 16.4393 20.7339C16.4449 20.7318 16.4517 20.7292 16.4597 20.7261C16.4756 20.72 16.4973 20.7116 16.5241 20.7008C16.5777 20.6793 16.6526 20.6484 16.7431 20.6088C16.9233 20.5297 17.1694 20.4142 17.4348 20.2671L16.8048 19.13C16.583 19.2528 16.3745 19.3509 16.2209 19.4182C16.1445 19.4518 16.0826 19.4773 16.0408 19.494C16.0199 19.5024 16.0042 19.5085 15.9944 19.5123C15.9894 19.5142 15.9863 19.5153 15.9851 19.5158C15.9843 19.5161 15.9848 19.5159 15.9861 19.5154C15.9866 19.5152 15.9886 19.5145 15.9913 19.5136C15.9925 19.5131 15.9954 19.5121 15.9992 19.5108C16.0011 19.5102 16.0044 19.5091 16.0087 19.5077C16.0114 19.5069 16.0215 19.5036 16.0346 19.5L16.3786 20.7537ZM15.8715 21.501C15.8715 21.2197 16.1216 20.8507 16.4311 20.7368L15.9822 19.5168C15.1872 19.8093 14.5715 20.6478 14.5715 21.501H15.8715ZM15.8715 23.1138V21.501H14.5715V23.1138H15.8715ZM14.3231 24.6254C15.1517 24.6254 15.8715 23.9733 15.8715 23.1138H14.5715C14.5715 23.2047 14.4855 23.3254 14.3231 23.3254V24.6254ZM11.6409 24.6254H14.3231V23.3254H11.6409V24.6254ZM10.0925 23.1138C10.0925 23.9733 10.8123 24.6254 11.6409 24.6254V23.3254C11.4785 23.3254 11.3925 23.2047 11.3925 23.1138H10.0925ZM10.0925 21.501V23.1138H11.3925V21.501H10.0925ZM9.53296 20.7366C9.84238 20.8504 10.0925 21.2195 10.0925 21.501H11.3925C11.3925 20.6481 10.7773 19.8091 9.98169 19.5165L9.53296 20.7366ZM8.52926 20.267C9.06009 20.5614 9.51178 20.729 9.53732 20.7382L9.97733 19.5149C9.99397 19.5209 9.61092 19.3803 9.15965 19.1301L8.52926 20.267ZM7.53176 19.6034C7.54633 19.6186 7.55847 19.6298 7.56244 19.6334C7.56801 19.6386 7.57258 19.6426 7.57526 19.6449C7.58065 19.6496 7.585 19.6532 7.58704 19.6549C7.59144 19.6586 7.59506 19.6615 7.59674 19.6628C7.60056 19.6659 7.60408 19.6686 7.60659 19.6706C7.61199 19.6748 7.61826 19.6796 7.62509 19.6848C7.63897 19.6954 7.65766 19.7094 7.68076 19.7263C7.727 19.7603 7.79216 19.807 7.8731 19.8622C8.03446 19.9724 8.26187 20.119 8.52957 20.2672L9.15934 19.1299C8.93487 19.0056 8.74241 18.8817 8.60617 18.7886C8.53832 18.7423 8.48525 18.7042 8.45009 18.6784C8.43247 18.6655 8.41967 18.6558 8.41203 18.65C8.41014 18.6486 8.40866 18.6475 8.40756 18.6466C8.40702 18.6462 8.4066 18.6459 8.4063 18.6457C8.40599 18.6454 8.40584 18.6453 8.40584 18.6453C8.40585 18.6453 8.4059 18.6453 8.40601 18.6454C8.40611 18.6455 8.40628 18.6456 8.40652 18.6458C8.40691 18.6461 8.40784 18.6469 8.40915 18.6479C8.41006 18.6487 8.41309 18.6511 8.41706 18.6544C8.41889 18.6559 8.42306 18.6594 8.42831 18.6639C8.43093 18.6662 8.43545 18.6702 8.44097 18.6752C8.4449 18.6788 8.457 18.69 8.47155 18.7052L7.53176 19.6034ZM6.58456 19.5908C6.70931 19.5214 6.89585 19.48 7.10516 19.4959C7.3146 19.5118 7.49153 19.581 7.60252 19.6673L8.40079 18.6413C8.05214 18.37 7.61818 18.2312 7.20379 18.1996C6.78927 18.1681 6.33906 18.2397 5.95246 18.4548L6.58456 19.5908ZM5.59882 20.1361L6.58316 19.5916L5.95386 18.4541L4.96953 18.9986L5.59882 20.1361ZM5.27798 20.314C5.43079 20.2296 5.53268 20.1733 5.60264 20.134L4.96572 19.0007C4.9011 19.037 4.80464 19.0903 4.64953 19.176L5.27798 20.314ZM5.27576 20.3152L5.27649 20.3148L4.65102 19.1752L4.65029 19.1756L5.27576 20.3152ZM5.12547 20.3982L5.2773 20.3143L4.64875 19.1764L4.49692 19.2603L5.12547 20.3982ZM3.02674 19.8496C3.46092 20.5706 4.4008 20.7992 5.1259 20.398L4.49649 19.2605C4.36183 19.335 4.20116 19.2799 4.14039 19.179L3.02674 19.8496ZM1.6856 17.6218L3.02668 19.8495L4.14045 19.1791L2.79937 16.9513L1.6856 17.6218ZM1.52852 16.4573C1.4175 16.8529 1.47401 17.2698 1.68542 17.6215L2.79955 16.9516C2.77238 16.9064 2.76605 16.8588 2.78016 16.8086L1.52852 16.4573ZM2.25539 15.5405C1.90084 15.7376 1.63821 16.0633 1.52815 16.4586L2.78053 16.8073C2.79504 16.7551 2.82882 16.7091 2.88691 16.6768L2.25539 15.5405ZM2.30703 15.512L2.25695 15.5396L2.88535 16.6777L2.93543 16.65L2.30703 15.512ZM2.3096 15.5106L2.30948 15.5106L2.93298 16.6514L2.9331 16.6513L2.3096 15.5106ZM2.71417 15.2852C2.65995 15.317 2.5521 15.3767 2.30715 15.5119L2.93554 16.65C3.16945 16.5208 3.29901 16.4493 3.37242 16.4062L2.71417 15.2852ZM3.71322 14.7328L2.72888 15.2768L3.35771 16.4146L4.34204 15.8706L3.71322 14.7328ZM4.13341 13.9034C4.17982 14.1807 3.99443 14.5772 3.71291 14.733L4.34234 15.8704C5.08631 15.4588 5.55658 14.5315 5.41558 13.6888L4.13341 13.9034ZM4.13195 13.8943L4.13214 13.8955L5.41685 13.6967L5.41665 13.6954L4.13195 13.8943ZM4.05693 12.8246C4.05693 13.4112 4.12547 13.8529 4.13211 13.8953L5.41649 13.6944C5.41512 13.6856 5.35693 13.3173 5.35693 12.8246H4.05693ZM4.13276 11.7498C4.12853 11.7761 4.05693 12.2248 4.05693 12.8246H5.35693C5.35693 12.5738 5.37202 12.3542 5.38721 12.1974C5.39477 12.1193 5.40228 12.0574 5.40777 12.0159C5.41052 11.9952 5.41275 11.9796 5.41422 11.9696C5.41496 11.9647 5.41551 11.9611 5.41584 11.959C5.416 11.9579 5.41611 11.9572 5.41616 11.9569C5.41619 11.9567 5.4162 11.9566 5.4162 11.9566C5.4162 11.9566 5.4162 11.9566 5.4162 11.9567C5.4162 11.9567 5.41619 11.9567 5.4162 11.9566L4.13276 11.7498ZM4.13307 11.7479L4.13305 11.748L5.4159 11.9585L5.41592 11.9584L4.13307 11.7479ZM3.71304 10.9158C3.9949 11.0717 4.18015 11.4678 4.13349 11.7454L5.4155 11.9609C5.55736 11.1169 5.08639 10.1898 4.34221 9.77819L3.71304 10.9158ZM2.72614 10.3692L3.7127 10.9156L4.34255 9.77838L3.356 9.23197L2.72614 10.3692ZM2.25505 10.1085L2.72636 10.3693L3.35578 9.23185L2.88447 8.97105L2.25505 10.1085ZM1.52681 9.19056C1.63679 9.58513 1.89929 9.91171 2.25512 10.1086L2.8844 8.97101C2.82759 8.93959 2.79368 8.8939 2.77908 8.84153L1.52681 9.19056ZM1.68368 8.02808C1.47321 8.37896 1.41601 8.79525 1.52707 9.19148L2.77883 8.84061C2.76476 8.79043 2.77096 8.74272 2.7985 8.69679L1.68368 8.02808ZM3.02529 5.79944L1.68421 8.0272L2.79798 8.69767L4.13906 6.46991L3.02529 5.79944ZM3.96705 5.10525C3.57503 5.20563 3.23634 5.44937 3.02551 5.79909L4.13884 6.47027C4.16658 6.42425 4.21495 6.38372 4.28951 6.36463L3.96705 5.10525ZM5.12277 5.24955C4.76956 5.05507 4.35693 5.00462 3.96583 5.10557L4.29073 6.36431C4.36456 6.34526 4.4363 6.35561 4.49574 6.38834L5.12277 5.24955ZM6.58252 6.05776L5.1241 5.25028L4.49441 6.3876L5.95283 7.19508L6.58252 6.05776ZM7.60119 5.98204C7.49066 6.06821 7.3144 6.13722 7.10521 6.15312C6.89625 6.16901 6.70888 6.12771 6.58249 6.05774L5.95286 7.19509C6.33949 7.40913 6.78915 7.4809 7.20375 7.44938C7.6181 7.41788 8.0519 7.27903 8.40045 7.00732L7.60119 5.98204ZM8.52868 5.38249C7.99969 5.67583 7.62131 5.96556 7.59124 5.98996L8.4104 6.9994C8.38756 7.01794 8.70322 6.7722 9.15911 6.51939L8.52868 5.38249ZM9.57195 4.89952C9.5098 4.91786 9.04317 5.09716 8.52864 5.38251L9.15915 6.51938C9.38053 6.3966 9.58873 6.29868 9.74213 6.23139C9.81847 6.19791 9.88024 6.17245 9.92205 6.1557C9.94295 6.14732 9.95868 6.1412 9.96856 6.13741C9.97353 6.1355 9.97678 6.13428 9.97825 6.13373C9.97907 6.13342 9.97891 6.13348 9.978 6.13382C9.97767 6.13394 9.97623 6.13446 9.9742 6.13519C9.97329 6.13552 9.97107 6.13631 9.96817 6.13731C9.96676 6.1378 9.96414 6.1387 9.96083 6.1398C9.95894 6.14043 9.95064 6.14319 9.93991 6.14636L9.57195 4.89952ZM10.0911 4.14879C10.0911 4.43044 9.8411 4.79899 9.53147 4.91293L9.9804 6.13295C10.7752 5.84048 11.3911 5.00261 11.3911 4.14879H10.0911ZM10.0911 2.5349V4.14879H11.3911V2.5349H10.0911ZM11.6395 1.02303C10.8106 1.02303 10.0911 1.67562 10.0911 2.5349H11.3911C11.3911 2.44378 11.4774 2.32303 11.6395 2.32303V1.02303ZM14.3217 1.02303H11.6395V2.32303H14.3217V1.02303ZM15.8701 2.5349C15.8701 1.67562 15.1505 1.02303 14.3217 1.02303V2.32303C14.4838 2.32303 14.5701 2.44378 14.5701 2.5349H15.8701ZM15.8701 4.14826V2.5349H14.5701V4.14826H15.8701ZM16.4293 4.9126C16.1204 4.79904 15.8701 4.43028 15.8701 4.14826H14.5701C14.5701 5.00171 15.1856 5.84043 15.9807 6.13274L16.4293 4.9126ZM17.4327 5.38204C16.9067 5.09075 16.4512 4.92046 16.4249 4.91102L15.985 6.13433C15.9677 6.12809 16.3552 6.27139 16.803 6.51932L17.4327 5.38204ZM18.3899 6.0063C18.3423 5.96446 17.9536 5.67076 17.433 5.38217L16.8027 6.51918C17.0274 6.6437 17.2199 6.76771 17.3563 6.86073C17.4242 6.90706 17.4774 6.94517 17.5129 6.97111C17.5306 6.98408 17.5437 6.99389 17.5518 7.00003C17.5559 7.00313 17.5585 7.00512 17.5596 7.00598C17.5755 7.01819 17.552 7.00063 17.5314 6.98253L18.3899 6.0063ZM19.3784 6.05803C19.2531 6.12756 19.0661 6.16895 18.8567 6.153C18.6471 6.13703 18.4707 6.06788 18.3604 5.98189L17.5609 7.00694C17.9094 7.27882 18.3436 7.41767 18.7579 7.44924C19.1724 7.48082 19.6225 7.40928 20.0091 7.1948L19.3784 6.05803ZM20.837 5.251L19.3791 6.05768L20.0085 7.19516L21.4663 6.38848L20.837 5.251ZM21.9954 5.10577C21.6038 5.00485 21.191 5.05425 20.8359 5.25159L21.4674 6.38789C21.525 6.3559 21.5949 6.34503 21.671 6.36464L21.9954 5.10577ZM22.9357 5.79909C22.7247 5.44908 22.3859 5.20587 21.9946 5.10557L21.6718 6.36485C21.7465 6.38401 21.7948 6.42454 21.8223 6.47027L22.9357 5.79909ZM24.277 8.0272L22.9359 5.79944L21.8221 6.46991L23.1632 8.69767L24.277 8.0272ZM24.4341 9.19168C24.5451 8.79608 24.4886 8.37912 24.2772 8.02751L23.163 8.69737C23.1902 8.74255 23.1965 8.79014 23.1824 8.84041L24.4341 9.19168ZM23.7055 10.1087C24.0622 9.91165 24.324 9.5849 24.4342 9.19128L23.1823 8.84081C23.1674 8.89413 23.1333 8.93965 23.0768 8.97083L23.7055 10.1087ZM22.2498 10.9155L23.7062 10.1083L23.0761 8.97126L21.6196 9.77847L22.2498 10.9155ZM21.8291 11.7448C21.7825 11.4678 21.9676 11.0717 22.2494 10.9157L21.6199 9.77826C20.8763 10.1898 20.4052 11.1168 20.5471 11.9605L21.8291 11.7448ZM8.76316 12.8249C8.76316 10.6347 10.6305 8.80577 12.9811 8.80577V7.50577C9.96417 7.50577 7.46316 9.86617 7.46316 12.8249H8.76316ZM12.9811 16.8437C10.6304 16.8437 8.76316 15.015 8.76316 12.8249H7.46316C7.46316 15.7837 9.96422 18.1437 12.9811 18.1437V16.8437ZM17.1991 12.8249C17.1991 15.015 15.3319 16.8437 12.9811 16.8437V18.1437C15.9981 18.1437 18.4991 15.7837 18.4991 12.8249H17.1991ZM12.9811 8.80577C15.3318 8.80577 17.1991 10.6347 17.1991 12.8249H18.4991C18.4991 9.86616 15.9981 7.50577 12.9811 7.50577V8.80577ZM8.34878 12.8249C8.34878 15.315 10.4521 17.2947 12.9811 17.2947V15.9947C11.1185 15.9947 9.64878 14.5466 9.64878 12.8249H8.34878ZM12.9811 8.35511C10.4521 8.35511 8.34878 10.3345 8.34878 12.8249H9.64878C9.64878 11.103 11.1185 9.65511 12.9811 9.65511V8.35511ZM17.6135 12.8249C17.6135 10.3345 15.5102 8.35511 12.9811 8.35511V9.65511C14.8438 9.65511 16.3135 11.103 16.3135 12.8249H17.6135ZM12.9811 17.2947C15.5102 17.2947 17.6135 15.315 17.6135 12.8249H16.3135C16.3135 14.5466 14.8438 15.9947 12.9811 15.9947V17.2947Z" fill="black"/>
</svg>
