<svg width="56" height="56" viewBox="0 0 56 56" fill="none" xmlns="http://www.w3.org/2000/svg">
<mask id="mask0_476_11770" style="mask-type:luminance" maskUnits="userSpaceOnUse" x="7" y="2" width="42" height="52">
<path d="M44.334 4.66602H11.6673C11.0485 4.66602 10.455 4.91185 10.0174 5.34943C9.57982 5.78702 9.33398 6.38051 9.33398 6.99935V48.9994C9.33398 49.6182 9.57982 50.2117 10.0174 50.6493C10.455 51.0869 11.0485 51.3327 11.6673 51.3327H44.334C44.9528 51.3327 45.5463 51.0869 45.9839 50.6493C46.4215 50.2117 46.6673 49.6182 46.6673 48.9994V6.99935C46.6673 6.38051 46.4215 5.78702 45.9839 5.34943C45.5463 4.91185 44.9528 4.66602 44.334 4.66602Z" fill="white" stroke="white" stroke-width="4" stroke-linecap="round" stroke-linejoin="round"/>
<path d="M19.834 34.9994H36.1673M19.834 41.9994H28.0007M23.334 24.4993L32.6673 15.166M32.6673 24.4993L23.334 15.166" stroke="black" stroke-width="4" stroke-linecap="round" stroke-linejoin="round"/>
</mask>
<g mask="url(#mask0_476_11770)">
<path d="M0 0H56V56H0V0Z" fill="#E1E5EB"/>
</g>
</svg>
