<svg width="49" height="48" viewBox="0 0 49 48" fill="none" xmlns="http://www.w3.org/2000/svg">
<rect x="0.667969" width="48" height="48" rx="24" fill="#0E8E3D"/>
<path d="M33.8607 21.8792L32.9627 20.9802C32.7727 20.7912 32.6687 20.5392 32.6687 20.2722V19.0002C32.6687 17.3462 31.3227 16.0002 29.6687 16.0002H28.3967C28.1337 16.0002 27.8757 15.8932 27.6897 15.7072L26.7907 14.8082C25.6207 13.6382 23.7187 13.6382 22.5487 14.8082L21.6477 15.7072C21.4617 15.8932 21.2037 16.0002 20.9407 16.0002H19.6687C18.0147 16.0002 16.6687 17.3462 16.6687 19.0002V20.2722C16.6687 20.5392 16.5647 20.7912 16.3757 20.9802L15.4767 21.8782C14.9097 22.4452 14.5977 23.1992 14.5977 24.0002C14.5977 24.8012 14.9107 25.5552 15.4767 26.1212L16.3747 27.0202C16.5647 27.2092 16.6687 27.4612 16.6687 27.7282V29.0002C16.6687 30.6542 18.0147 32.0002 19.6687 32.0002H20.9407C21.2037 32.0002 21.4617 32.1072 21.6477 32.2932L22.5467 33.1932C23.1317 33.7772 23.8997 34.0692 24.6677 34.0692C25.4357 34.0692 26.2037 33.7772 26.7887 33.1922L27.6877 32.2932C27.8757 32.1072 28.1337 32.0002 28.3967 32.0002H29.6687C31.3227 32.0002 32.6687 30.6542 32.6687 29.0002V27.7282C32.6687 27.4612 32.7727 27.2092 32.9627 27.0202L33.8607 26.1222C34.4267 25.5552 34.7397 24.8022 34.7397 24.0002C34.7397 23.1982 34.4277 22.4452 33.8607 21.8792ZM29.2237 22.8322L23.2237 26.8322C23.0547 26.9452 22.8607 27.0002 22.6687 27.0002C22.4107 27.0002 22.1547 26.9002 21.9617 26.7072L19.9617 24.7072C19.5707 24.3162 19.5707 23.6842 19.9617 23.2932C20.3527 22.9022 20.9847 22.9022 21.3757 23.2932L22.7957 24.7132L28.1137 21.1682C28.5747 20.8612 29.1947 20.9852 29.5007 21.4452C29.8077 21.9052 29.6837 22.5262 29.2237 22.8322Z" fill="white"/>
</svg>
