<svg width="146" height="24" viewBox="0 0 146 24" fill="none" xmlns="http://www.w3.org/2000/svg">
<path d="M17 15C18.6569 15 20 13.6569 20 12C20 10.3431 18.6569 9 17 9C15.3431 9 14 10.3431 14 12C14 13.6569 15.3431 15 17 15Z" fill="#1BE9AA"/>
<path d="M28.2047 11.745C27.3226 9.46324 25.7912 7.48996 23.7998 6.06906C21.8084 4.64817 19.4443 3.84193 16.9997 3.75C14.5551 3.84193 12.191 4.64817 10.1996 6.06906C8.20819 7.48996 6.6768 9.46324 5.79468 11.745C5.73511 11.9098 5.73511 12.0902 5.79468 12.255C6.6768 14.5368 8.20819 16.51 10.1996 17.9309C12.191 19.3518 14.5551 20.1581 16.9997 20.25C19.4443 20.1581 21.8084 19.3518 23.7998 17.9309C25.7912 16.51 27.3226 14.5368 28.2047 12.255C28.2643 12.0902 28.2643 11.9098 28.2047 11.745ZM16.9997 16.875C16.0355 16.875 15.093 16.5891 14.2913 16.0534C13.4896 15.5177 12.8647 14.7564 12.4958 13.8656C12.1268 12.9748 12.0303 11.9946 12.2184 11.0489C12.4065 10.1033 12.8708 9.23464 13.5525 8.55285C14.2343 7.87107 15.103 7.40677 16.0486 7.21867C16.9943 7.03057 17.9745 7.12711 18.8653 7.49609C19.7561 7.86506 20.5174 8.48991 21.0531 9.2916C21.5888 10.0933 21.8747 11.0358 21.8747 12C21.8727 13.2923 21.3584 14.5311 20.4446 15.445C19.5308 16.3588 18.292 16.873 16.9997 16.875Z" fill="#1BE9AA"/>
<path d="M71.5 4.5H74.5C74.5 4.10218 74.342 3.72064 74.0607 3.43934C73.7794 3.15804 73.3978 3 73 3C72.6022 3 72.2206 3.15804 71.9393 3.43934C71.658 3.72064 71.5 4.10218 71.5 4.5ZM70 4.5C70 3.70435 70.3161 2.94129 70.8787 2.37868C71.4413 1.81607 72.2044 1.5 73 1.5C73.7956 1.5 74.5587 1.81607 75.1213 2.37868C75.6839 2.94129 76 3.70435 76 4.5H82C82.1989 4.5 82.3897 4.57902 82.5303 4.71967C82.671 4.86032 82.75 5.05109 82.75 5.25C82.75 5.44891 82.671 5.63968 82.5303 5.78033C82.3897 5.92098 82.1989 6 82 6H81.154L79.3465 19.257C79.2239 20.1554 78.78 20.979 78.0968 21.5752C77.4137 22.1714 76.5377 22.5 75.631 22.5H70.369C69.4623 22.5 68.5863 22.1714 67.9032 21.5752C67.22 20.979 66.7761 20.1554 66.6535 19.257L64.846 6H64C63.8011 6 63.6103 5.92098 63.4697 5.78033C63.329 5.63968 63.25 5.44891 63.25 5.25C63.25 5.05109 63.329 4.86032 63.4697 4.71967C63.6103 4.57902 63.8011 4.5 64 4.5H70ZM71.5 9.75C71.5 9.55109 71.421 9.36032 71.2803 9.21967C71.1397 9.07902 70.9489 9 70.75 9C70.5511 9 70.3603 9.07902 70.2197 9.21967C70.079 9.36032 70 9.55109 70 9.75V17.25C70 17.4489 70.079 17.6397 70.2197 17.7803C70.3603 17.921 70.5511 18 70.75 18C70.9489 18 71.1397 17.921 71.2803 17.7803C71.421 17.6397 71.5 17.4489 71.5 17.25V9.75ZM75.25 9C75.0511 9 74.8603 9.07902 74.7197 9.21967C74.579 9.36032 74.5 9.55109 74.5 9.75V17.25C74.5 17.4489 74.579 17.6397 74.7197 17.7803C74.8603 17.921 75.0511 18 75.25 18C75.4489 18 75.6397 17.921 75.7803 17.7803C75.921 17.6397 76 17.4489 76 17.25V9.75C76 9.55109 75.921 9.36032 75.7803 9.21967C75.6397 9.07902 75.4489 9 75.25 9Z" fill="#EE2E2E"/>
<path d="M129 16L124 11L125.4 9.55L128 12.15V4H130V12.15L132.6 9.55L134 11L129 16ZM123 20C122.45 20 121.979 19.8043 121.588 19.413C121.197 19.0217 121.001 18.5507 121 18V15H123V18H135V15H137V18C137 18.55 136.804 19.021 136.413 19.413C136.022 19.805 135.551 20.0007 135 20H123Z" fill="#19B6E8"/>
</svg>
