<svg width="21" height="21" viewBox="0 0 21 21" fill="none" xmlns="http://www.w3.org/2000/svg">
<path d="M1.55263 20.5H15.2368C15.516 20.5 15.7838 20.3891 15.9812 20.1917C16.1786 19.9943 16.2895 19.7265 16.2895 19.4474V9.97368C16.2895 9.69451 16.1786 9.42677 15.9812 9.22936C15.7838 9.03195 15.516 8.92105 15.2368 8.92105H0.5V19.4474C0.5 19.7265 0.610902 19.9943 0.808309 20.1917C1.00572 20.3891 1.27346 20.5 1.55263 20.5Z" fill="#D1D1D6"/>
<path d="M0.5 6.81579H8.33474L7.07158 5.13158C6.97353 5.00085 6.84639 4.89474 6.70023 4.82166C6.55406 4.74857 6.39289 4.71053 6.22947 4.71053H1.55263C1.27346 4.71053 1.00572 4.82143 0.808309 5.01884C0.610902 5.21624 0.5 5.48398 0.5 5.76316V6.81579Z" fill="#D1D1D6"/>
<path d="M18.3947 4.71053H13.5979L11.0716 1.34211C10.875 1.08118 10.6206 0.86936 10.3284 0.723253C10.0362 0.577147 9.71407 0.500731 9.38737 0.5H4.71053C4.15218 0.5 3.61669 0.721804 3.22188 1.11662C2.82707 1.51143 2.60526 2.04691 2.60526 2.60526H6.22947C6.71952 2.6064 7.20264 2.72104 7.64095 2.9402C8.07927 3.15935 8.46085 3.47707 8.75579 3.86842L10.9663 6.81579H15.2368C16.0744 6.81579 16.8776 7.1485 17.4698 7.74072C18.062 8.33294 18.3947 9.13616 18.3947 9.97368V18.3947C18.9531 18.3947 19.4886 18.1729 19.8834 17.7781C20.2782 17.3833 20.5 16.8478 20.5 16.2895V6.81579C20.5 6.25744 20.2782 5.72196 19.8834 5.32714C19.4886 4.93233 18.9531 4.71053 18.3947 4.71053Z" fill="#D1D1D6"/>
</svg>
