<svg width="49" height="48" viewBox="0 0 49 48" fill="none" xmlns="http://www.w3.org/2000/svg">
<rect x="0.333984" width="48" height="48" rx="24" fill="#155DFC"/>
<path d="M24.334 24.5263C25.9908 24.5263 27.334 23.1125 27.334 21.3685C27.334 19.6244 25.9908 18.2106 24.334 18.2106C22.6771 18.2106 21.334 19.6244 21.334 21.3685C21.334 23.1125 22.6771 24.5263 24.334 24.5263Z" fill="white"/>
<path d="M23.334 27.6842H25.334C26.3948 27.6842 27.4123 28.1278 28.1624 28.9175C28.9126 29.7071 29.334 30.778 29.334 31.8947V34H19.334V31.8947C19.334 30.778 19.7554 29.7071 20.5056 28.9175C21.2557 28.1278 22.2731 27.6842 23.334 27.6842Z" fill="white"/>
<path d="M27.334 21.3685C27.3332 20.6242 27.0823 19.9043 26.6257 19.3362C26.169 18.768 25.5361 18.3883 24.839 18.2643" fill="white"/>
<path d="M28.834 14.0001C28.1155 14.0024 27.411 14.209 26.7949 14.5981C26.1788 14.9872 25.674 15.5444 25.334 16.2106C26.4627 16.4547 27.4768 17.1011 28.2055 18.0406C28.9341 18.9802 29.3327 20.1556 29.334 21.3685C29.3323 21.7079 29.2988 22.0464 29.234 22.379C30.2565 22.2766 31.202 21.7629 31.8738 20.945C32.5455 20.1271 32.8916 19.068 32.8401 17.9882C32.7885 16.9084 32.3433 15.8911 31.597 15.1482C30.8508 14.4053 29.8611 13.9941 28.834 14.0001Z" fill="white"/>
<path d="M21.7 25.8232C20.8465 25.2605 20.172 24.4424 19.763 23.4737H19.334C18.0084 23.4754 16.7375 24.0304 15.8002 25.0171C14.8629 26.0038 14.3356 27.3415 14.334 28.7369V30.8421C14.334 31.1213 14.4393 31.389 14.6269 31.5864C14.8144 31.7838 15.0688 31.8947 15.334 31.8947H17.334C17.3363 30.5208 17.7636 29.1851 18.5514 28.0896C19.3391 26.9941 20.4444 26.1985 21.7 25.8232Z" fill="white"/>
<path d="M29.334 23.4737H28.905C28.496 24.4424 27.8215 25.2605 26.968 25.8232C28.2236 26.1985 29.3289 26.9941 30.1166 28.0896C30.9044 29.1851 31.3317 30.5208 31.334 31.8947H33.334C33.5992 31.8947 33.8536 31.7838 34.0411 31.5864C34.2286 31.389 34.334 31.1213 34.334 30.8421V28.7369C34.3324 27.3415 33.8051 26.0038 32.8678 25.0171C31.9304 24.0304 30.6596 23.4754 29.334 23.4737Z" fill="white"/>
<path d="M19.334 21.3685C19.3353 20.1556 19.7338 18.9802 20.4625 18.0407C21.1911 17.1011 22.2053 16.4547 23.334 16.2106C23.0075 15.5725 22.5296 15.0342 21.9469 14.6482C21.3641 14.2622 20.6964 14.0415 20.0086 14.0078C19.3208 13.974 18.6364 14.1283 18.0221 14.4556C17.4077 14.7828 16.8843 15.2719 16.5029 15.8753C16.1214 16.4787 15.8948 17.1757 15.8452 17.8986C15.7956 18.6215 15.9246 19.3456 16.2197 20.0004C16.5148 20.6552 16.966 21.2185 17.5293 21.6353C18.0925 22.0521 18.7487 22.3083 19.434 22.379C19.3691 22.0464 19.3356 21.708 19.334 21.3685Z" fill="white"/>
</svg>
