<svg width="48" height="48" viewBox="0 0 48 48" fill="none" xmlns="http://www.w3.org/2000/svg">
<rect width="48" height="48" rx="24" fill="#FF5F57"/>
<path d="M24 14C22.0222 14 20.0888 14.5865 18.4443 15.6853C16.7998 16.7841 15.5181 18.3459 14.7612 20.1732C14.0043 22.0004 13.8063 24.0111 14.1922 25.9509C14.578 27.8907 15.5304 29.6725 16.9289 31.0711C18.3275 32.4696 20.1093 33.422 22.0491 33.8079C23.9889 34.1937 25.9996 33.9957 27.8268 33.2388C29.6541 32.4819 31.2159 31.2002 32.3147 29.5557C33.4135 27.9112 34 25.9778 34 24C33.9971 21.3487 32.9426 18.8069 31.0679 16.9321C29.1931 15.0574 26.6513 14.0029 24 14ZM27.982 27.982C27.7945 28.1695 27.5402 28.2748 27.275 28.2748C27.0098 28.2748 26.7555 28.1695 26.568 27.982L23.294 24.708C23.1069 24.5197 23.0014 24.2654 23 24V20C23 19.7348 23.1054 19.4804 23.2929 19.2929C23.4804 19.1054 23.7348 19 24 19C24.2652 19 24.5196 19.1054 24.7071 19.2929C24.8946 19.4804 25 19.7348 25 20V23.586L27.982 26.568C28.1695 26.7555 28.2748 27.0098 28.2748 27.275C28.2748 27.5402 28.1695 27.7945 27.982 27.982Z" fill="white"/>
</svg>
