<svg width="24" height="25" viewBox="0 0 24 25" fill="none" xmlns="http://www.w3.org/2000/svg">
<path d="M18.6303 20.5H4.42093C4.04408 20.5 3.68266 20.342 3.41618 20.0607C3.14971 19.7794 3 19.3978 3 19V6C3 5.60218 3.14971 5.22064 3.41618 4.93934C3.68266 4.65804 4.04408 4.5 4.42093 4.5C4.79779 4.5 5.15921 4.65804 5.42569 4.93934C5.69216 5.22064 5.84187 5.60218 5.84187 6V17.5H18.6303C19.0071 17.5 19.3686 17.658 19.635 17.9393C19.9015 18.2206 20.0512 18.6022 20.0512 19C20.0512 19.3978 19.9015 19.7794 19.635 20.0607C19.3686 20.342 19.0071 20.5 18.6303 20.5Z" fill="#D1D1D6"/>
<path d="M8.21009 16.5C7.94621 16.5 7.68754 16.4224 7.46306 16.276C7.23859 16.1295 7.05718 15.92 6.93917 15.6708C6.82116 15.4217 6.7712 15.1427 6.7949 14.8653C6.8186 14.5878 6.91501 14.3229 7.07335 14.1L9.91521 10.1C10.1331 9.79329 10.4541 9.58632 10.8121 9.5216C11.17 9.45688 11.5379 9.53932 11.8401 9.752L13.442 10.879L15.5175 7.229C15.6164 7.05492 15.7477 6.90384 15.9035 6.78491C16.0593 6.66597 16.2364 6.58165 16.4239 6.53706C16.6115 6.49246 16.8057 6.48852 16.9948 6.52546C17.1838 6.56241 17.3638 6.63948 17.5238 6.752L20.3657 8.752C20.6798 8.97266 20.8979 9.31598 20.9722 9.70643C21.0464 10.0969 20.9707 10.5025 20.7617 10.834C20.5527 11.1655 20.2274 11.3958 19.8576 11.4742C19.4877 11.5526 19.1035 11.4727 18.7894 11.252L17.1876 10.125L15.112 13.775C15.0132 13.9491 14.8818 14.1002 14.726 14.2191C14.5702 14.338 14.3932 14.4223 14.2056 14.4669C14.018 14.5115 13.8238 14.5155 13.6348 14.4785C13.4457 14.4416 13.2657 14.3645 13.1057 14.252L11.3826 13.039L9.34684 15.9C9.21448 16.0863 9.04286 16.2375 8.84555 16.3416C8.64825 16.4458 8.43069 16.5 8.21009 16.5Z" fill="#D1D1D6"/>
</svg>
