<svg width="21" height="19" viewBox="0 0 21 19" fill="none" xmlns="http://www.w3.org/2000/svg">
<path d="M20.207 10.7334C18.03 12.8141 14.265 13.855 10.5 13.855C6.735 13.855 2.97 12.8141 0.793 10.7334L0.5 10.4534V16.5885C0.5 17.0954 0.710714 17.5816 1.08579 17.9401C1.46086 18.2986 1.96957 18.5 2.5 18.5H18.5C19.0304 18.5 19.5391 18.2986 19.9142 17.9401C20.2893 17.5816 20.5 17.0954 20.5 16.5885V10.4534L20.207 10.7334Z" fill="#D1D1D6"/>
<path d="M18.5 4.32308H15.5V3.36731C15.5 2.60685 15.1839 1.87754 14.6213 1.33981C14.0587 0.80209 13.2956 0.5 12.5 0.5H8.5C7.70435 0.5 6.94129 0.80209 6.37868 1.33981C5.81607 1.87754 5.5 2.60685 5.5 3.36731V4.32308H2.5C1.96957 4.32308 1.46086 4.52447 1.08579 4.88295C0.710714 5.24144 0.5 5.72764 0.5 6.23461V7.75046L2.207 9.38196C5.85 12.861 15.15 12.861 18.793 9.38196L20.5 7.75046V6.23461C20.5 5.72764 20.2893 5.24144 19.9142 4.88295C19.5391 4.52447 19.0304 4.32308 18.5 4.32308ZM10.5 10.0577C10.3022 10.0577 10.1089 10.0016 9.94443 9.89662C9.77998 9.79159 9.65181 9.64232 9.57612 9.46768C9.50043 9.29304 9.48063 9.10086 9.51921 8.91546C9.5578 8.73006 9.65304 8.55976 9.79289 8.42609C9.93275 8.29242 10.1109 8.2014 10.3049 8.16452C10.4989 8.12764 10.7 8.14657 10.8827 8.21891C11.0654 8.29125 11.2216 8.41375 11.3315 8.57093C11.4414 8.7281 11.5 8.91289 11.5 9.10192C11.5 9.35541 11.3946 9.59851 11.2071 9.77775C11.0196 9.95699 10.7652 10.0577 10.5 10.0577ZM13.5 4.32308H7.5V3.36731C7.5 3.11382 7.60536 2.87072 7.79289 2.69148C7.98043 2.51223 8.23478 2.41154 8.5 2.41154H12.5C12.7652 2.41154 13.0196 2.51223 13.2071 2.69148C13.3946 2.87072 13.5 3.11382 13.5 3.36731V4.32308Z" fill="#D1D1D6"/>
</svg>
