<svg width="20" height="21" viewBox="0 0 20 21" fill="none" xmlns="http://www.w3.org/2000/svg">
<path d="M15.6197 11.5862V9.69145C15.6204 8.41088 15.1719 7.1675 14.3466 6.16238C13.5213 5.15725 12.3675 4.44916 11.0718 4.15258C11.0817 4.11584 11.0894 4.07859 11.0948 4.041V1.55262C11.0948 1.27345 10.9795 1.00571 10.7741 0.808305C10.5688 0.610901 10.2904 0.5 10 0.5C9.70964 0.5 9.43117 0.610901 9.22585 0.808305C9.02054 1.00571 8.90519 1.27345 8.90519 1.55262V4.041C8.91064 4.07859 8.91831 4.11584 8.92818 4.15258C7.63249 4.44916 6.47871 5.15725 5.65343 6.16238C4.82815 7.1675 4.37961 8.41088 4.38034 9.69145V11.5862C4.38034 14.0977 2.33633 14.7251 2.33633 15.9808C2.33633 16.605 2.33633 17.2366 2.92534 17.2366H17.0747C17.6637 17.2366 17.6637 16.605 17.6637 15.9808C17.6637 14.7251 15.6197 14.0977 15.6197 11.5862Z" fill="#D1D1D6"/>
<path d="M1.09481 10.7441C0.804449 10.7441 0.525979 10.6332 0.320663 10.4358C0.115346 10.2384 0 9.97063 0 9.69146C0.00560607 7.19558 0.989569 4.79345 2.75564 2.96418C2.95294 2.75885 3.227 2.63729 3.51752 2.62623C3.80804 2.61518 4.09123 2.71554 4.30479 2.90524C4.51836 3.09493 4.64479 3.35843 4.65629 3.63775C4.66779 3.91708 4.56341 4.18936 4.3661 4.39469C2.97283 5.83592 2.19569 7.72908 2.18962 9.69672C2.18817 9.97498 2.07219 10.2414 1.86703 10.4376C1.66187 10.6339 1.38423 10.7441 1.09481 10.7441Z" fill="#D1D1D6"/>
<path d="M18.9052 10.7441C18.6148 10.7441 18.3364 10.6332 18.131 10.4358C17.9257 10.2384 17.8104 9.97062 17.8104 9.69145C17.8029 7.72564 17.0259 5.83459 15.6339 4.39469C15.4463 4.18798 15.3501 3.91904 15.3657 3.64514C15.3813 3.37124 15.5075 3.11401 15.7174 2.92824C15.9274 2.74246 16.2044 2.64281 16.4896 2.65051C16.7748 2.65821 17.0456 2.77264 17.2444 2.96944C19.0104 4.79871 19.9944 7.20084 20 9.69672C19.9986 9.97498 19.8826 10.2414 19.6774 10.4376C19.4722 10.6339 19.1946 10.7441 18.9052 10.7441Z" fill="#D1D1D6"/>
<path d="M6.52179 18.2892C6.81222 18.945 7.29679 19.5043 7.91522 19.8973C8.53366 20.2904 9.25865 20.5 10 20.5C10.7414 20.5 11.4663 20.2904 12.0848 19.8973C12.7032 19.5043 13.1878 18.945 13.4782 18.2892H6.52179Z" fill="#D1D1D6"/>
</svg>
