<svg width="21" height="15" viewBox="0 0 21 15" fill="none" xmlns="http://www.w3.org/2000/svg">
<path d="M18.5 0.5H2.5C1.96957 0.5 1.46086 0.710714 1.08579 1.08579C0.710714 1.46086 0.5 1.96957 0.5 2.5V12.5C0.5 13.0304 0.710714 13.5391 1.08579 13.9142C1.46086 14.2893 1.96957 14.5 2.5 14.5H18.5C19.0304 14.5 19.5391 14.2893 19.9142 13.9142C20.2893 13.5391 20.5 13.0304 20.5 12.5V2.5C20.5 1.96957 20.2893 1.46086 19.9142 1.08579C19.5391 0.710714 19.0304 0.5 18.5 0.5ZM2.5 6.5H9.5V12.5H2.5V6.5ZM11.5 12.5V6.5H18.5V12.5H11.5Z" fill="#D1D1D6"/>
</svg>
