<svg width="17" height="21" viewBox="0 0 17 21" fill="none" xmlns="http://www.w3.org/2000/svg">
<path d="M5.50023 5.5V0.630005C5.01262 0.765807 4.56763 1.02358 4.20723 1.379L1.37923 4.207C1.02381 4.5674 0.766036 5.01239 0.630234 5.5H5.50023Z" fill="#D1D1D6"/>
<path d="M14.5662 0.5H7.50023V5.5C7.50023 6.03043 7.28952 6.53914 6.91445 6.91421C6.53937 7.28929 6.03067 7.5 5.50023 7.5H0.500234V18.5C0.492206 19.0215 0.691287 19.5248 1.05383 19.8998C1.41637 20.2747 1.91279 20.4905 2.43423 20.5H14.5662C15.0877 20.4905 15.5841 20.2747 15.9466 19.8998C16.3092 19.5248 16.5083 19.0215 16.5002 18.5V2.5C16.5083 1.97853 16.3092 1.47515 15.9466 1.10024C15.5841 0.725324 15.0877 0.509469 14.5662 0.5ZM6.50023 16.5C6.50023 16.7652 6.39488 17.0196 6.20734 17.2071C6.0198 17.3946 5.76545 17.5 5.50023 17.5C5.23502 17.5 4.98066 17.3946 4.79313 17.2071C4.60559 17.0196 4.50023 16.7652 4.50023 16.5V14.5C4.50023 14.2348 4.60559 13.9804 4.79313 13.7929C4.98066 13.6054 5.23502 13.5 5.50023 13.5C5.76545 13.5 6.0198 13.6054 6.20734 13.7929C6.39488 13.9804 6.50023 14.2348 6.50023 14.5V16.5ZM9.50023 16.5C9.50023 16.7652 9.39488 17.0196 9.20734 17.2071C9.0198 17.3946 8.76545 17.5 8.50023 17.5C8.23502 17.5 7.98066 17.3946 7.79313 17.2071C7.60559 17.0196 7.50023 16.7652 7.50023 16.5V10.5C7.50023 10.2348 7.60559 9.98043 7.79313 9.79289C7.98066 9.60536 8.23502 9.5 8.50023 9.5C8.76545 9.5 9.0198 9.60536 9.20734 9.79289C9.39488 9.98043 9.50023 10.2348 9.50023 10.5V16.5ZM12.5002 16.5C12.5002 16.7652 12.3949 17.0196 12.2073 17.2071C12.0198 17.3946 11.7655 17.5 11.5002 17.5C11.235 17.5 10.9807 17.3946 10.7931 17.2071C10.6056 17.0196 10.5002 16.7652 10.5002 16.5V12.5C10.5002 12.2348 10.6056 11.9804 10.7931 11.7929C10.9807 11.6054 11.235 11.5 11.5002 11.5C11.7655 11.5 12.0198 11.6054 12.2073 11.7929C12.3949 11.9804 12.5002 12.2348 12.5002 12.5V16.5Z" fill="#D1D1D6"/>
</svg>
