<svg width="24" height="25" viewBox="0 0 24 25" fill="none" xmlns="http://www.w3.org/2000/svg">
<path d="M3 7.49912H4.424C4.63173 8.15189 5.04175 8.72165 5.59472 9.12598C6.1477 9.53031 6.81497 9.74824 7.5 9.74824C8.18503 9.74824 8.8523 9.53031 9.40528 9.12598C9.95825 8.72165 10.3683 8.15189 10.576 7.49912H21C21.2652 7.49912 21.5196 7.39376 21.7071 7.20623C21.8946 7.01869 22 6.76434 22 6.49912C22 6.2339 21.8946 5.97955 21.7071 5.79201C21.5196 5.60448 21.2652 5.49912 21 5.49912H10.576C10.3683 4.84635 9.95825 4.27658 9.40528 3.87226C8.8523 3.46793 8.18503 3.25 7.5 3.25C6.81497 3.25 6.1477 3.46793 5.59472 3.87226C5.04175 4.27658 4.63173 4.84635 4.424 5.49912H3C2.73478 5.49912 2.48043 5.60448 2.29289 5.79201C2.10536 5.97955 2 6.2339 2 6.49912C2 6.76434 2.10536 7.01869 2.29289 7.20623C2.48043 7.39376 2.73478 7.49912 3 7.49912Z" fill="#D1D1D6"/>
<path d="M21 11.4991H19.576C19.3683 10.8463 18.9583 10.2766 18.4053 9.87226C17.8523 9.46793 17.185 9.25 16.5 9.25C15.815 9.25 15.1477 9.46793 14.5947 9.87226C14.0417 10.2766 13.6317 10.8463 13.424 11.4991H3C2.73478 11.4991 2.48043 11.6045 2.29289 11.792C2.10536 11.9795 2 12.2339 2 12.4991C2 12.7643 2.10536 13.0187 2.29289 13.2062C2.48043 13.3938 2.73478 13.4991 3 13.4991H13.424C13.6317 14.1519 14.0417 14.7217 14.5947 15.126C15.1477 15.5303 15.815 15.7482 16.5 15.7482C17.185 15.7482 17.8523 15.5303 18.4053 15.126C18.9583 14.7217 19.3683 14.1519 19.576 13.4991H21C21.2652 13.4991 21.5196 13.3938 21.7071 13.2062C21.8946 13.0187 22 12.7643 22 12.4991C22 12.2339 21.8946 11.9795 21.7071 11.792C21.5196 11.6045 21.2652 11.4991 21 11.4991Z" fill="#D1D1D6"/>
<path d="M21 17.4991H10.576C10.3683 16.8463 9.95825 16.2766 9.40528 15.8723C8.8523 15.4679 8.18503 15.25 7.5 15.25C6.81497 15.25 6.1477 15.4679 5.59472 15.8723C5.04175 16.2766 4.63173 16.8463 4.424 17.4991H3C2.73478 17.4991 2.48043 17.6045 2.29289 17.792C2.10536 17.9795 2 18.2339 2 18.4991C2 18.7643 2.10536 19.0187 2.29289 19.2062C2.48043 19.3938 2.73478 19.4991 3 19.4991H4.424C4.63173 20.1519 5.04175 20.7217 5.59472 21.126C6.1477 21.5303 6.81497 21.7482 7.5 21.7482C8.18503 21.7482 8.8523 21.5303 9.40528 21.126C9.95825 20.7217 10.3683 20.1519 10.576 19.4991H21C21.2652 19.4991 21.5196 19.3938 21.7071 19.2062C21.8946 19.0187 22 18.7643 22 18.4991C22 18.2339 21.8946 17.9795 21.7071 17.792C21.5196 17.6045 21.2652 17.4991 21 17.4991Z" fill="#D1D1D6"/>
</svg>
