<svg width="20" height="21" viewBox="0 0 20 21" fill="none" xmlns="http://www.w3.org/2000/svg">
<path d="M15.7895 11.0263H9.47369V4.71053C9.47369 4.43135 9.36278 4.16361 9.16538 3.9662C8.96797 3.7688 8.70023 3.65789 8.42105 3.65789C6.75553 3.65789 5.1274 4.15178 3.74257 5.0771C2.35773 6.00241 1.27839 7.3176 0.641018 8.85635C0.00364868 10.3951 -0.163116 12.0883 0.161812 13.7218C0.48674 15.3553 1.28877 16.8558 2.46647 18.0335C3.64418 19.2112 5.14467 20.0133 6.77819 20.3382C8.41171 20.6631 10.1049 20.4964 11.6437 19.859C13.1824 19.2216 14.4976 18.1423 15.4229 16.7574C16.3482 15.3726 16.8421 13.7445 16.8421 12.0789C16.8421 11.7998 16.7312 11.532 16.5338 11.3346C16.3364 11.1372 16.0686 11.0263 15.7895 11.0263Z" fill="#D1D1D6"/>
<path d="M11.5789 0.5C11.2998 0.5 11.032 0.610902 10.8346 0.808309C10.6372 1.00572 10.5263 1.27346 10.5263 1.55263V8.92105C10.5263 9.20023 10.6372 9.46797 10.8346 9.66537C11.032 9.86278 11.2998 9.97368 11.5789 9.97368H18.9474C19.2265 9.97368 19.4943 9.86278 19.6917 9.66537C19.8891 9.46797 20 9.20023 20 8.92105C19.9975 6.68842 19.1095 4.54795 17.5308 2.96924C15.9521 1.39053 13.8116 0.502507 11.5789 0.5Z" fill="#D1D1D6"/>
</svg>
