<svg width="19" height="17" viewBox="0 0 19 17" fill="none" xmlns="http://www.w3.org/2000/svg">
<path d="M16.3803 16.5H2.17093C1.79408 16.5 1.43266 16.342 1.16618 16.0607C0.899705 15.7794 0.75 15.3978 0.75 15V2C0.75 1.60218 0.899705 1.22064 1.16618 0.93934C1.43266 0.658035 1.79408 0.5 2.17093 0.5C2.54779 0.5 2.90921 0.658035 3.17569 0.93934C3.44216 1.22064 3.59187 1.60218 3.59187 2V13.5H16.3803C16.7571 13.5 17.1186 13.658 17.385 13.9393C17.6515 14.2206 17.8012 14.6022 17.8012 15C17.8012 15.3978 17.6515 15.7794 17.385 16.0607C17.1186 16.342 16.7571 16.5 16.3803 16.5Z" fill="#D1D1D6"/>
<path d="M5.96009 12.5C5.69621 12.5 5.43754 12.4224 5.21306 12.276C4.98859 12.1295 4.80718 11.92 4.68917 11.6708C4.57116 11.4217 4.5212 11.1427 4.5449 10.8653C4.5686 10.5878 4.66501 10.3229 4.82335 10.1L7.66521 6.1C7.88315 5.79329 8.20407 5.58632 8.56205 5.5216C8.92004 5.45688 9.28791 5.53932 9.59011 5.752L11.192 6.879L13.2675 3.229C13.3664 3.05492 13.4977 2.90384 13.6535 2.78491C13.8093 2.66597 13.9864 2.58165 14.1739 2.53706C14.3615 2.49246 14.5557 2.48852 14.7448 2.52546C14.9338 2.56241 15.1138 2.63948 15.2738 2.752L18.1157 4.752C18.4298 4.97266 18.6479 5.31598 18.7222 5.70643C18.7964 6.09688 18.7207 6.50248 18.5117 6.834C18.3027 7.16552 17.9774 7.39581 17.6076 7.4742C17.2377 7.55259 16.8535 7.47266 16.5394 7.252L14.9376 6.125L12.862 9.775C12.7632 9.94908 12.6318 10.1002 12.476 10.2191C12.3202 10.338 12.1432 10.4223 11.9556 10.4669C11.768 10.5115 11.5738 10.5155 11.3848 10.4785C11.1957 10.4416 11.0157 10.3645 10.8557 10.252L9.13257 9.039L7.09684 11.9C6.96448 12.0863 6.79286 12.2375 6.59555 12.3416C6.39825 12.4458 6.18069 12.5 5.96009 12.5Z" fill="#D1D1D6"/>
</svg>
