<svg width="24" height="25" viewBox="0 0 24 25" fill="none" xmlns="http://www.w3.org/2000/svg">
<path d="M21.707 13.7334C19.53 15.8141 15.765 16.855 12 16.855C8.235 16.855 4.47 15.8141 2.293 13.7334L2 13.4534V19.5885C2 20.0954 2.21071 20.5816 2.58579 20.9401C2.96086 21.2986 3.46957 21.5 4 21.5H20C20.5304 21.5 21.0391 21.2986 21.4142 20.9401C21.7893 20.5816 22 20.0954 22 19.5885V13.4534L21.707 13.7334Z" fill="#D1D1D6"/>
<path d="M20 7.32308H17V6.36731C17 5.60685 16.6839 4.87754 16.1213 4.33981C15.5587 3.80209 14.7956 3.5 14 3.5H10C9.20435 3.5 8.44129 3.80209 7.87868 4.33981C7.31607 4.87754 7 5.60685 7 6.36731V7.32308H4C3.46957 7.32308 2.96086 7.52447 2.58579 7.88295C2.21071 8.24144 2 8.72764 2 9.23461V10.7505L3.707 12.382C7.35 15.861 16.65 15.861 20.293 12.382L22 10.7505V9.23461C22 8.72764 21.7893 8.24144 21.4142 7.88295C21.0391 7.52447 20.5304 7.32308 20 7.32308ZM12 13.0577C11.8022 13.0577 11.6089 13.0016 11.4444 12.8966C11.28 12.7916 11.1518 12.6423 11.0761 12.4677C11.0004 12.293 10.9806 12.1009 11.0192 11.9155C11.0578 11.7301 11.153 11.5598 11.2929 11.4261C11.4327 11.2924 11.6109 11.2014 11.8049 11.1645C11.9989 11.1276 12.2 11.1466 12.3827 11.2189C12.5654 11.2912 12.7216 11.4138 12.8315 11.5709C12.9414 11.7281 13 11.9129 13 12.1019C13 12.3554 12.8946 12.5985 12.7071 12.7778C12.5196 12.957 12.2652 13.0577 12 13.0577ZM15 7.32308H9V6.36731C9 6.11382 9.10536 5.87072 9.29289 5.69148C9.48043 5.51223 9.73478 5.41154 10 5.41154H14C14.2652 5.41154 14.5196 5.51223 14.7071 5.69148C14.8946 5.87072 15 6.11382 15 6.36731V7.32308Z" fill="#D1D1D6"/>
</svg>
