<svg width="25" height="25" viewBox="0 0 25 25" fill="none" xmlns="http://www.w3.org/2000/svg">
<path d="M4.07474 8.46623L12.0131 12.496C12.1645 12.5722 12.3326 12.612 12.5032 12.612C12.6738 12.612 12.8418 12.5722 12.9932 12.496L20.9316 8.46623C21.1028 8.37932 21.2462 8.2486 21.3463 8.08825C21.4464 7.9279 21.4993 7.74403 21.4993 7.55659C21.4993 7.36915 21.4464 7.18528 21.3463 7.02493C21.2462 6.86458 21.1028 6.73386 20.9316 6.64695L12.9932 2.61721C12.8417 2.54022 12.6732 2.5 12.5021 2.5C12.3311 2.5 12.1625 2.54022 12.011 2.61721L4.07262 6.64695C3.90141 6.73386 3.758 6.86458 3.65793 7.02493C3.55786 7.18528 3.50496 7.36915 3.50496 7.55659C3.50496 7.74403 3.55786 7.9279 3.65793 8.08825C3.758 8.2486 3.90141 8.37932 4.07262 8.46623H4.07474Z" fill="#D1D1D6"/>
<path d="M20.4416 10.6664C20.1608 10.6664 19.8916 10.7746 19.6931 10.9671C19.4946 11.1597 19.3831 11.4208 19.3831 11.6931V11.8789L12.5032 15.3697L5.62325 11.8789V11.6931C5.62325 11.4208 5.51173 11.1597 5.31323 10.9671C5.11474 10.7746 4.84552 10.6664 4.5648 10.6664C4.28408 10.6664 4.01486 10.7746 3.81636 10.9671C3.61786 11.1597 3.50635 11.4208 3.50635 11.6931V12.5001C3.50632 12.6875 3.55917 12.8713 3.65917 13.0317C3.75918 13.192 3.90253 13.3228 4.07368 13.4097L12.0121 17.4395C12.1636 17.5164 12.3321 17.5567 12.5032 17.5567C12.6742 17.5567 12.8428 17.5164 12.9943 17.4395L20.9327 13.4097C21.1038 13.3228 21.2472 13.192 21.3472 13.0317C21.4472 12.8713 21.5 12.6875 21.5 12.5001V11.6931C21.5 11.4208 21.3885 11.1597 21.19 10.9671C20.9915 10.7746 20.7223 10.6664 20.4416 10.6664Z" fill="#D1D1D6"/>
<path d="M20.4352 15.6099C20.1545 15.6099 19.8853 15.7181 19.6868 15.9106C19.4883 16.1032 19.3768 16.3643 19.3768 16.6366V16.8224L12.4968 20.3131L5.6169 16.8224V16.6366C5.6169 16.3643 5.50539 16.1032 5.30689 15.9106C5.10839 15.7181 4.83917 15.6099 4.55845 15.6099C4.27773 15.6099 4.00851 15.7181 3.81001 15.9106C3.61152 16.1032 3.5 16.3643 3.5 16.6366V17.4446C3.49997 17.632 3.55282 17.8158 3.65283 17.9762C3.75283 18.1365 3.89618 18.2673 4.06733 18.3542L12.0057 22.384C12.1575 22.4602 12.3259 22.5 12.4968 22.5C12.6677 22.5 12.8362 22.4602 12.9879 22.384L20.9263 18.3542C21.0975 18.2673 21.2408 18.1365 21.3408 17.9762C21.4408 17.8158 21.4937 17.632 21.4937 17.4446V16.6366C21.4937 16.3643 21.3821 16.1032 21.1836 15.9106C20.9851 15.7181 20.7159 15.6099 20.4352 15.6099Z" fill="#D1D1D6"/>
</svg>
