<svg width="20" height="21" viewBox="0 0 20 21" fill="none" xmlns="http://www.w3.org/2000/svg">
<path d="M10 11.0263C11.6569 11.0263 13 9.61251 13 7.86846C13 6.12441 11.6569 4.71058 10 4.71058C8.34314 4.71058 7 6.12441 7 7.86846C7 9.61251 8.34314 11.0263 10 11.0263Z" fill="#D1D1D6"/>
<path d="M9 14.1842H11C12.0609 14.1842 13.0783 14.6278 13.8284 15.4175C14.5786 16.2071 15 17.278 15 18.3947V20.5H5V18.3947C5 17.278 5.42143 16.2071 6.17157 15.4175C6.92172 14.6278 7.93913 14.1842 9 14.1842Z" fill="#D1D1D6"/>
<path d="M13 7.86846C12.9993 7.12425 12.7483 6.40431 12.2917 5.83616C11.835 5.26801 11.2021 4.88829 10.505 4.76426" fill="#D1D1D6"/>
<path d="M14.5 0.500065C13.7815 0.502377 13.077 0.709012 12.4609 1.09812C11.8448 1.48723 11.34 2.04436 11 2.71058C12.1287 2.95471 13.1428 3.60106 13.8715 4.54065C14.6002 5.48023 14.9987 6.65557 15 7.86846C14.9983 8.20795 14.9648 8.54643 14.9 8.87899C15.9225 8.77657 16.868 8.26293 17.5398 7.44503C18.2115 6.62713 18.5576 5.568 18.5061 4.4882C18.4545 3.40839 18.0093 2.39113 17.263 1.64823C16.5168 0.905338 15.5271 0.494069 14.5 0.500065Z" fill="#D1D1D6"/>
<path d="M7.366 12.3232C6.51249 11.7605 5.83802 10.9424 5.429 9.97372H5C3.6744 9.97539 2.40356 10.5304 1.46622 11.5171C0.528882 12.5038 0.00158786 13.8415 0 15.2369V17.3421C0 17.6213 0.105357 17.889 0.292893 18.0864C0.480429 18.2838 0.734783 18.3947 1 18.3947H3C3.00228 17.0208 3.42963 15.6851 4.21738 14.5896C5.00513 13.4941 6.11042 12.6985 7.366 12.3232Z" fill="#D1D1D6"/>
<path d="M15 9.97372H14.571C14.162 10.9424 13.4875 11.7605 12.634 12.3232C13.8896 12.6985 14.9949 13.4941 15.7826 14.5896C16.5704 15.6851 16.9977 17.0208 17 18.3947H19C19.2652 18.3947 19.5196 18.2838 19.7071 18.0864C19.8946 17.889 20 17.6213 20 17.3421V15.2369C19.9984 13.8415 19.4711 12.5038 18.5338 11.5171C17.5964 10.5304 16.3256 9.97539 15 9.97372Z" fill="#D1D1D6"/>
<path d="M5 7.86847C5.00127 6.65557 5.39984 5.48024 6.12849 4.54065C6.85715 3.60107 7.87133 2.95472 9 2.71059C8.67352 2.07248 8.19564 1.53421 7.61289 1.14819C7.03015 0.762172 6.36238 0.541544 5.67459 0.507785C4.98681 0.474027 4.30243 0.628288 3.68809 0.955552C3.07374 1.28282 2.55036 1.77194 2.16888 2.3753C1.7874 2.97866 1.56083 3.67571 1.51121 4.3986C1.46159 5.12148 1.59062 5.84558 1.88574 6.5004C2.18086 7.15522 2.63201 7.71845 3.19528 8.13528C3.75855 8.55211 4.41475 8.80832 5.1 8.87899C5.03516 8.54643 5.00166 8.20795 5 7.86847Z" fill="#D1D1D6"/>
</svg>
