<svg width="20" height="20" viewBox="0 0 20 20" fill="none" xmlns="http://www.w3.org/2000/svg">
<path d="M17.8767 8.08828L18.1915 8.65695L18.1919 8.65676L17.8767 8.08828ZM16.7835 8.69349L17.0982 9.26221L17.0983 9.26216L16.7835 8.69349ZM18.4988 7.30907L19.1248 7.48388L19.125 7.48342L18.4988 7.30907ZM18.3661 6.33586L17.8093 6.67109L17.8096 6.67159L18.3661 6.33586ZM17.3603 4.66504L17.9172 4.3298L17.9172 4.32977L17.3603 4.66504ZM16.5478 4.06823L16.7094 3.43864L16.7094 3.43862L16.5478 4.06823ZM15.5331 4.19544L15.8478 4.76413L15.8482 4.76391L15.5331 4.19544ZM14.4397 4.80064L14.1249 4.23195L14.124 4.23243L14.4397 4.80064ZM13.8901 4.75884L13.4903 5.27132L13.4905 5.27149L13.8901 4.75884ZM13.1715 4.29404L12.8559 4.86229L12.8566 4.86267L13.1715 4.29404ZM12.3932 3.9299L12.6186 3.32026L12.6181 3.32006L12.3932 3.9299ZM12.393 3.92983L12.6179 3.31999L12.6176 3.31986L12.393 3.92983ZM12.0802 2.28321H12.7302V2.28302L12.0802 2.28321ZM7.07991 3.92983L6.85532 3.31986L6.8544 3.3202L7.07991 3.92983ZM6.30141 4.29404L6.6163 4.86267L6.61657 4.86252L6.30141 4.29404ZM5.58318 4.75864L5.98319 5.271L5.98637 5.26848L5.58318 4.75864ZM5.03346 4.80064L4.71861 5.3693L4.71882 5.36942L5.03346 4.80064ZM3.93964 4.19504L3.62475 4.76367L3.62479 4.76369L3.93964 4.19504ZM2.92486 4.06803L2.7637 3.43833L2.76317 3.43846L2.92486 4.06803ZM2.11237 4.66464L1.55561 4.3292L1.55549 4.32941L2.11237 4.66464ZM1.10656 6.33546L1.66342 6.67073L1.66344 6.67069L1.10656 6.33546ZM0.974133 7.30847L1.60024 7.13385L1.60016 7.13356L0.974133 7.30847ZM1.59601 8.08788L1.28096 8.65642L1.28116 8.65653L1.59601 8.08788ZM2.68941 8.69328L2.37456 9.26194L2.37469 9.26201L2.68941 8.69328ZM2.92611 9.17049L3.56652 9.28179L3.56701 9.27886L2.92611 9.17049ZM2.92611 10.8293L3.56714 10.7216L3.56651 10.718L2.92611 10.8293ZM2.68941 11.3065L3.00419 11.8752L3.00448 11.8751L2.68941 11.3065ZM1.59601 11.9117L1.28124 11.343L1.28112 11.3431L1.59601 11.9117ZM0.974133 12.6913L1.60016 12.8662L1.60024 12.8659L0.974133 12.6913ZM1.10656 13.6645L1.66344 13.3293L1.66332 13.3291L1.10656 13.6645ZM2.11237 15.3354L1.55549 15.6706L1.55567 15.6709L2.11237 15.3354ZM3.94006 15.805L4.25443 16.3739L4.25488 16.3736L3.94006 15.805ZM5.03325 15.1998L5.34807 15.7684L5.34914 15.7678L5.03325 15.1998ZM5.58255 15.2416L5.18264 15.754L5.18272 15.754L5.58255 15.2416ZM6.30141 15.7068L6.61687 15.1384L6.61651 15.1382L6.30141 15.7068ZM7.08011 16.071L7.30471 15.461L7.29824 15.4587L7.08011 16.071ZM12.393 16.071L12.1749 15.4586L12.1684 15.461L12.393 16.071ZM13.1719 15.7068L12.8569 15.1382L12.8565 15.1384L13.1719 15.7068ZM13.8908 15.2416L13.4912 14.7288L13.4824 14.7359L13.8908 15.2416ZM14.4405 15.1998L14.1254 15.7683L14.1257 15.7684L14.4405 15.1998ZM15.5331 15.8046L15.8482 15.2361L15.8479 15.2359L15.5331 15.8046ZM16.5478 15.932L16.7093 16.5616L16.7094 16.5616L16.5478 15.932ZM17.3603 15.3352L16.8034 14.9999L16.8034 15L17.3603 15.3352ZM18.3661 13.6643L17.8093 13.3291L17.8093 13.3291L18.3661 13.6643ZM18.4988 12.6915L19.1249 12.517L19.1249 12.5169L18.4988 12.6915ZM17.8765 11.9119L17.5616 12.4805L17.5619 12.4807L17.8765 11.9119ZM16.7837 11.3067L17.0986 10.7381L17.0984 10.738L16.7837 11.3067ZM16.5468 10.8295L15.9079 10.7092L15.9057 10.7221L16.5468 10.8295ZM16.5466 9.17069L15.9055 9.27826L15.9062 9.28198L16.5466 9.17069ZM15.8921 9.27535L15.2488 9.36917L15.251 9.38221L15.8921 9.27535ZM15.8915 9.27129L16.5347 9.17748L16.5337 9.17045L16.5325 9.16345L15.8915 9.27129ZM15.8921 9.27536L16.5351 9.17905L16.5333 9.1685L15.8921 9.27536ZM15.8915 10.7285L16.5326 10.8359L16.5333 10.8314L15.8915 10.7285ZM16.4519 11.8581L16.7667 11.2894L16.7666 11.2894L16.4519 11.8581ZM17.5449 12.4631L17.8603 11.8948L17.8597 11.8944L17.5449 12.4631ZM17.8577 12.8563L17.2317 13.0314L17.2319 13.032L17.8577 12.8563ZM17.7916 13.3461L18.3485 13.6814L18.3486 13.6812L17.7916 13.3461ZM16.7858 15.017L17.3425 15.3525L17.3427 15.3522L16.7858 15.017ZM16.3762 15.3172L16.5387 15.9465L16.539 15.9465L16.3762 15.3172ZM15.8651 15.2536L15.5503 15.8223L15.5505 15.8224L15.8651 15.2536ZM14.7727 14.649L14.4573 15.2173L14.4579 15.2177L14.7727 14.649ZM13.4726 14.7476L13.0733 14.2347L13.0469 14.2552L13.0228 14.2784L13.4726 14.7476ZM12.8403 15.1558L12.5254 14.5871L12.5254 14.5872L12.8403 15.1558ZM12.1555 15.477L11.9836 14.8501L11.957 14.8574L11.931 14.867L12.1555 15.477ZM7.31848 15.4768L7.54285 14.8667L7.53839 14.8651L7.31848 15.4768ZM6.63383 15.1558L6.94902 14.5873L6.94871 14.5871L6.63383 15.1558ZM6.00173 14.7476L6.47155 14.2984L6.43855 14.2639L6.40087 14.2345L6.00173 14.7476ZM4.70187 14.649L5.01652 15.2177L5.01792 15.2169L4.70187 14.649ZM3.96362 15.0574L3.64897 14.4886L3.64518 14.4907L3.96362 15.0574ZM3.72284 15.1908L3.40862 14.6218L3.40857 14.6218L3.72284 15.1908ZM3.60889 15.2538L3.29462 14.6848L3.29418 14.685L3.60889 15.2538ZM2.68816 15.0176L2.13128 15.3528L2.13134 15.3529L2.68816 15.0176ZM1.68235 13.3467L1.12529 13.6817L1.12547 13.682L1.68235 13.3467ZM1.61624 12.8565L2.24207 13.0322L2.24243 13.0309L1.61624 12.8565ZM1.92885 12.4633L1.61466 11.8943L1.61309 11.8952L1.92885 12.4633ZM1.9665 12.4425L1.65231 11.8735H1.65231L1.9665 12.4425ZM2.28296 12.2661L1.96855 11.6972L1.96114 11.7013L1.95384 11.7056L2.28296 12.2661ZM3.02121 11.8581L3.33562 12.427L3.33593 12.4269L3.02121 11.8581ZM3.58136 10.7289L2.93896 10.8284L2.94027 10.8362L3.58136 10.7289ZM3.58121 10.728L4.22356 10.6285L4.2234 10.6275L3.58121 10.728ZM3.58135 9.27176L2.93983 9.16707L2.93963 9.16835L3.58135 9.27176ZM3.58136 9.27169L2.94034 9.16395L2.93985 9.167L3.58136 9.27169ZM3.02121 8.14208L2.70628 8.71069L2.70662 8.71088L3.02121 8.14208ZM2.28129 7.73228L2.59622 7.16366L2.596 7.16354L2.28129 7.73228ZM1.92781 7.53667L2.24252 6.96794L2.24245 6.9679L1.92781 7.53667ZM1.6152 7.14387L2.24133 6.96935L2.24108 6.96844L1.6152 7.14387ZM1.68131 6.65366L1.12443 6.31843L1.1239 6.31931L1.68131 6.65366ZM2.68712 4.98284L2.13045 4.64725L2.13024 4.64761L2.68712 4.98284ZM3.0967 4.68304L3.25793 5.31273L3.25915 5.31241L3.0967 4.68304ZM3.60743 4.74604L3.92227 4.17738L3.92094 4.17665L3.60743 4.74604ZM4.70124 5.35165L4.3864 5.92031L4.38643 5.92032L4.70124 5.35165ZM6.0011 5.25285L6.40081 5.76559L6.41072 5.75754L6.0011 5.25285ZM6.63341 4.84504L6.94863 5.4135L6.94866 5.41348L6.63341 4.84504ZM7.31744 4.52404L7.50142 5.14746L7.52188 5.14142L7.5419 5.13405L7.31744 4.52404ZM12.1542 4.52384L11.9299 5.13393L11.9342 5.13548L12.1542 4.52384ZM12.8389 4.84484L13.154 4.27634L13.1537 4.2762L12.8389 4.84484ZM13.471 5.25265L13.0418 5.74081L13.0561 5.75342L13.0712 5.76517L13.471 5.25265ZM14.7708 5.35165L14.4561 4.78291L14.4555 4.78326L14.7708 5.35165ZM15.8642 4.74664L16.1789 5.31538L16.18 5.31479L15.8642 4.74664ZM16.3754 4.68324L16.2132 5.31267L16.214 5.31288L16.3754 4.68324ZM16.7847 4.98284L17.3416 4.64761L17.3414 4.64725L16.7847 4.98284ZM17.7906 6.65366L18.3476 6.31873L18.3474 6.31843L17.7906 6.65366ZM17.8567 7.14387L17.2308 6.96824L17.2307 6.96863L17.8567 7.14387ZM17.5438 7.53667L17.2295 6.96772L17.2288 6.96815L17.5438 7.53667ZM16.4515 8.14208L16.7662 8.71081L16.7666 8.7106L16.4515 8.14208ZM17.5619 7.51961L16.4687 8.12481L17.0983 9.26216L18.1915 8.65695L17.5619 7.51961ZM17.8727 7.13426C17.8283 7.29344 17.7223 7.43065 17.5615 7.5198L18.1919 8.65676C18.6479 8.40391 18.9841 7.98791 19.1248 7.48388L17.8727 7.13426ZM17.8096 6.67159C17.8952 6.81361 17.9171 6.97485 17.8726 7.13472L19.125 7.48342C19.2652 6.97968 19.1937 6.44931 18.9227 6.00013L17.8096 6.67159ZM16.8034 5.00028L17.8093 6.67109L18.923 6.00062L17.9172 4.3298L16.8034 5.00028ZM16.3862 4.69783C16.5727 4.74569 16.7164 4.85572 16.8035 5.00031L17.9172 4.32977C17.648 3.88276 17.2149 3.56838 16.7094 3.43864L16.3862 4.69783ZM15.8482 4.76391C16.0088 4.67487 16.199 4.64978 16.3863 4.69784L16.7094 3.43862C16.206 3.30949 15.6741 3.374 15.2179 3.62696L15.8482 4.76391ZM14.7544 5.36934L15.8478 4.76413L15.2183 3.62674L14.1249 4.23195L14.7544 5.36934ZM13.4905 5.27149C13.6909 5.42767 13.929 5.48418 14.1101 5.49793C14.2914 5.5117 14.5344 5.49159 14.7553 5.36885L14.124 4.23243C14.1659 4.20915 14.1955 4.20373 14.2019 4.20264C14.2102 4.20124 14.2117 4.2019 14.2085 4.20166C14.2052 4.20141 14.207 4.201 14.2154 4.20378C14.222 4.20594 14.2511 4.21608 14.2898 4.24619L13.4905 5.27149ZM12.8566 4.86267C13.2337 5.0715 13.4931 5.27349 13.4903 5.27132L14.29 4.24637C14.2626 4.225 13.9443 3.97898 13.4864 3.7254L12.8566 4.86267ZM12.1677 4.53954C12.1703 4.5405 12.4859 4.65678 12.8559 4.86229L13.4871 3.72579C13.0347 3.47458 12.6501 3.33188 12.6186 3.32026L12.1677 4.53954ZM12.1681 4.53967L12.1682 4.53973L12.6181 3.32006L12.6179 3.31999L12.1681 4.53967ZM11.4302 3.49323C11.4302 3.75578 11.5409 3.9807 11.648 4.13015C11.7566 4.28159 11.9307 4.45226 12.1684 4.5398L12.6176 3.31986C12.6615 3.33605 12.6855 3.35482 12.6928 3.36091C12.7013 3.36796 12.7041 3.37201 12.7046 3.37271C12.705 3.37331 12.7089 3.37864 12.714 3.39187C12.7184 3.4034 12.7302 3.43825 12.7302 3.49323H11.4302ZM11.4302 2.28321V3.49323H12.7302V2.28321H11.4302ZM10.7422 1.65C11.1466 1.65 11.4301 1.95975 11.4302 2.28341L12.7302 2.28302C12.7299 1.19107 11.8129 0.35 10.7422 0.35V1.65ZM8.73054 1.65H10.7422V0.35H8.73054V1.65ZM8.04272 2.28301C8.04272 1.95981 8.32594 1.65 8.73054 1.65V0.35C7.65989 0.35 6.74272 1.191 6.74272 2.28301H8.04272ZM8.04272 3.49343V2.28301H6.74272V3.49343H8.04272ZM7.30449 4.5398C7.54255 4.45215 7.71659 4.28113 7.82494 4.12995C7.93178 3.98086 8.04272 3.75597 8.04272 3.49343H6.74272C6.74272 3.43803 6.75467 3.40298 6.75901 3.39157C6.76403 3.37839 6.76793 3.37315 6.76828 3.37266C6.76871 3.37207 6.77146 3.36808 6.77988 3.36105C6.78713 3.35499 6.81117 3.33612 6.85532 3.31986L7.30449 4.5398ZM6.61657 4.86252C6.80104 4.76025 6.97302 4.67942 7.10047 4.62367C7.16386 4.59593 7.21541 4.57477 7.25094 4.56059C7.26869 4.55352 7.28239 4.5482 7.29152 4.54471C7.3005 4.54127 7.30522 4.53953 7.30541 4.53946L6.8544 3.3202C6.82519 3.33101 6.43974 3.47414 5.98625 3.72555L6.61657 4.86252ZM5.98637 5.26848C5.97952 5.2739 6.23845 5.07191 6.6163 4.86267L5.98652 3.7254C5.52935 3.97857 5.21061 4.22458 5.17999 4.2488L5.98637 5.26848ZM4.71882 5.36942C4.93959 5.49154 5.18215 5.51168 5.36378 5.4978C5.54489 5.48397 5.78295 5.42731 5.98318 5.27099L5.18318 4.24629C5.22184 4.21611 5.25103 4.20592 5.25764 4.20373C5.26611 4.20093 5.26799 4.20133 5.26474 4.20158C5.26151 4.20183 5.26298 4.20117 5.27117 4.20255C5.27751 4.20361 5.30665 4.20894 5.34809 4.23187L4.71882 5.36942ZM3.62479 4.76369L4.71861 5.3693L5.3483 4.23198L4.25448 3.62638L3.62479 4.76369ZM3.08602 4.69774C3.27452 4.6495 3.46406 4.67468 3.62475 4.76367L4.25453 3.6264C3.79835 3.37378 3.26757 3.30937 2.7637 3.43833L3.08602 4.69774ZM2.66913 5.00008C2.75613 4.85567 2.90007 4.74549 3.08655 4.6976L2.76317 3.43846C2.25812 3.56817 1.8248 3.8824 1.55561 4.3292L2.66913 5.00008ZM1.66344 6.67069L2.66925 4.99988L1.55549 4.32941L0.549677 6.00022L1.66344 6.67069ZM1.60016 7.13356C1.55582 6.97486 1.57741 6.81358 1.66342 6.67073L0.5497 6.00019C0.279511 6.44895 0.20726 6.97927 0.348109 7.48338L1.60016 7.13356ZM1.91107 7.51933C1.75072 7.43048 1.64475 7.29345 1.60024 7.13385L0.348027 7.48309C0.488704 7.9875 0.824851 8.40367 1.28096 8.65642L1.91107 7.51933ZM3.00427 8.12463L1.91087 7.51923L1.28116 8.65653L2.37456 9.26194L3.00427 8.12463ZM3.56701 9.27886C3.61099 9.01881 3.5382 8.77806 3.45615 8.61275C3.37311 8.44545 3.22752 8.24818 3.00414 8.12456L2.37469 9.26201C2.33235 9.23858 2.3105 9.21529 2.3034 9.20716C2.29532 9.19791 2.29255 9.19245 2.2917 9.19073C2.2909 9.18911 2.28751 9.18223 2.28452 9.16739C2.28187 9.15427 2.27592 9.11706 2.28521 9.06212L3.56701 9.27886ZM3.51668 10.0001C3.51668 9.57744 3.56836 9.27113 3.56651 9.28178L2.28571 9.0592C2.27885 9.09865 2.21668 9.48235 2.21668 10.0001H3.51668ZM3.56651 10.718C3.56835 10.7286 3.51668 10.4227 3.51668 10.0001H2.21668C2.21668 10.5179 2.27887 10.9012 2.28571 10.9406L3.56651 10.718ZM3.00448 11.8751C3.2278 11.7513 3.37317 11.5539 3.45602 11.3869C3.5379 11.2219 3.61078 10.9814 3.56713 10.7216L2.2851 10.937C2.27586 10.882 2.28186 10.8449 2.28448 10.832C2.28745 10.8173 2.29078 10.8105 2.29151 10.8091C2.2923 10.8075 2.29499 10.8021 2.30301 10.7929C2.31004 10.7849 2.3319 10.7615 2.37435 10.738L3.00448 11.8751ZM1.91079 12.4804L3.00419 11.8752L2.37464 10.7378L1.28124 11.343L1.91079 12.4804ZM1.60024 12.8659C1.64484 12.706 1.7508 12.569 1.9109 12.4804L1.28112 11.3431C0.824352 11.596 0.488609 12.0126 0.348027 12.5167L1.60024 12.8659ZM1.66332 13.3291C1.5775 13.1867 1.55578 13.0251 1.60016 12.8662L0.348109 12.5164C0.207295 13.0204 0.279428 13.5512 0.5498 14L1.66332 13.3291ZM2.66925 15.0001L1.66344 13.3293L0.549677 13.9998L1.55549 15.6706L2.66925 15.0001ZM3.62568 15.236C3.28145 15.4263 2.85141 15.3023 2.66907 14.9998L1.55567 15.6709C2.11158 16.5932 3.32028 16.8901 4.25443 16.3739L3.62568 15.236ZM4.71842 14.6311L3.62523 15.2363L4.25488 16.3736L5.34807 15.7684L4.71842 14.6311ZM5.98246 14.7291C5.78232 14.5729 5.54427 14.5163 5.3633 14.5025C5.18193 14.4886 4.93866 14.5086 4.71735 14.6317L5.34914 15.7678C5.30716 15.7912 5.27753 15.7966 5.27101 15.7977C5.2626 15.7991 5.26101 15.7985 5.26423 15.7987C5.26747 15.799 5.26562 15.7994 5.25719 15.7966C5.25066 15.7944 5.22142 15.7842 5.18264 15.754L5.98246 14.7291ZM6.61651 15.1382C6.23934 14.9292 5.9797 14.727 5.98238 14.7291L5.18272 15.754C5.21002 15.7753 5.52847 16.0215 5.98631 16.2753L6.61651 15.1382ZM7.29824 15.4587C7.3064 15.4616 6.98994 15.3455 6.61687 15.1384L5.98595 16.2751C6.43871 16.5264 6.82463 16.67 6.86198 16.6833L7.29824 15.4587ZM8.04293 16.5074C8.04293 16.2448 7.93205 16.0199 7.82509 15.8707C7.71664 15.7194 7.5426 15.5486 7.3047 15.461L6.85553 16.6809C6.81148 16.6647 6.78748 16.6459 6.78021 16.6398C6.77178 16.6328 6.76901 16.6288 6.76855 16.6281C6.76816 16.6276 6.76424 16.6223 6.75921 16.6091C6.75484 16.5976 6.74293 16.5626 6.74293 16.5074H8.04293ZM8.04293 17.717V16.5074H6.74293V17.717H8.04293ZM8.73074 18.35C8.32628 18.35 8.04293 18.0399 8.04293 17.717H6.74293C6.74293 18.8085 7.65996 19.65 8.73074 19.65V18.35ZM10.7424 18.35H8.73074V19.65H10.7424V18.35ZM11.4302 17.717C11.4302 18.0399 11.1468 18.35 10.7424 18.35V19.65C11.8132 19.65 12.7302 18.8085 12.7302 17.717H11.4302ZM11.4302 16.5074V17.717H12.7302V16.5074H11.4302ZM12.1684 15.461C11.9304 15.5487 11.7563 15.7197 11.648 15.8708C11.5411 16.0199 11.4302 16.2448 11.4302 16.5074H12.7302C12.7302 16.5628 12.7182 16.5978 12.7139 16.6092C12.7089 16.6224 12.705 16.6276 12.7046 16.6281C12.7042 16.6287 12.7014 16.6327 12.693 16.6398C12.6858 16.6458 12.6617 16.6647 12.6176 16.6809L12.1684 15.461ZM12.8565 15.1384C12.4836 15.3453 12.1667 15.4616 12.1749 15.4587L12.6111 16.6833C12.6485 16.67 13.0348 16.5262 13.4873 16.2751L12.8565 15.1384ZM13.4824 14.7359C13.4947 14.7259 13.2365 14.9279 12.8569 15.1382L13.4869 16.2753C13.9428 16.0228 14.2631 15.7764 14.2992 15.7472L13.4824 14.7359ZM14.7556 14.6312C14.5347 14.5088 14.2918 14.4889 14.1108 14.5026C13.9301 14.5163 13.6918 14.5726 13.4912 14.7288L14.2903 15.7543C14.2514 15.7846 14.2221 15.7947 14.2157 15.7968C14.2073 15.7996 14.2056 15.7992 14.2091 15.7989C14.2125 15.7986 14.2112 15.7993 14.2031 15.7979C14.1968 15.7969 14.1674 15.7915 14.1254 15.7683L14.7556 14.6312ZM15.8479 15.2359L14.7553 14.6311L14.1257 15.7684L15.2183 16.3732L15.8479 15.2359ZM16.3864 15.3023C16.199 15.3504 16.0091 15.3253 15.8482 15.2361L15.2179 16.373C15.6739 16.6259 16.2055 16.6908 16.7093 16.5616L16.3864 15.3023ZM16.8034 15C16.7166 15.1443 16.5727 15.2545 16.3862 15.3024L16.7094 16.5616C17.2149 16.4318 17.6483 16.1172 17.9173 15.6703L16.8034 15ZM17.8093 13.3291L16.8034 14.9999L17.9172 15.6704L18.923 13.9996L17.8093 13.3291ZM17.8726 12.8661C17.9169 13.025 17.8953 13.1862 17.8093 13.3291L18.923 13.9996C19.1932 13.5509 19.2654 13.0209 19.1249 12.517L17.8726 12.8661ZM17.5619 12.4807C17.722 12.5693 17.8281 12.7064 17.8727 12.8661L19.1249 12.5169C18.9842 12.0126 18.6479 11.5958 18.1911 11.3431L17.5619 12.4807ZM16.4688 11.8753L17.5616 12.4805L18.1914 11.3433L17.0986 10.7381L16.4688 11.8753ZM15.9057 10.7221C15.8622 10.9818 15.9349 11.2222 16.017 11.3875C16.1001 11.5548 16.2457 11.7519 16.469 11.8754L17.0984 10.738C17.1407 10.7614 17.1625 10.7846 17.1696 10.7927C17.1777 10.802 17.1804 10.8074 17.1813 10.8091C17.1821 10.8108 17.1854 10.8176 17.1884 10.8323C17.1911 10.8454 17.197 10.8823 17.1879 10.9369L15.9057 10.7221ZM15.9562 10.0003C15.9562 10.4252 15.9042 10.7296 15.908 10.7092L17.1856 10.9498C17.1948 10.9006 17.2562 10.5154 17.2562 10.0003H15.9562ZM15.9062 9.28198C15.9044 9.27171 15.9562 9.57753 15.9562 10.0003H17.2562C17.2562 9.48186 17.1938 9.09847 17.187 9.0594L15.9062 9.28198ZM16.4688 8.12476C16.2454 8.24838 16.0998 8.44563 16.0168 8.61281C15.9347 8.77804 15.862 9.01851 15.9055 9.27826L17.1876 9.06312C17.1968 9.11792 17.1908 9.15498 17.1882 9.16798C17.1852 9.18271 17.1819 9.1895 17.1811 9.19107C17.1803 9.19273 17.1775 9.19815 17.1695 9.20739C17.1624 9.21549 17.1406 9.23878 17.0982 9.26221L16.4688 8.12476ZM16.5353 9.18154L16.5347 9.17748L15.2483 9.3651L15.2489 9.36916L16.5353 9.18154ZM16.5333 9.1685L16.5333 9.16849L15.251 9.38221L15.251 9.38222L16.5333 9.1685ZM16.5922 10.0003C16.5922 9.56377 16.5428 9.23158 16.535 9.17906L15.2493 9.37167C15.2528 9.39488 15.2922 9.65561 15.2922 10.0003H16.5922ZM16.5333 10.8314C16.5333 10.8315 16.5338 10.8287 16.5344 10.8246C16.5351 10.8206 16.5358 10.8154 16.5368 10.8091C16.5387 10.7965 16.5411 10.7793 16.544 10.7579C16.5496 10.7152 16.5569 10.6557 16.564 10.5825C16.5782 10.4368 16.5922 10.2339 16.5922 10.0003H15.2922C15.2922 10.1831 15.2811 10.343 15.2701 10.4566C15.2646 10.5132 15.2592 10.5574 15.2553 10.5865C15.2534 10.601 15.2519 10.6116 15.2509 10.618C15.2504 10.6212 15.2501 10.6234 15.2499 10.6244C15.2498 10.6253 15.2498 10.6252 15.2497 10.6256L16.5333 10.8314ZM16.7666 11.2894C16.613 11.2044 16.5096 10.9734 16.5326 10.8359L15.2505 10.6211C15.1326 11.3248 15.5217 12.0863 16.1372 12.4269L16.7666 11.2894ZM17.8597 11.8944L16.7667 11.2894L16.1371 12.4268L17.2301 13.0318L17.8597 11.8944ZM18.4837 12.6813C18.389 12.3428 18.1641 12.0634 17.8603 11.8948L17.2294 13.0315C17.2338 13.0339 17.2342 13.0351 17.2332 13.0338C17.2321 13.0324 17.2316 13.0311 17.2317 13.0314L18.4837 12.6813ZM18.3486 13.6812C18.5299 13.3798 18.579 13.0209 18.4835 12.6807L17.2319 13.032C17.2316 13.0309 17.2308 13.0268 17.2316 13.0211C17.2324 13.0154 17.2341 13.0118 17.2346 13.0111L18.3486 13.6812ZM17.3427 15.3522L18.3485 13.6814L17.2347 13.0109L16.2289 14.6817L17.3427 15.3522ZM16.539 15.9465C16.8707 15.8607 17.161 15.6537 17.3425 15.3525L16.2291 14.6815C16.2291 14.6815 16.2292 14.6813 16.2293 14.6811C16.2295 14.681 16.2294 14.6811 16.2288 14.6816C16.2278 14.6823 16.2233 14.6853 16.2134 14.6879L16.539 15.9465ZM15.5505 15.8224C15.8529 15.9896 16.2054 16.0325 16.5387 15.9465L16.2138 14.6878C16.2054 14.6899 16.1988 14.69 16.1939 14.6894C16.1889 14.6888 16.1842 14.6873 16.1796 14.6847L15.5505 15.8224ZM14.4579 15.2177L15.5503 15.8223L16.1798 14.6849L15.0875 14.0803L14.4579 15.2177ZM13.8719 15.2605C13.9252 15.219 14.0256 15.1758 14.1571 15.1659C14.2883 15.1559 14.3957 15.1831 14.4573 15.2173L15.0881 14.0806C14.7655 13.9016 14.3951 13.844 14.0586 13.8696C13.7222 13.8952 13.3646 14.008 13.0733 14.2347L13.8719 15.2605ZM13.1552 15.7244C13.3614 15.6102 13.5363 15.4975 13.6604 15.4127C13.7228 15.3702 13.7731 15.3341 13.8091 15.3077C13.8271 15.2946 13.8417 15.2836 13.8527 15.2753C13.8582 15.2711 13.8631 15.2673 13.8675 15.264C13.8695 15.2624 13.8722 15.2603 13.8752 15.2579C13.8765 15.2569 13.8792 15.2547 13.8825 15.252C13.8841 15.2508 13.8873 15.2482 13.8912 15.2448C13.8932 15.2432 13.8965 15.2404 13.9005 15.2368C13.9035 15.2342 13.912 15.2268 13.9225 15.2167L13.0228 14.2784C13.0332 14.2684 13.0417 14.2609 13.0446 14.2583C13.0486 14.2548 13.0519 14.2521 13.0538 14.2505C13.0577 14.2472 13.0607 14.2447 13.0621 14.2436C13.0651 14.2412 13.0673 14.2394 13.0681 14.2388C13.0691 14.238 13.0699 14.2374 13.0702 14.2371C13.0706 14.2368 13.0708 14.2366 13.0709 14.2366C13.0709 14.2366 13.0697 14.2375 13.067 14.2395C13.0619 14.2435 13.0528 14.2502 13.0403 14.2595C13.0151 14.2779 12.9768 14.3054 12.9275 14.3391C12.8284 14.4067 12.6884 14.4969 12.5254 14.5871L13.1552 15.7244ZM12.3273 16.1038C12.3405 16.1002 12.3507 16.097 12.3534 16.0961C12.3577 16.0947 12.3612 16.0936 12.3631 16.0929C12.3671 16.0916 12.3702 16.0905 12.3716 16.09C12.3748 16.0889 12.3774 16.0879 12.3787 16.0874C12.3817 16.0864 12.3845 16.0853 12.3867 16.0845C12.3915 16.0827 12.3971 16.0806 12.4034 16.0782C12.4161 16.0733 12.4332 16.0666 12.454 16.0583C12.4957 16.0416 12.5535 16.0178 12.623 15.9872C12.7615 15.9265 12.9508 15.8376 13.1553 15.7243L12.5254 14.5872C12.3645 14.6763 12.2128 14.7476 12.1009 14.7967C12.0453 14.8211 12.0006 14.8395 11.9707 14.8515C11.9557 14.8575 11.9447 14.8618 11.9381 14.8643C11.9348 14.8656 11.9329 14.8663 11.9325 14.8664C11.9322 14.8665 11.933 14.8662 11.9346 14.8657C11.9352 14.8654 11.9373 14.8647 11.94 14.8637C11.9413 14.8633 11.9442 14.8622 11.948 14.8609C11.9499 14.8603 11.9533 14.8592 11.9576 14.8578C11.9603 14.857 11.9704 14.8537 11.9836 14.8501L12.3273 16.1038ZM12.0666 16.5076C12.0666 16.3681 12.2085 16.1501 12.3799 16.087L11.931 14.867C11.2741 15.1087 10.7666 15.7962 10.7666 16.5076H12.0666ZM12.0666 17.7172V16.5076H10.7666V17.7172H12.0666ZM10.7428 19.0134C11.4475 19.0134 12.0666 18.4579 12.0666 17.7172H10.7666C10.7666 17.7135 10.7676 17.7091 10.769 17.7059C10.7702 17.7032 10.7708 17.7032 10.7691 17.7048C10.7657 17.7081 10.7575 17.7134 10.7428 17.7134V19.0134ZM8.73116 19.0134H10.7428V17.7134H8.73116V19.0134ZM7.40735 17.7172C7.40735 18.4579 8.02644 19.0134 8.73116 19.0134V17.7134C8.7164 17.7134 8.70823 17.7081 8.70481 17.7048C8.70317 17.7032 8.70378 17.7032 8.70496 17.7059C8.70639 17.7091 8.70735 17.7135 8.70735 17.7172H7.40735ZM7.40735 16.5076V17.7172H8.70735V16.5076H7.40735ZM7.09411 16.0868C7.26542 16.1498 7.40735 16.3679 7.40735 16.5076H8.70735C8.70735 15.7965 8.2003 15.1085 7.54285 14.8667L7.09411 16.0868ZM6.31864 15.7242C6.72668 15.9505 7.07403 16.0796 7.09857 16.0884L7.53839 14.8651C7.55625 14.8715 7.27755 14.7695 6.94902 14.5873L6.31864 15.7242ZM5.53191 15.1967C5.54647 15.212 5.55859 15.2231 5.56255 15.2267C5.56811 15.2318 5.57267 15.2358 5.57534 15.2382C5.5807 15.2428 5.58502 15.2464 5.58704 15.2481C5.59138 15.2517 5.59492 15.2545 5.5965 15.2558C5.60013 15.2587 5.60337 15.2613 5.60553 15.2629C5.61022 15.2666 5.61545 15.2706 5.62094 15.2748C5.63213 15.2833 5.64689 15.2943 5.66489 15.3076C5.70096 15.334 5.75134 15.3701 5.81368 15.4127C5.93784 15.4975 6.11277 15.6102 6.31895 15.7244L6.94871 14.5871C6.78576 14.4969 6.64579 14.4067 6.54675 14.3391C6.4975 14.3055 6.45921 14.278 6.43422 14.2596C6.42169 14.2505 6.41282 14.2438 6.40787 14.24C6.40529 14.2381 6.40433 14.2373 6.40477 14.2376C6.4048 14.2377 6.40641 14.2389 6.40889 14.2409C6.4099 14.2417 6.41299 14.2442 6.41701 14.2475C6.41886 14.2491 6.42305 14.2526 6.42832 14.2571C6.43094 14.2594 6.43546 14.2634 6.44099 14.2684C6.44491 14.272 6.45701 14.2832 6.47155 14.2984L5.53191 15.1967ZM5.01792 15.2169C5.07876 15.1831 5.1857 15.1558 5.31703 15.1658C5.44849 15.1758 5.54906 15.2189 5.60259 15.2606L6.40087 14.2345C6.10967 14.008 5.75208 13.8951 5.41566 13.8695C5.07912 13.8439 4.7085 13.9014 4.38582 14.081L5.01792 15.2169ZM4.27827 15.6261L5.01652 15.2177L4.38722 14.0802L3.64897 14.4886L4.27827 15.6261ZM4.03706 15.7598C4.15165 15.6965 4.22887 15.6539 4.28207 15.624L3.64518 14.4907C3.5973 14.5176 3.5255 14.5573 3.40862 14.6218L4.03706 15.7598ZM3.92316 15.8227L4.03711 15.7598L3.40857 14.6218L3.29462 14.6848L3.92316 15.8227ZM2.13134 15.3529C2.50365 15.9711 3.30596 16.1643 3.92359 15.8225L3.29418 14.685C3.28551 14.6898 3.27317 14.6922 3.25898 14.6886C3.25234 14.6869 3.24805 14.6844 3.24603 14.683C3.24556 14.6826 3.24524 14.6824 3.24505 14.6822C3.24486 14.682 3.24477 14.6819 3.24477 14.6819C3.24477 14.6819 3.24481 14.682 3.24487 14.6821C3.2449 14.6821 3.24493 14.6821 3.24495 14.6822C3.24496 14.6822 3.24497 14.6822 3.24498 14.6822C3.24499 14.6822 3.24499 14.6822 3.24499 14.6822L2.13134 15.3529ZM1.12547 13.682L2.13128 15.3528L3.24504 14.6823L2.23923 13.0115L1.12547 13.682ZM0.990419 12.6809C0.895043 13.0208 0.9437 13.3797 1.12529 13.6817L2.23942 13.0118C2.23942 13.0118 2.23943 13.0118 2.23945 13.0119C2.23946 13.0119 2.23949 13.0119 2.23953 13.012C2.2396 13.0121 2.2397 13.0123 2.23982 13.0126C2.24006 13.0131 2.24037 13.0138 2.24069 13.0147C2.24136 13.0166 2.24196 13.019 2.24231 13.0216C2.24309 13.0274 2.2423 13.0313 2.24207 13.0322L0.990419 12.6809ZM1.61309 11.8952C1.31012 12.0636 1.08454 12.3428 0.990054 12.6822L2.24243 13.0309C2.24246 13.0307 2.24234 13.0312 2.24194 13.032C2.24154 13.0328 2.24109 13.0334 2.24068 13.034C2.23966 13.0352 2.24018 13.0339 2.24461 13.0315L1.61309 11.8952ZM1.65231 11.8735L1.61466 11.8943L2.24304 13.0323L2.28069 13.0116L1.65231 11.8735ZM1.95384 11.7056C1.91557 11.7281 1.83739 11.7713 1.65231 11.8735L2.28069 13.0116C2.45474 12.9155 2.55463 12.8604 2.61208 12.8266L1.95384 11.7056ZM2.7068 11.2892L1.96855 11.6972L2.59737 12.835L3.33562 12.427L2.7068 11.2892ZM2.94027 10.8362C2.96325 10.9735 2.85983 11.2045 2.70649 11.2894L3.33593 12.4269C3.9517 12.0861 4.34002 11.3243 4.22245 10.6216L2.94027 10.8362ZM2.93886 10.8274L2.93901 10.8283L4.22371 10.6295L4.22356 10.6285L2.93886 10.8274ZM2.88068 10.0003C2.88068 10.4519 2.93338 10.7924 2.93903 10.8285L4.2234 10.6275C4.22303 10.6251 4.18068 10.3581 4.18068 10.0003H2.88068ZM2.93963 9.16835C2.93571 9.19268 2.88068 9.53856 2.88068 10.0003H4.18068C4.18068 9.81847 4.19164 9.65918 4.20264 9.54555C4.20811 9.48902 4.21352 9.44455 4.21741 9.41513C4.21936 9.40043 4.22092 9.38955 4.22191 9.38284C4.2224 9.3795 4.22276 9.37719 4.22294 9.37598C4.22304 9.37537 4.22309 9.37503 4.2231 9.37495C4.22311 9.37491 4.22311 9.37493 4.2231 9.37501C4.22308 9.3751 4.22307 9.37519 4.22307 9.37517L2.93963 9.16835ZM2.93985 9.167L2.93983 9.16707L4.22286 9.37645L4.22287 9.37638L2.93985 9.167ZM2.70662 8.71088C2.86023 8.79584 2.96345 9.02651 2.94035 9.16395L4.22237 9.37944C4.34066 8.67566 3.95172 7.91393 3.3358 7.57328L2.70662 8.71088ZM1.96636 8.30089L2.70628 8.71069L3.33614 7.57347L2.59622 7.16366L1.96636 8.30089ZM1.6131 8.10541L1.96658 8.30101L2.596 7.16354L2.24252 6.96794L1.6131 8.10541ZM0.989065 7.31839C1.08347 7.65709 1.30892 7.93714 1.61317 8.10545L2.24245 6.9679C2.23871 6.96584 2.23848 6.96487 2.23956 6.96623C2.24 6.96678 2.24046 6.96748 2.24085 6.96823C2.24123 6.96899 2.24136 6.96944 2.24133 6.96935L0.989065 7.31839ZM1.1239 6.31931C0.943179 6.62059 0.893901 6.97888 0.989322 7.3193L2.24108 6.96844C2.2413 6.96923 2.24209 6.97322 2.24132 6.97896C2.24096 6.98155 2.24038 6.98381 2.23976 6.98557C2.23914 6.98734 2.23864 6.98815 2.23872 6.98802L1.1239 6.31931ZM2.13024 4.64761L1.12443 6.31843L2.23819 6.9889L3.244 5.31808L2.13024 4.64761ZM2.93547 4.05335C2.60177 4.1388 2.31146 4.347 2.13045 4.64725L3.24379 5.31844C3.24379 5.31844 3.24378 5.31845 3.24376 5.31848C3.24374 5.31851 3.24371 5.31855 3.24368 5.31859C3.24361 5.31869 3.24354 5.31877 3.24348 5.31883C3.24334 5.31898 3.24344 5.31883 3.24399 5.31843C3.24487 5.31779 3.2489 5.31504 3.25793 5.31273L2.93547 4.05335ZM3.92094 4.17665C3.61932 4.01057 3.26723 3.96772 2.93425 4.05367L3.25915 5.31241C3.26748 5.31026 3.27425 5.31013 3.27948 5.31078C3.2847 5.31143 3.28945 5.31298 3.29392 5.31544L3.92094 4.17665ZM5.01609 4.78299L3.92227 4.17738L3.29258 5.3147L4.3864 5.92031L5.01609 4.78299ZM5.60148 4.74021C5.54833 4.78164 5.44832 4.82467 5.31708 4.83465C5.18606 4.8446 5.07832 4.81744 5.01606 4.78297L4.38643 5.92032C4.70893 6.09886 5.07897 6.1565 5.41561 6.13091C5.75203 6.10533 6.10957 5.99246 6.40073 5.76549L5.60148 4.74021ZM6.31819 4.27659C5.91232 4.50165 5.62069 4.72445 5.59149 4.74815L6.41072 5.75754C6.38694 5.77684 6.61583 5.59804 6.94863 5.4135L6.31819 4.27659ZM7.13346 3.90062C7.07221 3.9187 6.71103 4.05872 6.31816 4.27661L6.94866 5.41348C7.10921 5.32443 7.26064 5.2532 7.37236 5.20419C7.42786 5.17985 7.47256 5.16143 7.50246 5.14945C7.5174 5.14347 7.52846 5.13916 7.53513 5.13661C7.5385 5.13531 7.54051 5.13456 7.54113 5.13432C7.54152 5.13418 7.54104 5.13436 7.53989 5.13478C7.53944 5.13494 7.53792 5.1355 7.53582 5.13625C7.53488 5.13659 7.53263 5.13739 7.52972 5.1384C7.52829 5.13889 7.52566 5.13979 7.52235 5.1409C7.52045 5.14153 7.51215 5.14429 7.50142 5.14746L7.13346 3.90062ZM7.40631 3.49343C7.40631 3.63315 7.26455 3.85089 7.09297 3.91403L7.5419 5.13405C8.19866 4.89238 8.70631 4.20532 8.70631 3.49343H7.40631ZM7.40631 2.28301V3.49343H8.70631V2.28301H7.40631ZM8.73012 0.986607C8.02513 0.986607 7.40631 1.54253 7.40631 2.28301H8.70631C8.70631 2.28674 8.70535 2.29104 8.70394 2.29421C8.70278 2.29685 8.7022 2.29679 8.70387 2.29519C8.70734 2.29185 8.71549 2.28661 8.73012 2.28661V0.986607ZM10.7417 0.986607H8.73012V2.28661H10.7417V0.986607ZM12.0655 2.28301C12.0655 1.54253 11.4467 0.986607 10.7417 0.986607V2.28661C10.7564 2.28661 10.7645 2.29185 10.768 2.29519C10.7697 2.29679 10.7691 2.29685 10.7679 2.29421C10.7665 2.29104 10.7655 2.28674 10.7655 2.28301H12.0655ZM12.0655 3.49303V2.28301H10.7655V3.49303H12.0655ZM12.3785 3.91377C12.2077 3.85094 12.0655 3.63311 12.0655 3.49303H10.7655C10.7655 4.20455 11.2729 4.89233 11.9299 5.13391L12.3785 3.91377ZM13.1537 4.2762C12.7494 4.05231 12.3993 3.92123 12.3742 3.9122L11.9342 5.13548C11.9158 5.12885 12.198 5.23297 12.524 5.41348L13.1537 4.2762ZM13.9002 4.76449C13.8534 4.72342 13.5516 4.49674 13.154 4.27634L12.5237 5.41335C12.6869 5.50376 12.8269 5.59397 12.9261 5.66163C12.9755 5.69527 13.0139 5.72281 13.0392 5.7413C13.0518 5.75055 13.061 5.75741 13.0664 5.76152C13.0692 5.7636 13.0707 5.7648 13.0711 5.76511C13.0714 5.76532 13.0709 5.76494 13.0699 5.76412C13.0694 5.76378 13.0681 5.76274 13.0663 5.76131C13.0655 5.76064 13.0636 5.75918 13.0613 5.75727C13.0601 5.75632 13.0581 5.7547 13.0556 5.75265C13.0539 5.75118 13.0485 5.74672 13.0418 5.74081L13.9002 4.76449ZM14.4555 4.78326C14.3941 4.81729 14.2867 4.84456 14.1553 4.83455C14.0238 4.82453 13.9236 4.78138 13.8707 4.74013L13.0712 5.76517C13.3624 5.99232 13.7202 6.10517 14.0566 6.1308C14.3931 6.15644 14.7636 6.09901 15.0862 5.92003L14.4555 4.78326ZM15.5495 4.1779L14.4561 4.78291L15.0855 5.92039L16.1789 5.31538L15.5495 4.1779ZM16.5376 4.05381C16.2044 3.96795 15.852 4.00982 15.5485 4.17849L16.18 5.31479C16.184 5.31255 16.1879 5.31132 16.1922 5.31078C16.1965 5.31024 16.2034 5.31017 16.2132 5.31267L16.5376 4.05381ZM17.3414 4.64725C17.1602 4.34672 16.8698 4.13897 16.5368 4.0536L16.214 5.31288C16.2231 5.31523 16.2272 5.31801 16.228 5.31865C16.2288 5.31921 16.2284 5.31903 16.2281 5.31844L17.3414 4.64725ZM18.3474 6.31843L17.3416 4.64761L16.2279 5.31808L17.2337 6.9889L18.3474 6.31843ZM18.4825 7.3195C18.5779 6.97964 18.5292 6.62075 18.3476 6.31873L17.2335 6.9886C17.2335 6.9886 17.2335 6.98859 17.2335 6.98858C17.2335 6.98857 17.2335 6.98856 17.2335 6.98854C17.2334 6.98851 17.2334 6.98846 17.2334 6.98839C17.2333 6.98826 17.2332 6.98807 17.2331 6.98781C17.2328 6.98729 17.2325 6.98657 17.2322 6.98566C17.2315 6.98377 17.2309 6.98144 17.2306 6.97881C17.2298 6.97304 17.2306 6.96906 17.2308 6.96824L18.4825 7.3195ZM17.8582 8.10563C18.1633 7.93707 18.388 7.65686 18.4826 7.31911L17.2307 6.96863C17.2306 6.96892 17.2311 6.96765 17.2322 6.96623C17.2333 6.96483 17.2332 6.96571 17.2295 6.96772L17.8582 8.10563ZM16.7666 8.7106L17.8589 8.1052L17.2288 6.96815L16.1364 7.57356L16.7666 8.7106ZM16.5325 9.16345C16.5095 9.02658 16.6126 8.79582 16.7662 8.71081L16.1368 7.57335C15.5213 7.91395 15.1322 8.6756 15.2506 9.37914L16.5325 9.16345ZM6.73536 10.0005C6.73536 8.45397 8.05662 7.14866 9.73635 7.14866V5.84866C7.39033 5.84866 5.43536 7.68539 5.43536 10.0005H6.73536ZM9.73635 12.8521C8.05657 12.8521 6.73536 11.547 6.73536 10.0005H5.43536C5.43536 12.3157 7.39038 14.1521 9.73635 14.1521V12.8521ZM12.7373 10.0005C12.7373 11.547 11.4161 12.8521 9.73635 12.8521V14.1521C12.0823 14.1521 14.0373 12.3157 14.0373 10.0005H12.7373ZM9.73635 7.14866C11.4161 7.14866 12.7373 8.45397 12.7373 10.0005H14.0373C14.0373 7.68539 12.0824 5.84866 9.73635 5.84866V7.14866ZM6.09957 10.0005C6.09957 11.9641 7.75625 13.5153 9.73635 13.5153V12.2153C8.42269 12.2153 7.39957 11.1957 7.39957 10.0005H6.09957ZM9.73635 6.48567C7.75629 6.48567 6.09957 8.03663 6.09957 10.0005H7.39957C7.39957 8.80513 8.42266 7.78567 9.73635 7.78567V6.48567ZM13.3731 10.0005C13.3731 8.03663 11.7164 6.48567 9.73635 6.48567V7.78567C11.05 7.78567 12.0731 8.80514 12.0731 10.0005H13.3731ZM9.73635 13.5153C11.7164 13.5153 13.3731 11.9641 13.3731 10.0005H12.0731C12.0731 11.1957 11.05 12.2153 9.73635 12.2153V13.5153Z" fill="white" fill-opacity="0.85"/>
</svg>
