<svg width="47" height="46" viewBox="0 0 47 46" fill="none" xmlns="http://www.w3.org/2000/svg">
<rect width="46" height="46" transform="translate(0.5)" fill="white"/>
<rect x="0.5" width="46" height="46" rx="23" fill="#1E87F0"/>
<path d="M14.8026 33H28.4868C28.766 33 29.0338 32.8891 29.2312 32.6917C29.4286 32.4943 29.5395 32.2265 29.5395 31.9474V22.4737C29.5395 22.1945 29.4286 21.9268 29.2312 21.7294C29.0338 21.532 28.766 21.4211 28.4868 21.4211H13.75V31.9474C13.75 32.2265 13.8609 32.4943 14.0583 32.6917C14.2557 32.8891 14.5235 33 14.8026 33Z" fill="white"/>
<path d="M13.75 19.3158H21.5847L20.3216 17.6316C20.2235 17.5008 20.0964 17.3947 19.9502 17.3217C19.8041 17.2486 19.6429 17.2105 19.4795 17.2105H14.8026C14.5235 17.2105 14.2557 17.3214 14.0583 17.5188C13.8609 17.7162 13.75 17.984 13.75 18.2632V19.3158Z" fill="white"/>
<path d="M31.6447 17.2105H26.8479L24.3216 13.8421C24.125 13.5812 23.8706 13.3694 23.5784 13.2233C23.2862 13.0771 22.9641 13.0007 22.6374 13H17.9605C17.4022 13 16.8667 13.2218 16.4719 13.6166C16.0771 14.0114 15.8553 14.5469 15.8553 15.1053H19.4795C19.9695 15.1064 20.4526 15.221 20.891 15.4402C21.3293 15.6594 21.7109 15.9771 22.0058 16.3684L24.2163 19.3158H28.4868C29.3244 19.3158 30.1276 19.6485 30.7198 20.2407C31.312 20.8329 31.6447 21.6362 31.6447 22.4737V30.8947C32.2031 30.8947 32.7386 30.6729 33.1334 30.2781C33.5282 29.8833 33.75 29.3478 33.75 28.7895V19.3158C33.75 18.7574 33.5282 18.222 33.1334 17.8271C32.7386 17.4323 32.2031 17.2105 31.6447 17.2105Z" fill="white"/>
</svg>
