<svg width="10" height="14" viewBox="0 0 10 14" fill="none" xmlns="http://www.w3.org/2000/svg">
<path d="M5.64226 1.5C5.64226 1.14529 5.35471 0.857738 5 0.857738C4.64529 0.857738 4.35774 1.14529 4.35774 1.5L5.64226 1.5ZM4.54585 12.9541C4.79667 13.205 5.20333 13.205 5.45415 12.9541L9.54147 8.86682C9.79229 8.616 9.79229 8.20934 9.54148 7.95852C9.29066 7.70771 8.884 7.70771 8.63318 7.95852L5 11.5917L1.36682 7.95852C1.116 7.70771 0.709343 7.70771 0.458524 7.95852C0.207705 8.20934 0.207705 8.616 0.458524 8.86682L4.54585 12.9541ZM4.35774 1.5L4.35774 7L5.64226 7L5.64226 1.5L4.35774 1.5ZM4.35774 7L4.35774 12.5L5.64226 12.5L5.64226 7L4.35774 7Z" fill="black"/>
</svg>
