<svg width="24" height="24" viewBox="0 0 24 24" fill="none" xmlns="http://www.w3.org/2000/svg">
<path d="M8.69897 19.0851C9.12137 18.9668 9.50678 18.7432 9.81897 18.4351L19.359 8.89505C19.6857 8.56706 19.8691 8.12299 19.8691 7.66005C19.8691 7.19711 19.6857 6.75304 19.359 6.42505L18.419 5.49505C18.0863 5.17731 17.644 5 17.184 5C16.7239 5 16.2816 5.17731 15.949 5.49505L6.40897 15.0251C6.10031 15.3352 5.87946 15.7217 5.76897 16.1451L5.02897 18.9051C4.99386 19.0311 4.99296 19.1643 5.02635 19.2908C5.05974 19.4174 5.12622 19.5327 5.21897 19.625C5.36051 19.7642 5.55049 19.8431 5.74897 19.8451L8.69897 19.0851ZM9.10897 17.725C8.92462 17.9127 8.69321 18.0474 8.43897 18.115L7.46897 18.375L6.46897 17.3751L6.72897 16.4051C6.79891 16.1518 6.93328 15.9209 7.11897 15.7351L7.49897 15.3651L9.48897 17.3551L9.10897 17.725ZM10.199 16.6451L8.20897 14.6551L14.939 7.92505L16.929 9.91505L10.199 16.6451ZM18.649 8.19505L17.639 9.20505L15.649 7.21505L16.659 6.19505C16.7285 6.12527 16.8111 6.06989 16.902 6.03211C16.993 5.99433 17.0905 5.97488 17.189 5.97488C17.2875 5.97488 17.385 5.99433 17.4759 6.03211C17.5669 6.06989 17.6495 6.12527 17.719 6.19505L18.649 7.13505C18.7884 7.27619 18.8667 7.46662 18.8667 7.66505C18.8667 7.86348 18.7884 8.05391 18.649 8.19505Z" fill="black"/>
<path d="M9.10897 17.725C8.92462 17.9127 8.69321 18.0474 8.43897 18.115L7.46897 18.375L6.46897 17.3751L6.72897 16.4051C6.79891 16.1518 6.93328 15.9209 7.11897 15.7351L7.49897 15.3651L9.48897 17.3551L9.10897 17.725Z" fill="#EE2E6B"/>
<path d="M10.199 16.6451L8.20897 14.6551L14.939 7.92505L16.929 9.91505L10.199 16.6451Z" fill="#EE2E6B"/>
<path d="M18.649 8.19505L17.639 9.20505L15.649 7.21505L16.659 6.19505C16.7285 6.12527 16.8111 6.06989 16.902 6.03211C16.993 5.99433 17.0905 5.97488 17.189 5.97488C17.2875 5.97488 17.385 5.99433 17.4759 6.03211C17.5669 6.06989 17.6495 6.12527 17.719 6.19505L18.649 7.13505C18.7884 7.27619 18.8667 7.46662 18.8667 7.66505C18.8667 7.86348 18.7884 8.05391 18.649 8.19505Z" fill="#10356D"/>
</svg>
