<svg width="47" height="46" viewBox="0 0 47 46" fill="none" xmlns="http://www.w3.org/2000/svg">
<rect width="46" height="46" transform="translate(0.5)" fill="white"/>
<rect x="0.5" width="46" height="46" rx="23" fill="#9747FF"/>
<path d="M14.8247 18.9662L22.7631 22.996C22.9145 23.0722 23.0826 23.112 23.2532 23.112C23.4238 23.112 23.5918 23.0722 23.7432 22.996L31.6816 18.9662C31.8528 18.8793 31.9962 18.7486 32.0963 18.5882C32.1964 18.4279 32.2493 18.244 32.2493 18.0566C32.2493 17.8691 32.1964 17.6853 32.0963 17.5249C31.9962 17.3646 31.8528 17.2339 31.6816 17.1469L23.7432 13.1172C23.5917 13.0402 23.4232 13 23.2521 13C23.0811 13 22.9125 13.0402 22.761 13.1172L14.8226 17.1469C14.6514 17.2339 14.508 17.3646 14.4079 17.5249C14.3079 17.6853 14.255 17.8691 14.255 18.0566C14.255 18.244 14.3079 18.4279 14.4079 18.5882C14.508 18.7486 14.6514 18.8793 14.8226 18.9662H14.8247Z" fill="white"/>
<path d="M31.1916 21.1664C30.9108 21.1664 30.6416 21.2746 30.4431 21.4671C30.2446 21.6597 30.1331 21.9208 30.1331 22.1931V22.3789L23.2532 25.8697L16.3732 22.3789V22.1931C16.3732 21.9208 16.2617 21.6597 16.0632 21.4671C15.8647 21.2746 15.5955 21.1664 15.3148 21.1664C15.0341 21.1664 14.7649 21.2746 14.5664 21.4671C14.3679 21.6597 14.2563 21.9208 14.2563 22.1931V23.0001C14.2563 23.1875 14.3092 23.3713 14.4092 23.5317C14.5092 23.692 14.6525 23.8228 14.8237 23.9097L22.7621 27.9395C22.9136 28.0164 23.0821 28.0567 23.2532 28.0567C23.4242 28.0567 23.5928 28.0164 23.7443 27.9395L31.6827 23.9097C31.8538 23.8228 31.9972 23.692 32.0972 23.5317C32.1972 23.3713 32.25 23.1875 32.25 23.0001V22.1931C32.25 21.9208 32.1385 21.6597 31.94 21.4671C31.7415 21.2746 31.4723 21.1664 31.1916 21.1664Z" fill="white"/>
<path d="M31.1852 26.1099C30.9045 26.1099 30.6353 26.2181 30.4368 26.4106C30.2383 26.6032 30.1268 26.8643 30.1268 27.1366V27.3224L23.2468 30.8131L16.3669 27.3224V27.1366C16.3669 26.8643 16.2554 26.6032 16.0569 26.4106C15.8584 26.2181 15.5892 26.1099 15.3085 26.1099C15.0277 26.1099 14.7585 26.2181 14.56 26.4106C14.3615 26.6032 14.25 26.8643 14.25 27.1366V27.9446C14.25 28.132 14.3028 28.3158 14.4028 28.4762C14.5028 28.6365 14.6462 28.7673 14.8173 28.8542L22.7557 32.884C22.9075 32.9602 23.0759 33 23.2468 33C23.4177 33 23.5862 32.9602 23.7379 32.884L31.6763 28.8542C31.8475 28.7673 31.9908 28.6365 32.0908 28.4762C32.1908 28.3158 32.2437 28.132 32.2437 27.9446V27.1366C32.2437 26.8643 32.1321 26.6032 31.9336 26.4106C31.7351 26.2181 31.4659 26.1099 31.1852 26.1099Z" fill="white"/>
</svg>
