<svg width="24" height="24" viewBox="0 0 24 24" fill="none" xmlns="http://www.w3.org/2000/svg">
<path d="M8.077 12.382C7.97588 12.1374 7.97588 11.8626 8.077 11.618C8.1269 11.496 8.20068 11.3851 8.294 11.292L12.294 7.292C12.3862 7.19649 12.4966 7.12031 12.6186 7.0679C12.7406 7.01549 12.8718 6.9879 13.0046 6.98675C13.1374 6.9856 13.2691 7.0109 13.392 7.06118C13.5149 7.11146 13.6265 7.18571 13.7204 7.2796C13.8143 7.3735 13.8885 7.48515 13.9388 7.60805C13.9891 7.73094 14.0144 7.86262 14.0133 7.9954C14.0121 8.12818 13.9845 8.2594 13.9321 8.3814C13.8797 8.50341 13.8035 8.61375 13.708 8.706L11.414 11H20C20.2652 11 20.5196 11.1054 20.7071 11.2929C20.8946 11.4804 21 11.7348 21 12C21 12.2652 20.8946 12.5196 20.7071 12.7071C20.5196 12.8946 20.2652 13 20 13H11.414L13.707 15.293C13.8025 15.3852 13.8787 15.4956 13.9311 15.6176C13.9835 15.7396 14.0111 15.8708 14.0123 16.0036C14.0134 16.1364 13.9881 16.2681 13.9378 16.391C13.8875 16.5138 13.8133 16.6255 13.7194 16.7194C13.6255 16.8133 13.5139 16.8875 13.391 16.9378C13.2681 16.9881 13.1364 17.0134 13.0036 17.0123C12.8708 17.0111 12.7396 16.9835 12.6176 16.9311C12.4956 16.8787 12.3852 16.8025 12.293 16.707L8.293 12.707C8.20015 12.6141 8.12672 12.5036 8.077 12.382Z" fill="#D1D1D6"/>
<path d="M6 20H9C9.26522 20 9.51957 19.8946 9.70711 19.7071C9.89464 19.5196 10 19.2652 10 19C10 18.7348 9.89464 18.4804 9.70711 18.2929C9.51957 18.1054 9.26522 18 9 18H6C5.73478 18 5.48043 17.8946 5.29289 17.7071C5.10536 17.5196 5 17.2652 5 17V7C5 6.73478 5.10536 6.48043 5.29289 6.29289C5.48043 6.10536 5.73478 6 6 6H9C9.26522 6 9.51957 5.89464 9.70711 5.70711C9.89464 5.51957 10 5.26522 10 5C10 4.73478 9.89464 4.48043 9.70711 4.29289C9.51957 4.10536 9.26522 4 9 4H6C5.20435 4 4.44129 4.31607 3.87868 4.87868C3.31607 5.44129 3 6.20435 3 7V17C3 17.7956 3.31607 18.5587 3.87868 19.1213C4.44129 19.6839 5.20435 20 6 20Z" fill="#D1D1D6"/>
</svg>
