<svg width="16" height="20" viewBox="0 0 16 20" fill="none" xmlns="http://www.w3.org/2000/svg">
<path d="M14.1176 2H11.2941C11.2941 1.46957 11.0958 0.960859 10.7428 0.585786C10.3898 0.210714 9.911 0 9.41177 0H6.58824C6.089 0 5.61022 0.210714 5.25721 0.585786C4.9042 0.960859 4.70588 1.46957 4.70588 2H1.88235C1.38312 2 0.904338 2.21071 0.551328 2.58579C0.198319 2.96086 0 3.46957 0 4V18C0 18.5304 0.198319 19.0391 0.551328 19.4142C0.904338 19.7893 1.38312 20 1.88235 20H14.1176C14.6169 20 15.0957 19.7893 15.4487 19.4142C15.8017 19.0391 16 18.5304 16 18V4C16 3.46957 15.8017 2.96086 15.4487 2.58579C15.0957 2.21071 14.6169 2 14.1176 2ZM9.41177 2V5H6.58824V2H9.41177ZM11.2941 15H4.70588C4.45627 15 4.21688 14.8946 4.04037 14.7071C3.86387 14.5196 3.76471 14.2652 3.76471 14C3.76471 13.7348 3.86387 13.4804 4.04037 13.2929C4.21688 13.1054 4.45627 13 4.70588 13H11.2941C11.5437 13 11.7831 13.1054 11.9596 13.2929C12.1361 13.4804 12.2353 13.7348 12.2353 14C12.2353 14.2652 12.1361 14.5196 11.9596 14.7071C11.7831 14.8946 11.5437 15 11.2941 15ZM11.2941 11H4.70588C4.45627 11 4.21688 10.8946 4.04037 10.7071C3.86387 10.5196 3.76471 10.2652 3.76471 10C3.76471 9.73478 3.86387 9.48043 4.04037 9.29289C4.21688 9.10536 4.45627 9 4.70588 9H11.2941C11.5437 9 11.7831 9.10536 11.9596 9.29289C12.1361 9.48043 12.2353 9.73478 12.2353 10C12.2353 10.2652 12.1361 10.5196 11.9596 10.7071C11.7831 10.8946 11.5437 11 11.2941 11Z" fill="#D1D1D6"/>
</svg>
