<svg width="24" height="24" viewBox="0 0 24 24" fill="none" xmlns="http://www.w3.org/2000/svg">
<path d="M18.6303 20H4.42093C4.04408 20 3.68266 19.842 3.41618 19.5607C3.14971 19.2794 3 18.8978 3 18.5V5.5C3 5.10218 3.14971 4.72064 3.41618 4.43934C3.68266 4.15804 4.04408 4 4.42093 4C4.79779 4 5.15921 4.15804 5.42569 4.43934C5.69216 4.72064 5.84187 5.10218 5.84187 5.5V17H18.6303C19.0071 17 19.3686 17.158 19.635 17.4393C19.9015 17.7206 20.0512 18.1022 20.0512 18.5C20.0512 18.8978 19.9015 19.2794 19.635 19.5607C19.3686 19.842 19.0071 20 18.6303 20Z" fill="#D1D1D6"/>
<path d="M8.21009 16C7.94621 16 7.68754 15.9224 7.46306 15.776C7.23859 15.6295 7.05718 15.42 6.93917 15.1708C6.82116 14.9217 6.7712 14.6427 6.7949 14.3653C6.8186 14.0878 6.91501 13.8229 7.07335 13.6L9.91521 9.6C10.1331 9.29329 10.4541 9.08632 10.8121 9.0216C11.17 8.95688 11.5379 9.03932 11.8401 9.252L13.442 10.379L15.5175 6.729C15.6164 6.55492 15.7477 6.40384 15.9035 6.28491C16.0593 6.16597 16.2364 6.08165 16.4239 6.03706C16.6115 5.99246 16.8057 5.98852 16.9948 6.02546C17.1838 6.06241 17.3638 6.13948 17.5238 6.252L20.3657 8.252C20.6798 8.47266 20.8979 8.81598 20.9722 9.20643C21.0464 9.59688 20.9707 10.0025 20.7617 10.334C20.5527 10.6655 20.2274 10.8958 19.8576 10.9742C19.4877 11.0526 19.1035 10.9727 18.7894 10.752L17.1876 9.625L15.112 13.275C15.0132 13.4491 14.8818 13.6002 14.726 13.7191C14.5702 13.838 14.3932 13.9223 14.2056 13.9669C14.018 14.0115 13.8238 14.0155 13.6348 13.9785C13.4457 13.9416 13.2657 13.8645 13.1057 13.752L11.3826 12.539L9.34684 15.4C9.21448 15.5863 9.04286 15.7375 8.84555 15.8416C8.64825 15.9458 8.43069 16 8.21009 16Z" fill="#D1D1D6"/>
</svg>
