<svg width="46" height="46" viewBox="0 0 46 46" fill="none" xmlns="http://www.w3.org/2000/svg">
<rect width="46" height="46" fill="white"/>
<rect width="46" height="46" rx="23" fill="#FD9B05"/>
<path d="M23 23.5263C24.6569 23.5263 26 22.1125 26 20.3685C26 18.6244 24.6569 17.2106 23 17.2106C21.3431 17.2106 20 18.6244 20 20.3685C20 22.1125 21.3431 23.5263 23 23.5263Z" fill="white"/>
<path d="M22 26.6842H24C25.0609 26.6842 26.0783 27.1278 26.8284 27.9175C27.5786 28.7071 28 29.778 28 30.8947V33H18V30.8947C18 29.778 18.4214 28.7071 19.1716 27.9175C19.9217 27.1278 20.9391 26.6842 22 26.6842Z" fill="white"/>
<path d="M26 20.3685C25.9993 19.6242 25.7483 18.9043 25.2917 18.3362C24.835 17.768 24.2021 17.3883 23.505 17.2643" fill="white"/>
<path d="M27.5 13.0001C26.7815 13.0024 26.077 13.209 25.4609 13.5981C24.8448 13.9872 24.34 14.5444 24 15.2106C25.1287 15.4547 26.1428 16.1011 26.8715 17.0406C27.6002 17.9802 27.9987 19.1556 28 20.3685C27.9983 20.7079 27.9648 21.0464 27.9 21.379C28.9225 21.2766 29.868 20.7629 30.5398 19.945C31.2115 19.1271 31.5576 18.068 31.5061 16.9882C31.4545 15.9084 31.0093 14.8911 30.263 14.1482C29.5168 13.4053 28.5271 12.9941 27.5 13.0001Z" fill="white"/>
<path d="M20.366 24.8232C19.5125 24.2605 18.838 23.4424 18.429 22.4737H18C16.6744 22.4754 15.4036 23.0304 14.4662 24.0171C13.5289 25.0038 13.0016 26.3415 13 27.7369V29.8421C13 30.1213 13.1054 30.389 13.2929 30.5864C13.4804 30.7838 13.7348 30.8947 14 30.8947H16C16.0023 29.5208 16.4296 28.1851 17.2174 27.0896C18.0051 25.9941 19.1104 25.1985 20.366 24.8232Z" fill="white"/>
<path d="M28 22.4737H27.571C27.162 23.4424 26.4875 24.2605 25.634 24.8232C26.8896 25.1985 27.9949 25.9941 28.7826 27.0896C29.5704 28.1851 29.9977 29.5208 30 30.8947H32C32.2652 30.8947 32.5196 30.7838 32.7071 30.5864C32.8946 30.389 33 30.1213 33 29.8421V27.7369C32.9984 26.3415 32.4711 25.0038 31.5338 24.0171C30.5964 23.0304 29.3256 22.4754 28 22.4737Z" fill="white"/>
<path d="M18 20.3685C18.0013 19.1556 18.3998 17.9802 19.1285 17.0407C19.8572 16.1011 20.8713 15.4547 22 15.2106C21.6735 14.5725 21.1956 14.0342 20.6129 13.6482C20.0301 13.2622 19.3624 13.0415 18.6746 13.0078C17.9868 12.974 17.3024 13.1283 16.6881 13.4556C16.0737 13.7828 15.5504 14.2719 15.1689 14.8753C14.7874 15.4787 14.5608 16.1757 14.5112 16.8986C14.4616 17.6215 14.5906 18.3456 14.8857 19.0004C15.1809 19.6552 15.632 20.2185 16.1953 20.6353C16.7585 21.0521 17.4147 21.3083 18.1 21.379C18.0352 21.0464 18.0017 20.708 18 20.3685Z" fill="white"/>
</svg>
