<svg width="46" height="46" viewBox="0 0 46 46" fill="none" xmlns="http://www.w3.org/2000/svg">
<rect width="46" height="46" fill="white"/>
<rect width="46" height="46" rx="23" fill="#219F2E"/>
<path d="M29.8803 31H15.6709C15.2941 31 14.9327 30.842 14.6662 30.5607C14.3997 30.2794 14.25 29.8978 14.25 29.5V16.5C14.25 16.1022 14.3997 15.7206 14.6662 15.4393C14.9327 15.158 15.2941 15 15.6709 15C16.0478 15 16.4092 15.158 16.6757 15.4393C16.9422 15.7206 17.0919 16.1022 17.0919 16.5V28H29.8803C30.2571 28 30.6186 28.158 30.885 28.4393C31.1515 28.7206 31.3012 29.1022 31.3012 29.5C31.3012 29.8978 31.1515 30.2794 30.885 30.5607C30.6186 30.842 30.2571 31 29.8803 31Z" fill="white"/>
<path d="M19.4601 27C19.1962 27 18.9375 26.9224 18.7131 26.776C18.4886 26.6295 18.3072 26.42 18.1892 26.1708C18.0712 25.9217 18.0212 25.6427 18.0449 25.3653C18.0686 25.0878 18.165 24.8229 18.3233 24.6L21.1652 20.6C21.3831 20.2933 21.7041 20.0863 22.0621 20.0216C22.42 19.9569 22.7879 20.0393 23.0901 20.252L24.692 21.379L26.7675 17.729C26.8664 17.5549 26.9977 17.4038 27.1535 17.2849C27.3093 17.166 27.4864 17.0817 27.6739 17.0371C27.8615 16.9925 28.0557 16.9885 28.2448 17.0255C28.4338 17.0624 28.6138 17.1395 28.7738 17.252L31.6157 19.252C31.9298 19.4727 32.1479 19.816 32.2222 20.2064C32.2964 20.5969 32.2207 21.0025 32.0117 21.334C31.8027 21.6655 31.4774 21.8958 31.1076 21.9742C30.7377 22.0526 30.3535 21.9727 30.0394 21.752L28.4376 20.625L26.362 24.275C26.2632 24.4491 26.1318 24.6002 25.976 24.7191C25.8202 24.838 25.6432 24.9223 25.4556 24.9669C25.268 25.0115 25.0738 25.0155 24.8848 24.9785C24.6957 24.9416 24.5157 24.8645 24.3557 24.752L22.6326 23.539L20.5968 26.4C20.4645 26.5863 20.2929 26.7375 20.0956 26.8416C19.8982 26.9458 19.6807 27 19.4601 27Z" fill="white"/>
</svg>
