<svg width="68" height="85" viewBox="0 0 68 85" fill="none" xmlns="http://www.w3.org/2000/svg">
<g opacity="0.5">
<path fill-rule="evenodd" clip-rule="evenodd" d="M38 72.5H25.3333C13.3918 72.5 7.4195 72.5 3.71133 68.2515C-2.38419e-07 64.0066 0 57.1699 0 43.5V29C0 15.3301 -2.38419e-07 8.49337 3.71133 4.2485C7.4195 -4.76837e-07 13.4235 0 25.4283 0C27.3473 0 28.8832 -1.49012e-07 30.1783 0.0616249C30.1372 0.351625 30.115 0.64525 30.115 0.946125L30.0833 11.2194C30.0833 15.196 30.0833 18.7122 30.4158 21.5434C30.7768 24.6138 31.6033 27.6841 33.7947 30.1926C35.9797 32.6939 38.665 33.6436 41.3472 34.0569C43.8203 34.4375 46.892 34.4375 50.3658 34.4375H63.1972C63.3333 36.3732 63.3333 38.7513 63.3333 41.9159V43.5C63.3333 57.1699 63.3333 64.0066 59.622 68.2515C55.9138 72.5 49.9415 72.5 38 72.5Z" fill="#F3F4F6"/>
<path d="M4.08775 67.9224L4.08803 67.9227C5.83784 69.9275 8.13051 70.9543 11.5109 71.4748C14.9134 71.9986 19.3465 72 25.3333 72H38C43.9869 72 48.4199 71.9986 51.8224 71.4748C55.2028 70.9543 57.4955 69.9275 59.2453 67.9227L59.2456 67.9224C61.0054 65.9096 61.9141 63.2561 62.3728 59.3518C62.8325 55.4393 62.8333 50.3473 62.8333 43.5V41.9159C62.8333 38.9965 62.8331 36.7666 62.728 34.9375H50.3658H50.3317C46.8849 34.9375 43.7821 34.9375 41.2711 34.5511L41.271 34.551C38.5206 34.1273 35.7076 33.1425 33.4181 30.5216C31.1308 27.9032 30.2854 24.7158 29.9193 21.6018L29.9192 21.6017C29.5833 18.7415 29.5833 15.2016 29.5833 11.246V11.2194V11.2178L29.615 0.946125C29.615 0.94581 29.615 0.945495 29.615 0.94518L29.615 0.944583L30.115 0.946125C30.115 0.816082 30.1191 0.687394 30.1272 0.559767L4.08775 67.9224ZM4.08775 67.9224C2.32796 65.9096 1.41922 63.2561 0.960501 59.3518C0.500814 55.4393 0.5 50.3473 0.5 43.5V29C0.5 22.1527 0.500814 17.0607 0.960501 13.1482C1.41922 9.2439 2.32796 6.59038 4.08775 4.5776L4.08803 4.57729C5.83742 2.57298 8.13751 1.54589 11.5343 1.02529C14.9528 0.501373 19.4098 0.5 25.4283 0.5C27.0943 0.5 28.4596 0.500093 29.6274 0.539731L4.08775 67.9224Z" stroke="black" stroke-opacity="0.25"/>
</g>
<g opacity="0.5">
<path d="M30.1157 0.941953L30.084 11.2188C30.084 15.1955 30.084 18.7081 30.4165 21.5428C30.7775 24.6132 31.604 27.6836 33.7953 30.1885C35.9803 32.6933 38.6657 33.6431 41.3478 34.0563C43.821 34.437 46.8927 34.437 50.3665 34.437H63.1978C63.239 34.9988 63.2675 35.6006 63.2865 36.2495H63.334C63.334 35.278 63.334 34.7922 63.3023 34.2195C63.0584 30.7748 62.0107 27.4684 60.2687 24.6458C59.971 24.1818 59.7683 23.9063 59.3662 23.3517C56.855 19.9152 53.549 15.6305 50.6673 12.687C48.1023 10.0625 44.5842 7.19508 41.5156 4.85333C38.881 2.83783 37.5637 1.83008 35.7555 1.08333C35.2295 0.867872 34.6948 0.681573 34.1532 0.525078C32.9372 0.180703 31.7528 0.0610781 30.084 0.0175781L30.1157 0.941953Z" fill="#E6E7EB"/>
<path d="M30.6157 0.934161L30.6156 0.943493L30.584 11.2188C30.584 11.2191 30.584 11.2193 30.584 11.2196C30.584 15.206 30.5848 18.6853 30.9131 21.4844L30.6157 0.934161ZM30.6157 0.934161L30.6154 0.924834L30.602 0.534668M30.6157 0.934161L30.602 0.534668M30.602 0.534668C31.9742 0.589143 32.9867 0.714533 34.0156 1.0058C34.5393 1.15714 35.0564 1.33731 35.5653 1.54575C37.3005 2.26248 38.5637 3.22463 41.2119 5.25045L41.2123 5.2508C44.2758 7.5887 47.7707 10.4385 50.3097 13.0364L50.31 13.0367C53.1646 15.9526 56.4525 20.2119 58.9617 23.6457C58.9879 23.6819 59.0133 23.7168 59.0378 23.7505C59.3898 24.2358 59.5769 24.4937 59.8455 24.9121C61.4885 27.5756 62.5001 30.6859 62.7787 33.937H50.3665C46.8793 33.937 43.8509 33.9357 41.4239 33.5621M30.602 0.534668L30.9131 21.4846C31.269 24.5113 32.0765 27.4644 34.1716 29.8592L34.1721 29.8598C36.2526 32.2448 38.8101 33.1594 41.4239 33.5621M41.4239 33.5621C41.4239 33.5621 41.4239 33.5622 41.424 33.5622L41.3478 34.0563L41.4239 33.5621ZM63.2805 33.937C63.0006 30.5942 61.963 27.3911 60.2687 24.6458C59.9909 24.2129 59.7959 23.9441 59.4444 23.4596C59.4191 23.4248 59.3931 23.3889 59.3662 23.3517C56.855 19.9152 53.549 15.6305 50.6673 12.687C48.1023 10.0625 44.5842 7.19508 41.5156 4.85333L41.5156 4.85331L63.2805 33.937ZM62.8033 34.251C62.8068 34.3138 62.8098 34.3755 62.8125 34.437L62.8033 34.251Z" stroke="black" stroke-opacity="0.25"/>
</g>
<circle cx="53.5" cy="70.5" r="14.5" fill="black"/>
<path d="M48.7045 76.05C47.4568 76.05 46.2602 75.5759 45.3779 74.732C44.4957 73.8881 44 72.7435 44 71.55C44 70.3565 44.4957 69.2119 45.3779 68.368C46.2602 67.5241 47.4568 67.05 48.7045 67.05C48.9992 65.7372 49.8613 64.5835 51.1011 63.8427C51.715 63.4759 52.4032 63.2215 53.1263 63.0941C53.8494 62.9667 54.5934 62.9687 55.3157 63.1C56.0379 63.2313 56.7244 63.4894 57.3358 63.8595C57.9473 64.2296 58.4718 64.7044 58.8793 65.2569C59.2869 65.8094 59.5695 66.4288 59.7111 67.0796C59.8527 67.7304 59.8505 68.4 59.7045 69.05H60.7045C61.6328 69.05 62.523 69.4187 63.1794 70.0751C63.8358 70.7315 64.2045 71.6217 64.2045 72.55C64.2045 73.4783 63.8358 74.3685 63.1794 75.0249C62.523 75.6813 61.6328 76.05 60.7045 76.05H59.7045" stroke="white" stroke-linecap="round" stroke-linejoin="round"/>
<path d="M50.7051 73.0498L53.7051 70.0498M53.7051 70.0498L56.7051 73.0498M53.7051 70.0498V79.0498" stroke="white" stroke-linecap="round" stroke-linejoin="round"/>
</svg>
