<svg xmlns="http://www.w3.org/2000/svg" width="24" height="24" viewBox="0 0 24 24" fill="none">
  <path d="M5.615 20C5.171 20 4.791 19.8417 4.475 19.525C4.15833 19.209 4 18.829 4 18.385V5.615C4 5.171 4.15833 4.791 4.475 4.475C4.791 4.15833 5.171 4 5.615 4H9.885C10.329 4 10.709 4.15833 11.025 4.475C11.3417 4.791 11.5 5.171 11.5 5.615V18.385C11.5 18.829 11.3417 19.209 11.025 19.525C10.709 19.8417 10.329 20 9.885 20H5.615ZM14.115 20C13.671 20 13.291 19.8417 12.975 19.525C12.6583 19.209 12.5 18.829 12.5 18.385V13.615C12.5 13.171 12.6583 12.791 12.975 12.475C13.2917 12.159 13.6717 12.0007 14.115 12H18.385C18.829 12 19.209 12.1583 19.525 12.475C19.8417 12.791 20 13.171 20 13.615V18.385C20 18.829 19.8417 19.209 19.525 19.525C19.209 19.8417 18.829 20 18.385 20H14.115ZM14.115 11C13.671 11 13.291 10.8417 12.975 10.525C12.6583 10.209 12.5 9.829 12.5 9.385V5.615C12.5 5.171 12.6583 4.791 12.975 4.475C13.291 4.15833 13.671 4 14.115 4H18.385C18.829 4 19.209 4.15833 19.525 4.475C19.8417 4.791 20 5.171 20 5.615V9.385C20 9.829 19.8417 10.209 19.525 10.525C19.209 10.8417 18.829 11 18.385 11H14.115Z" fill="#39D3EC" fill-opacity="0.65"/>
</svg>