<svg width="28" height="26" viewBox="0 0 28 26" fill="none" xmlns="http://www.w3.org/2000/svg">
<path d="M13.9523 5.23647L14.3591 5.74339L14.3592 5.74337L13.9523 5.23647ZM3.86461 16.8104H4.51461V16.1604H3.86461V16.8104ZM11.0621 18.045L11.4081 17.4947L10.4121 16.8683V18.045H11.0621ZM13.9514 20.1962L13.5445 20.7031L13.5446 20.7032L13.9514 20.1962ZM21.8996 24.1085V24.7585H21.8997L21.8996 24.1085ZM4.78495 16.8104V16.1604H4.13495V16.8104H4.78495ZM10.1414 17.5227H10.7914V17.1219L10.4333 16.9419L10.1414 17.5227ZM14.5389 19.5091L14.1319 20.016L14.132 20.0161L14.5389 19.5091ZM14.5386 5.92313L14.9453 6.43012L14.9454 6.43007L14.5386 5.92313ZM19.5896 2.65363L20.0962 3.06095L21.5658 1.23331L19.365 2.04366L19.5896 2.65363ZM19.5891 22.7778L19.3646 23.3878L21.565 24.1976L20.0956 22.3705L19.5891 22.7778ZM25.8334 12.7163L26.4834 12.7163V12.7163H25.8334ZM21.9002 0.674219C18.5575 0.674219 15.8992 2.84015 13.5454 4.72958L14.3592 5.74337C16.7979 3.78582 19.0952 1.97422 21.9002 1.97422V0.674219ZM13.5454 4.72955C12.4521 5.60702 11.4354 6.42136 10.4163 7.0217C9.40247 7.61897 8.43895 7.97142 7.46392 7.97142V9.27142C8.75963 9.27142 9.95581 8.8018 11.0762 8.14179C12.1914 7.48486 13.2835 6.60673 14.3591 5.74339L13.5454 4.72955ZM7.46392 7.97142H3.69745V9.27142H7.46392V7.97142ZM3.69745 7.97142C1.71976 7.97142 0.0765625 9.53398 0.0765625 11.4998H1.37656C1.37656 10.2905 2.39857 9.27142 3.69745 9.27142V7.97142ZM0.0765625 11.4998V13.9324H1.37656V11.4998H0.0765625ZM0.0765625 13.9324C0.0765625 15.8979 1.71981 17.4604 3.69745 17.4604V16.1604C2.39853 16.1604 1.37656 15.1413 1.37656 13.9324H0.0765625ZM3.69745 17.4604H3.86461V16.1604H3.69745V17.4604ZM3.21461 16.8104V22.4459H4.51461V16.8104H3.21461ZM3.21461 22.4459C3.21461 24.4114 4.85814 25.9742 6.83579 25.9742V24.6742C5.53686 24.6742 4.51461 23.6548 4.51461 22.4459H3.21461ZM6.83579 25.9742H8.09118V24.6742H6.83579V25.9742ZM8.09118 25.9742C10.0689 25.9742 11.7121 24.4113 11.7121 22.4459H10.4121C10.4121 23.6549 9.39001 24.6742 8.09118 24.6742V25.9742ZM11.7121 22.4459V18.045H10.4121V22.4459H11.7121ZM10.716 18.5952C11.6379 19.1749 12.5611 19.9136 13.5445 20.7031L14.3583 19.6894C13.3874 18.9098 12.4048 18.1215 11.4081 17.4947L10.716 18.5952ZM13.5446 20.7032C15.8986 22.5919 18.5569 24.7585 21.8996 24.7585V23.4585C19.0946 23.4585 16.7974 21.6464 14.3582 19.6893L13.5446 20.7032ZM21.8997 24.7585C22.7948 24.7584 23.593 24.3436 24.2606 23.6917C24.9242 23.0438 25.488 22.1366 25.9456 21.0626C26.8617 18.9128 27.404 15.9735 27.404 12.7164H26.104C26.104 15.8472 25.5802 18.6038 24.7497 20.553C24.334 21.5285 23.8543 22.2716 23.3524 22.7616C22.8547 23.2476 22.3655 23.4584 21.8995 23.4585L21.8997 24.7585ZM27.404 12.7164C27.404 9.45905 26.8617 6.51972 25.9457 4.36989C25.4881 3.29594 24.9244 2.38872 24.2609 1.74084C23.5933 1.08895 22.7952 0.674219 21.9002 0.674219V1.97422C22.3659 1.97422 22.855 2.18497 23.3527 2.67094C23.8544 3.16092 24.3341 3.90393 24.7497 4.87947C25.5802 6.82865 26.104 9.58539 26.104 12.7164H27.404ZM9.4914 22.4461C9.4914 23.163 8.88215 23.7824 8.09102 23.7824V25.0824C9.5608 25.0824 10.7914 23.9197 10.7914 22.4461H9.4914ZM8.09102 23.7824H6.83563V25.0824H8.09102V23.7824ZM6.83563 23.7824C6.04414 23.7824 5.43495 23.163 5.43495 22.4461H4.13495C4.13495 23.9198 5.36561 25.0824 6.83563 25.0824V23.7824ZM5.43495 22.4461V16.8104H4.13495V22.4461H5.43495ZM4.78495 17.4604H7.46347V16.1604H4.78495V17.4604ZM7.46347 17.4604C8.25318 17.4604 9.03676 17.695 9.84951 18.1035L10.4333 16.9419C9.50337 16.4745 8.51707 16.1604 7.46347 16.1604V17.4604ZM9.4914 17.5227V22.4461H10.7914V17.5227H9.4914ZM14.9458 19.0023C13.8543 18.126 12.6972 17.1955 11.4782 16.4893C10.2536 15.78 8.92026 15.2685 7.46344 15.2685V16.5685C8.60907 16.5685 9.71391 16.9697 10.8266 17.6142C11.945 18.262 13.0244 19.1268 14.1319 20.016L14.9458 19.0023ZM7.46344 15.2685H3.69697V16.5685H7.46344V15.2685ZM3.69697 15.2685C2.90584 15.2685 2.29659 14.6492 2.29659 13.9323H0.996587C0.996587 15.4059 2.22719 16.5685 3.69697 16.5685V15.2685ZM2.29659 13.9323V11.4997H0.996587V13.9323H2.29659ZM2.29659 11.4997C2.29659 10.7827 2.90596 10.1632 3.69697 10.1632V8.86317C2.22707 8.86317 0.996587 10.0262 0.996587 11.4997H2.29659ZM3.69697 10.1632H7.46315V8.86317H3.69697V10.1632ZM7.46315 10.1632C8.91999 10.1632 10.2533 9.65166 11.4778 8.94234C12.6967 8.23628 13.8538 7.3059 14.9453 6.43012L14.1318 5.41615C13.024 6.30499 11.9446 7.16963 10.8262 7.81743C9.71352 8.46198 8.60876 8.86317 7.46315 8.86317V10.1632ZM14.9454 6.43007C16.5723 5.12441 18.1349 3.88194 19.8142 3.26359L19.365 2.04366C17.4497 2.74893 15.7195 4.1419 14.1317 5.4162L14.9454 6.43007ZM19.0831 2.24631C17.4201 4.31445 16.3953 8.24403 16.3953 12.7163H17.6953C17.6953 8.36262 18.7059 4.78991 20.0962 3.06095L19.0831 2.24631ZM16.3953 12.7163C16.3953 17.1876 17.4197 21.1175 19.0825 23.1851L20.0956 22.3705C18.7056 20.6421 17.6953 17.0692 17.6953 12.7163H16.3953ZM19.8135 22.1678C18.1349 21.55 16.5723 20.3076 14.9457 19.0022L14.132 20.0161C15.7195 21.2901 17.4497 22.6831 19.3646 23.3878L19.8135 22.1678ZM21.9001 22.5663C21.676 22.5663 21.3529 22.4399 20.9606 22.017C20.5736 21.5996 20.178 20.9523 19.8233 20.0774C19.1157 18.3321 18.6165 15.7935 18.6165 12.7163H17.3165C17.3165 15.92 17.8343 18.6315 18.6185 20.5659C19.0098 21.5309 19.4788 22.3309 20.0074 22.9009C20.5309 23.4653 21.1743 23.8663 21.9001 23.8663V22.5663ZM18.6165 12.7163C18.6165 9.63891 19.1156 7.1002 19.8232 5.35474C20.1779 4.47984 20.5735 3.83247 20.9605 3.41511C21.3528 2.99215 21.6759 2.86572 21.9001 2.86572V1.56572C21.1743 1.56572 20.5308 1.9667 20.0073 2.53115C19.4787 3.10121 19.0096 3.90126 18.6184 4.86634C17.8342 6.80086 17.3165 9.51244 17.3165 12.7163H18.6165ZM21.9001 2.86572C22.1241 2.86572 22.4472 2.9921 22.8394 3.41509C23.2264 3.83245 23.622 4.47983 23.9767 5.35474C24.6843 7.10021 25.1834 9.63892 25.1834 12.7163H26.4834C26.4834 9.51243 25.9657 6.80085 25.1814 4.86634C24.7902 3.90126 24.3212 3.10123 23.7926 2.53118C23.2693 1.96676 22.6259 1.56572 21.9001 1.56572V2.86572ZM25.1834 12.7163C25.1833 15.7935 24.6841 18.3321 23.9766 20.0775C23.6219 20.9523 23.2263 21.5997 22.8393 22.017C22.4472 22.4399 22.1241 22.5663 21.9001 22.5663V23.8663C22.6259 23.8663 23.2693 23.4653 23.7926 22.9009C24.3212 22.3309 24.7901 21.5309 25.1813 20.5659C25.9655 18.6315 26.4833 15.92 26.4834 12.7163L25.1834 12.7163Z" fill="black"/>
</svg>
