<svg width="25" height="25" viewBox="0 0 25 25" fill="none" xmlns="http://www.w3.org/2000/svg">
<path fill-rule="evenodd" clip-rule="evenodd" d="M18.4067 1.14114C18.1683 0.760318 17.8172 0.463277 17.4021 0.291366C16.9871 0.119456 16.5287 0.0812287 16.0909 0.182008L12.9837 0.895741C12.6652 0.968932 12.3344 0.968932 12.0159 0.895741L8.90867 0.182008C8.47086 0.0812287 8.01253 0.119456 7.59747 0.291366C7.1824 0.463277 6.83126 0.760318 6.59293 1.14114L4.89932 3.844C4.72651 4.1205 4.4932 4.35381 4.21669 4.52835L1.51384 6.22195C1.13367 6.46008 0.837069 6.81065 0.665196 7.22501C0.493322 7.63936 0.454706 8.09694 0.554707 8.53424L1.26844 11.6449C1.34137 11.9628 1.34137 12.2931 1.26844 12.611L0.554707 15.72C0.454317 16.1575 0.492739 16.6155 0.664631 17.0302C0.836524 17.4449 1.13335 17.7957 1.51384 18.034L4.21669 19.7276C4.4932 19.9004 4.7265 20.1337 4.90105 20.4102L6.59465 23.1131C7.082 23.8925 8.01175 24.2779 8.90867 24.0722L12.0159 23.3585C12.3344 23.2853 12.6652 23.2853 12.9837 23.3585L16.0927 24.0722C16.5302 24.1726 16.9882 24.1342 17.4029 23.9623C17.8176 23.7904 18.1685 23.4936 18.4067 23.1131L20.1003 20.4102C20.2731 20.1337 20.5064 19.9004 20.7829 19.7276L23.4875 18.034C23.868 17.7954 24.1647 17.4442 24.3363 17.0291C24.5079 16.6141 24.5458 16.1559 24.4449 15.7182L23.7329 12.611C23.6597 12.2926 23.6597 11.9617 23.7329 11.6432L24.4466 8.53424C24.5472 8.09687 24.509 7.63904 24.3374 7.22435C24.1659 6.80966 23.8694 6.4587 23.4892 6.22023L20.7846 4.52662C20.5085 4.35349 20.2751 4.12012 20.102 3.844L18.4067 1.14114ZM17.5374 8.27329C17.6443 8.07674 17.6708 7.84639 17.6113 7.63071C17.5518 7.41503 17.411 7.23083 17.2184 7.11687C17.0259 7.00292 16.7967 6.96809 16.579 7.01971C16.3613 7.07133 16.1721 7.20538 16.0512 7.39365L11.532 15.0425L8.80325 12.4295C8.7223 12.3464 8.62543 12.2804 8.51843 12.2356C8.41144 12.1907 8.29649 12.1678 8.18047 12.1683C8.06444 12.1688 7.9497 12.1927 7.84309 12.2385C7.73649 12.2843 7.6402 12.3511 7.55998 12.435C7.47975 12.5188 7.41723 12.6179 7.37614 12.7264C7.33505 12.8349 7.31624 12.9506 7.32082 13.0665C7.32541 13.1825 7.35329 13.2963 7.40282 13.4012C7.45234 13.5062 7.5225 13.6 7.60909 13.6773L11.1242 17.0455C11.2183 17.1354 11.3314 17.203 11.4553 17.243C11.5791 17.2831 11.7104 17.2947 11.8394 17.2769C11.9683 17.2591 12.0916 17.2125 12.2 17.1404C12.3083 17.0683 12.399 16.9726 12.4652 16.8606L17.5374 8.27329Z" fill="#1B81F9"/>
</svg>
