<svg width="24" height="24" viewBox="0 0 24 24" fill="none" xmlns="http://www.w3.org/2000/svg">
<g clip-path="url(#clip0_616_2317)">
<path d="M18.5 11L14 9V4M18.5 11L23 9V4M18.5 11V6M23 4L18.5 2L14 4M23 4L18.5 6M14 4L18.5 6M7 15C5.93913 15 4.92172 14.5786 4.17157 13.8284C3.42143 13.0783 3 12.0609 3 11C3 9.93913 3.42143 8.92172 4.17157 8.17157C4.92172 7.42143 5.93913 7 7 7C8.06087 7 9.07828 7.42143 9.82843 8.17157C10.5786 8.92172 11 9.93913 11 11C11 12.0609 10.5786 13.0783 9.82843 13.8284C9.07828 14.5786 8.06087 15 7 15ZM7 15C3.5 15 1 17 1 21V23H13V21C13 17 10.5 15 7 15Z" stroke="white" stroke-opacity="0.85" stroke-width="2"/>
</g>
<defs>
<clipPath id="clip0_616_2317">
<rect width="24" height="24" fill="white"/>
</clipPath>
</defs>
</svg>
