<svg width="24" height="24" viewBox="0 0 24 24" fill="none" xmlns="http://www.w3.org/2000/svg">
<g clip-path="url(#clip0_655_19372)">
<g clip-path="url(#clip1_655_19372)">
<path d="M0 0H24V24H0V0Z" fill="#008FFE"/>
<path d="M12 4.50667C12.0672 4.50667 12.1316 4.47998 12.1791 4.43247C12.2266 4.38496 12.2533 4.32052 12.2533 4.25333C12.2533 4.18615 12.2266 4.12171 12.1791 4.0742C12.1316 4.02669 12.0672 4 12 4C11.9328 4 11.8684 4.02669 11.8209 4.0742C11.7734 4.12171 11.7467 4.18615 11.7467 4.25333C11.7467 4.32052 11.7734 4.38496 11.8209 4.43247C11.8684 4.47998 11.9328 4.50667 12 4.50667ZM12.3787 5.72267C12.3787 5.77239 12.3689 5.82163 12.3498 5.86758C12.3308 5.91352 12.3029 5.95526 12.2678 5.99042C12.2326 6.02559 12.1909 6.05348 12.1449 6.07251C12.099 6.09154 12.0497 6.10133 12 6.10133C11.9503 6.10133 11.901 6.09154 11.8551 6.07251C11.8091 6.05348 11.7674 6.02559 11.7322 5.99042C11.6971 5.95526 11.6692 5.91352 11.6502 5.86758C11.6311 5.82163 11.6213 5.77239 11.6213 5.72267C11.6213 5.62224 11.6612 5.52592 11.7322 5.45491C11.8033 5.3839 11.8996 5.344 12 5.344C12.1004 5.344 12.1967 5.3839 12.2678 5.45491C12.3388 5.52592 12.3787 5.62224 12.3787 5.72267ZM12 7.916C12.1429 7.916 12.2799 7.85925 12.3809 7.75823C12.4819 7.65721 12.5387 7.5202 12.5387 7.37733C12.5387 7.23447 12.4819 7.09746 12.3809 6.99644C12.2799 6.89542 12.1429 6.83867 12 6.83867C11.8571 6.83867 11.7201 6.89542 11.6191 6.99644C11.5181 7.09746 11.4613 7.23447 11.4613 7.37733C11.4613 7.5202 11.5181 7.65721 11.6191 7.75823C11.7201 7.85925 11.8571 7.916 12 7.916ZM12 10.2267C12.2062 10.2267 12.4039 10.1448 12.5497 9.99899C12.6954 9.85321 12.7773 9.6555 12.7773 9.44933C12.7773 9.24317 12.6954 9.04545 12.5497 8.89968C12.4039 8.7539 12.2062 8.672 12 8.672C11.7938 8.672 11.5961 8.7539 11.4503 8.89968C11.3046 9.04545 11.2227 9.24317 11.2227 9.44933C11.2227 9.6555 11.3046 9.85321 11.4503 9.99899C11.5961 10.1448 11.7938 10.2267 12 10.2267ZM12.7773 14.5507C12.7773 14.3445 12.6954 14.1468 12.5497 14.001C12.4039 13.8552 12.2062 13.7733 12 13.7733C11.7938 13.7733 11.5961 13.8552 11.4503 14.001C11.3046 14.1468 11.2227 14.3445 11.2227 14.5507C11.2227 14.7568 11.3046 14.9545 11.4503 15.1003C11.5961 15.2461 11.7938 15.328 12 15.328C12.2062 15.328 12.4039 15.2461 12.5497 15.1003C12.6954 14.9545 12.7773 14.7568 12.7773 14.5507ZM12 16.084C12.1429 16.084 12.2799 16.1408 12.3809 16.2418C12.4819 16.3428 12.5387 16.4798 12.5387 16.6227C12.5387 16.7655 12.4819 16.9025 12.3809 17.0036C12.2799 17.1046 12.1429 17.1613 12 17.1613C11.8571 17.1613 11.7201 17.1046 11.6191 17.0036C11.5181 16.9025 11.4613 16.7655 11.4613 16.6227C11.4613 16.4798 11.5181 16.3428 11.6191 16.2418C11.7201 16.1408 11.8571 16.084 12 16.084ZM12.3787 18.2773C12.3787 18.2276 12.3689 18.1784 12.3498 18.1324C12.3308 18.0865 12.3029 18.0447 12.2678 18.0096C12.2326 17.9744 12.1909 17.9465 12.1449 17.9275C12.099 17.9085 12.0497 17.8987 12 17.8987C11.9503 17.8987 11.901 17.9085 11.8551 17.9275C11.8091 17.9465 11.7674 17.9744 11.7322 18.0096C11.6971 18.0447 11.6692 18.0865 11.6502 18.1324C11.6311 18.1784 11.6213 18.2276 11.6213 18.2773C11.6213 18.3778 11.6612 18.4741 11.7322 18.5451C11.8033 18.6161 11.8996 18.656 12 18.656C12.1004 18.656 12.1967 18.6161 12.2678 18.5451C12.3388 18.4741 12.3787 18.3778 12.3787 18.2773ZM12 19.492C12.0674 19.492 12.132 19.5188 12.1796 19.5664C12.2272 19.614 12.254 19.6786 12.254 19.746C12.254 19.8134 12.2272 19.878 12.1796 19.9256C12.132 19.9732 12.0674 20 12 20C11.9328 20 11.8684 19.9733 11.8209 19.9258C11.7734 19.8783 11.7467 19.8139 11.7467 19.7467C11.7467 19.6795 11.7734 19.615 11.8209 19.5675C11.8684 19.52 11.9328 19.492 12 19.492ZM14.5507 12.7773C14.3445 12.7773 14.1468 12.6954 14.001 12.5497C13.8552 12.4039 13.7733 12.2062 13.7733 12C13.7733 11.7938 13.8552 11.5961 14.001 11.4503C14.1468 11.3046 14.3445 11.2227 14.5507 11.2227C14.7568 11.2227 14.9545 11.3046 15.1003 11.4503C15.2461 11.5961 15.328 11.7938 15.328 12C15.328 12.2062 15.2461 12.4039 15.1003 12.5497C14.9545 12.6954 14.7568 12.7773 14.5507 12.7773ZM16.084 12C16.084 12.1429 16.1408 12.2799 16.2418 12.3809C16.3428 12.4819 16.4798 12.5387 16.6227 12.5387C16.7655 12.5387 16.9025 12.4819 17.0036 12.3809C17.1046 12.2799 17.1613 12.1429 17.1613 12C17.1613 11.8571 17.1046 11.7201 17.0036 11.6191C16.9025 11.5181 16.7655 11.4613 16.6227 11.4613C16.4798 11.4613 16.3428 11.5181 16.2418 11.6191C16.1408 11.7201 16.084 11.8571 16.084 12ZM18.2787 12.3787C18.2289 12.3787 18.1797 12.3689 18.1338 12.3498C18.0878 12.3308 18.0461 12.3029 18.0109 12.2678C17.9757 12.2326 17.9479 12.1909 17.9288 12.1449C17.9098 12.099 17.9 12.0497 17.9 12C17.9 11.9503 17.9098 11.901 17.9288 11.8551C17.9479 11.8091 17.9757 11.7674 18.0109 11.7322C18.0461 11.6971 18.0878 11.6692 18.1338 11.6502C18.1797 11.6311 18.2289 11.6213 18.2787 11.6213C18.3791 11.6213 18.4754 11.6612 18.5464 11.7322C18.6174 11.8033 18.6573 11.8996 18.6573 12C18.6573 12.1004 18.6174 12.1967 18.5464 12.2678C18.4754 12.3388 18.3791 12.3787 18.2787 12.3787ZM19.492 12C19.492 12.0674 19.5188 12.132 19.5664 12.1796C19.614 12.2272 19.6786 12.254 19.746 12.254C19.8134 12.254 19.878 12.2272 19.9256 12.1796C19.9732 12.132 20 12.0674 20 12C20 11.9328 19.9733 11.8684 19.9258 11.8209C19.8783 11.7734 19.8139 11.7467 19.7467 11.7467C19.6795 11.7467 19.615 11.7734 19.5675 11.8209C19.52 11.8684 19.492 11.9328 19.492 12ZM9.44933 12.7773C9.6555 12.7773 9.85321 12.6954 9.99899 12.5497C10.1448 12.4039 10.2267 12.2062 10.2267 12C10.2267 11.7938 10.1448 11.5961 9.99899 11.4503C9.85321 11.3046 9.6555 11.2227 9.44933 11.2227C9.24317 11.2227 9.04545 11.3046 8.89968 11.4503C8.7539 11.5961 8.672 11.7938 8.672 12C8.672 12.2062 8.7539 12.4039 8.89968 12.5497C9.04545 12.6954 9.24317 12.7773 9.44933 12.7773ZM7.916 12C7.916 12.143 7.85918 12.2802 7.75803 12.3814C7.65689 12.4825 7.51971 12.5393 7.37667 12.5393C7.23363 12.5393 7.09645 12.4825 6.9953 12.3814C6.89416 12.2802 6.83733 12.143 6.83733 12C6.83733 11.857 6.89416 11.7198 6.9953 11.6186C7.09645 11.5175 7.23363 11.4607 7.37667 11.4607C7.51971 11.4607 7.65689 11.5175 7.75803 11.6186C7.85918 11.7198 7.916 11.857 7.916 12ZM5.72267 12.3787C5.77239 12.3787 5.82163 12.3689 5.86758 12.3498C5.91352 12.3308 5.95526 12.3029 5.99042 12.2678C6.02559 12.2326 6.05348 12.1909 6.07251 12.1449C6.09154 12.099 6.10133 12.0497 6.10133 12C6.10133 11.9503 6.09154 11.901 6.07251 11.8551C6.05348 11.8091 6.02559 11.7674 5.99042 11.7322C5.95526 11.6971 5.91352 11.6692 5.86758 11.6502C5.82163 11.6311 5.77239 11.6213 5.72267 11.6213C5.62224 11.6213 5.52592 11.6612 5.45491 11.7322C5.3839 11.8033 5.344 11.8996 5.344 12C5.344 12.1004 5.3839 12.1967 5.45491 12.2678C5.52592 12.3388 5.62224 12.3787 5.72267 12.3787ZM4.508 12C4.508 12.0674 4.48124 12.132 4.43361 12.1796C4.38597 12.2272 4.32137 12.254 4.254 12.254C4.18664 12.254 4.12203 12.2272 4.07439 12.1796C4.02676 12.132 4 12.0674 4 12C4 11.9328 4.02669 11.8684 4.0742 11.8209C4.12171 11.7734 4.18615 11.7467 4.25333 11.7467C4.32052 11.7467 4.38496 11.7734 4.43247 11.8209C4.47998 11.8684 4.508 11.9328 4.508 12ZM14.3533 10.7467C14.2811 10.8189 14.1954 10.8762 14.101 10.9153C14.0066 10.9544 13.9055 10.9745 13.8033 10.9745C13.7012 10.9745 13.6 10.9544 13.5057 10.9153C13.4113 10.8762 13.3256 10.8189 13.2533 10.7467C13.1811 10.6744 13.1238 10.5887 13.0847 10.4943C13.0456 10.4 13.0255 10.2988 13.0255 10.1967C13.0255 10.0945 13.0456 9.99338 13.0847 9.89901C13.1238 9.80464 13.1811 9.71889 13.2533 9.64667C13.3992 9.5008 13.597 9.41885 13.8033 9.41885C14.0096 9.41885 14.2075 9.5008 14.3533 9.64667C14.4992 9.79254 14.5812 9.99038 14.5812 10.1967C14.5812 10.403 14.4992 10.6008 14.3533 10.7467ZM14.8867 9.112C14.9367 9.16217 14.996 9.20199 15.0614 9.22921C15.1268 9.25642 15.1969 9.2705 15.2677 9.27062C15.3385 9.27074 15.4087 9.25692 15.4742 9.22993C15.5396 9.20294 15.5992 9.16332 15.6493 9.11333C15.6995 9.06334 15.7393 9.00396 15.7665 8.93858C15.7938 8.8732 15.8078 8.8031 15.808 8.73228C15.8081 8.66146 15.7943 8.5913 15.7673 8.52583C15.7403 8.46035 15.7007 8.40083 15.6507 8.35067C15.5497 8.24953 15.4127 8.19264 15.2698 8.19252C15.1269 8.19239 14.9898 8.24904 14.8887 8.35C14.7875 8.45096 14.7306 8.58796 14.7305 8.73086C14.7304 8.87376 14.787 9.01086 14.888 9.112H14.8867ZM16.7067 7.82933C16.6715 7.86453 16.6297 7.89245 16.5837 7.91149C16.5377 7.93054 16.4884 7.94034 16.4387 7.94034C16.3889 7.94034 16.3396 7.93054 16.2936 7.91149C16.2476 7.89245 16.2059 7.86453 16.1707 7.82933C16.1355 7.79414 16.1076 7.75236 16.0885 7.70637C16.0695 7.66039 16.0597 7.61111 16.0597 7.56133C16.0597 7.51156 16.0695 7.46228 16.0885 7.41629C16.1076 7.37031 16.1355 7.32853 16.1707 7.29333C16.2417 7.22226 16.3381 7.18232 16.4387 7.18232C16.5392 7.18232 16.6356 7.22226 16.7067 7.29333C16.7777 7.36441 16.8177 7.46081 16.8177 7.56133C16.8177 7.66185 16.7777 7.75826 16.7067 7.82933ZM17.2973 6.70267C17.321 6.7263 17.349 6.74506 17.3799 6.75785C17.4108 6.77064 17.4439 6.77723 17.4773 6.77723C17.5108 6.77723 17.5439 6.77064 17.5747 6.75785C17.6056 6.74506 17.6337 6.7263 17.6573 6.70267C17.681 6.67903 17.6997 6.65097 17.7125 6.62008C17.7253 6.5892 17.7319 6.5561 17.7319 6.52267C17.7319 6.48924 17.7253 6.45614 17.7125 6.42525C17.6997 6.39437 17.681 6.3663 17.6573 6.34267C17.6096 6.29493 17.5448 6.26811 17.4773 6.26811C17.4098 6.26811 17.3451 6.29493 17.2973 6.34267C17.2496 6.39041 17.2228 6.45515 17.2228 6.52267C17.2228 6.59018 17.2496 6.65493 17.2973 6.70267ZM10.7467 14.3533C10.8189 14.2811 10.8762 14.1954 10.9153 14.101C10.9544 14.0066 10.9745 13.9055 10.9745 13.8033C10.9745 13.7012 10.9544 13.6 10.9153 13.5057C10.8762 13.4113 10.8189 13.3256 10.7467 13.2533C10.6744 13.1811 10.5887 13.1238 10.4943 13.0847C10.4 13.0456 10.2988 13.0255 10.1967 13.0255C10.0945 13.0255 9.99338 13.0456 9.89901 13.0847C9.80464 13.1238 9.71889 13.1811 9.64667 13.2533C9.5008 13.3992 9.41885 13.597 9.41885 13.8033C9.41885 14.0096 9.5008 14.2075 9.64667 14.3533C9.79254 14.4992 9.99038 14.5812 10.1967 14.5812C10.403 14.5812 10.6008 14.4992 10.7467 14.3533ZM9.112 14.8867C9.16208 14.9367 9.2018 14.9962 9.2289 15.0616C9.256 15.1271 9.26995 15.1972 9.26995 15.268C9.26995 15.3388 9.256 15.4089 9.2289 15.4744C9.2018 15.5398 9.16208 15.5993 9.112 15.6493C9.06192 15.6994 9.00247 15.7391 8.93704 15.7662C8.87161 15.7933 8.80149 15.8073 8.73067 15.8073C8.65985 15.8073 8.58972 15.7933 8.52429 15.7662C8.45886 15.7391 8.39941 15.6994 8.34933 15.6493C8.24837 15.5482 8.19173 15.4111 8.19185 15.2682C8.19198 15.1253 8.24886 14.9883 8.35 14.8873C8.45114 14.7864 8.58824 14.7297 8.73114 14.7299C8.87404 14.73 9.01104 14.7869 9.112 14.888V14.8867ZM7.82933 16.7067C7.86453 16.6715 7.89245 16.6297 7.91149 16.5837C7.93054 16.5377 7.94034 16.4884 7.94034 16.4387C7.94034 16.3889 7.93054 16.3396 7.91149 16.2936C7.89245 16.2476 7.86453 16.2059 7.82933 16.1707C7.79414 16.1355 7.75236 16.1076 7.70637 16.0885C7.66039 16.0695 7.61111 16.0597 7.56133 16.0597C7.51156 16.0597 7.46228 16.0695 7.41629 16.0885C7.37031 16.1076 7.32853 16.1355 7.29333 16.1707C7.22226 16.2417 7.18232 16.3381 7.18232 16.4387C7.18232 16.5392 7.22226 16.6356 7.29333 16.7067C7.36441 16.7777 7.46081 16.8177 7.56133 16.8177C7.66185 16.8177 7.75826 16.7777 7.82933 16.7067ZM6.70133 17.2973C6.72497 17.321 6.74372 17.349 6.75652 17.3799C6.76931 17.4108 6.77589 17.4439 6.77589 17.4773C6.77589 17.5108 6.76931 17.5439 6.75652 17.5747C6.74372 17.6056 6.72497 17.6337 6.70133 17.6573C6.6777 17.681 6.64963 17.6997 6.61875 17.7125C6.58786 17.7253 6.55476 17.7319 6.52133 17.7319C6.4879 17.7319 6.4548 17.7253 6.42392 17.7125C6.39303 17.6997 6.36497 17.681 6.34133 17.6573C6.29359 17.6096 6.26678 17.5448 6.26678 17.4773C6.26678 17.4098 6.29359 17.3451 6.34133 17.2973C6.38907 17.2496 6.45382 17.2228 6.52133 17.2228C6.58885 17.2228 6.65359 17.2496 6.70133 17.2973ZM13.2533 14.3533C13.1811 14.2811 13.1238 14.1954 13.0847 14.101C13.0456 14.0066 13.0255 13.9055 13.0255 13.8033C13.0255 13.7012 13.0456 13.6 13.0847 13.5057C13.1238 13.4113 13.1811 13.3256 13.2533 13.2533C13.3256 13.1811 13.4113 13.1238 13.5057 13.0847C13.6 13.0456 13.7012 13.0255 13.8033 13.0255C13.9055 13.0255 14.0066 13.0456 14.101 13.0847C14.1954 13.1238 14.2811 13.1811 14.3533 13.2533C14.4992 13.3992 14.5812 13.597 14.5812 13.8033C14.5812 14.0096 14.4992 14.2075 14.3533 14.3533C14.2075 14.4992 14.0096 14.5812 13.8033 14.5812C13.597 14.5812 13.3992 14.4992 13.2533 14.3533ZM14.888 14.8867C14.7869 14.9876 14.73 15.1246 14.7299 15.2675C14.7297 15.4104 14.7864 15.5475 14.8873 15.6487C14.9883 15.7498 15.1253 15.8067 15.2682 15.8068C15.4111 15.8069 15.5482 15.7503 15.6493 15.6493C15.7503 15.5482 15.8069 15.4111 15.8068 15.2682C15.8067 15.1253 15.7498 14.9883 15.6487 14.8873C15.5475 14.7864 15.4104 14.7297 15.2675 14.7299C15.1246 14.73 14.9876 14.7869 14.8867 14.888L14.888 14.8867ZM16.1707 16.7067C16.0996 16.6356 16.0597 16.5392 16.0597 16.4387C16.0597 16.3381 16.0996 16.2417 16.1707 16.1707C16.2417 16.0996 16.3381 16.0597 16.4387 16.0597C16.5392 16.0597 16.6356 16.0996 16.7067 16.1707C16.7777 16.2417 16.8177 16.3381 16.8177 16.4387C16.8177 16.5392 16.7777 16.6356 16.7067 16.7067C16.6356 16.7777 16.5392 16.8177 16.4387 16.8177C16.3381 16.8177 16.2417 16.7777 16.1707 16.7067ZM17.2973 17.2973C17.2737 17.321 17.2549 17.349 17.2422 17.3799C17.2294 17.4108 17.2228 17.4439 17.2228 17.4773C17.2228 17.5108 17.2294 17.5439 17.2422 17.5747C17.2549 17.6056 17.2737 17.6337 17.2973 17.6573C17.321 17.681 17.349 17.6997 17.3799 17.7125C17.4108 17.7253 17.4439 17.7319 17.4773 17.7319C17.5108 17.7319 17.5439 17.7253 17.5747 17.7125C17.6056 17.6997 17.6337 17.681 17.6573 17.6573C17.7051 17.6096 17.7319 17.5448 17.7319 17.4773C17.7319 17.4098 17.7051 17.3451 17.6573 17.2973C17.6096 17.2496 17.5448 17.2228 17.4773 17.2228C17.4098 17.2228 17.3451 17.2496 17.2973 17.2973ZM9.64667 10.7467C9.79254 10.8925 9.99038 10.9745 10.1967 10.9745C10.403 10.9745 10.6008 10.8925 10.7467 10.7467C10.8925 10.6008 10.9745 10.403 10.9745 10.1967C10.9745 9.99038 10.8925 9.79254 10.7467 9.64667C10.6008 9.5008 10.403 9.41885 10.1967 9.41885C9.99038 9.41885 9.79254 9.5008 9.64667 9.64667C9.5008 9.79254 9.41885 9.99038 9.41885 10.1967C9.41885 10.403 9.5008 10.6008 9.64667 10.7467ZM9.11333 9.112C9.01237 9.21314 8.87537 9.27002 8.73247 9.27015C8.58957 9.27027 8.45247 9.21363 8.35133 9.11267C8.2502 9.01171 8.19331 8.87471 8.19318 8.7318C8.19306 8.5889 8.24971 8.4518 8.35067 8.35067C8.45276 8.25541 8.58786 8.20351 8.72747 8.20593C8.86709 8.20835 9.00031 8.26488 9.09905 8.36362C9.19778 8.46236 9.25432 8.59558 9.25674 8.73519C9.25915 8.87481 9.20859 9.00991 9.11333 9.112ZM7.29333 7.82933C7.32853 7.86453 7.37031 7.89245 7.41629 7.91149C7.46228 7.93054 7.51156 7.94034 7.56133 7.94034C7.61111 7.94034 7.66039 7.93054 7.70637 7.91149C7.75236 7.89245 7.79414 7.86453 7.82933 7.82933C7.86453 7.79414 7.89245 7.75236 7.91149 7.70637C7.93054 7.66039 7.94034 7.61111 7.94034 7.56133C7.94034 7.51156 7.93054 7.46228 7.91149 7.41629C7.89245 7.37031 7.86453 7.32853 7.82933 7.29333C7.75826 7.22226 7.66185 7.18232 7.56133 7.18232C7.46081 7.18232 7.36441 7.22226 7.29333 7.29333C7.22226 7.36441 7.18232 7.46081 7.18232 7.56133C7.18232 7.66185 7.22226 7.75826 7.29333 7.82933ZM6.70133 6.70267C6.65359 6.75023 6.58892 6.77688 6.52153 6.77675C6.45414 6.77663 6.38956 6.74974 6.342 6.702C6.29444 6.65426 6.26779 6.58958 6.26791 6.5222C6.26804 6.45481 6.29493 6.39023 6.34267 6.34267C6.39041 6.29493 6.45515 6.26811 6.52267 6.26811C6.59018 6.26811 6.65493 6.29493 6.70267 6.34267C6.75041 6.39041 6.77723 6.45515 6.77723 6.52267C6.77723 6.59018 6.74907 6.65493 6.70133 6.70267Z" fill="white"/>
</g>
</g>
<defs>
<clipPath id="clip0_655_19372">
<rect width="24" height="24" fill="white"/>
</clipPath>
<clipPath id="clip1_655_19372">
<rect width="24" height="24" fill="white"/>
</clipPath>
</defs>
</svg>
