<svg width="16" height="12" viewBox="0 0 16 12" fill="none" xmlns="http://www.w3.org/2000/svg">
<path d="M0 2.45972H16M0 9.27053H16H0Z" stroke="#222222" stroke-opacity="0.65"/>
<path fill-rule="evenodd" clip-rule="evenodd" d="M12.5 3.91916C13.3284 3.91916 14 3.26574 14 2.4597C14 1.65367 13.3284 1.00024 12.5 1.00024C11.6716 1.00024 11 1.65367 11 2.4597C11 3.26574 11.6716 3.91916 12.5 3.91916ZM4.5 10.73C5.32843 10.73 6 10.0766 6 9.27051C6 8.46448 5.32843 7.81106 4.5 7.81106C3.67157 7.81106 3 8.46448 3 9.27051C3 10.0766 3.67157 10.73 4.5 10.73Z" fill="#222222" fill-opacity="0.65" stroke="#222222" stroke-opacity="0.65"/>
</svg>
