<svg width="42" height="52" viewBox="0 0 42 52" fill="none" xmlns="http://www.w3.org/2000/svg">
<mask id="mask0_3856_35388" style="mask-type:luminance" maskUnits="userSpaceOnUse" x="0" y="0" width="42" height="52">
<path d="M37.332 2.61914H4.66536C4.04653 2.61914 3.45303 2.86497 3.01545 3.30256C2.57786 3.74014 2.33203 4.33364 2.33203 4.95247V46.9525C2.33203 47.5713 2.57786 48.1648 3.01545 48.6024C3.45303 49.04 4.04653 49.2858 4.66536 49.2858H37.332C37.9509 49.2858 38.5444 49.04 38.9819 48.6024C39.4195 48.1648 39.6654 47.5713 39.6654 46.9525V4.95247C39.6654 4.33364 39.4195 3.74014 38.9819 3.30256C38.5444 2.86497 37.9509 2.61914 37.332 2.61914Z" fill="white" stroke="white" stroke-width="4" stroke-linecap="round" stroke-linejoin="round"/>
<path d="M12.832 32.9525H29.1654M12.832 39.9525H20.9987M27.9987 13.1191L18.6654 22.4525L13.9987 17.7858" stroke="black" stroke-width="4" stroke-linecap="round" stroke-linejoin="round"/>
</mask>
<g mask="url(#mask0_3856_35388)">
<path d="M-7 -2.04688H49V53.9531H-7V-2.04688Z" fill="#4C7ACA"/>
</g>
</svg>
