<svg width="87" height="70" viewBox="0 0 87 70" fill="none" xmlns="http://www.w3.org/2000/svg">
<path d="M3.48 54V17.3109L10.7383 16.7143V48.1834H22.968L22.2223 54H3.48Z" fill="#FF0000"/>
<mask id="path-2-outside-1_451_6088" maskUnits="userSpaceOnUse" x="28.9707" y="14" width="27" height="51" fill="black">
<rect fill="white" x="28.9707" y="14" width="27" height="51"/>
<path d="M54.1758 34.9594C54.1758 39.1354 53.7118 42.8474 52.7838 46.0954C51.8558 49.3434 50.265 51.6966 48.0113 53.1549L52.5353 59.8663L48.061 62.7994L42.2941 54.696C34.8038 54.5634 31.0587 48.0509 31.0587 35.1583C31.0587 29.0269 31.9701 24.304 33.793 20.9897C35.6158 17.6754 38.549 16.0183 42.5924 16.0183C50.3147 16.0183 54.1758 22.332 54.1758 34.9594ZM38.317 34.86C38.317 39.5663 38.5821 43.0794 39.1124 45.3994C39.6758 47.6863 40.8358 48.8297 42.5924 48.8297C44.349 48.8297 45.509 47.6863 46.0724 45.3994C46.6358 43.0794 46.9176 39.5829 46.9176 34.9097C46.9176 31.1646 46.6358 28.0657 46.0724 25.6131C45.5421 23.1274 44.3821 21.8846 42.5924 21.8846C40.8027 21.8846 39.6427 23.1109 39.1124 25.5634C38.5821 28.016 38.317 31.1149 38.317 34.86Z"/>
</mask>
<path d="M54.1758 34.9594C54.1758 39.1354 53.7118 42.8474 52.7838 46.0954C51.8558 49.3434 50.265 51.6966 48.0113 53.1549L52.5353 59.8663L48.061 62.7994L42.2941 54.696C34.8038 54.5634 31.0587 48.0509 31.0587 35.1583C31.0587 29.0269 31.9701 24.304 33.793 20.9897C35.6158 17.6754 38.549 16.0183 42.5924 16.0183C50.3147 16.0183 54.1758 22.332 54.1758 34.9594ZM38.317 34.86C38.317 39.5663 38.5821 43.0794 39.1124 45.3994C39.6758 47.6863 40.8358 48.8297 42.5924 48.8297C44.349 48.8297 45.509 47.6863 46.0724 45.3994C46.6358 43.0794 46.9176 39.5829 46.9176 34.9097C46.9176 31.1646 46.6358 28.0657 46.0724 25.6131C45.5421 23.1274 44.3821 21.8846 42.5924 21.8846C40.8027 21.8846 39.6427 23.1109 39.1124 25.5634C38.5821 28.016 38.317 31.1149 38.317 34.86Z" fill="white"/>
<path d="M52.7838 46.0954L51.5888 45.754L52.7838 46.0954ZM48.0113 53.1549L47.3361 52.1114L46.2728 52.7994L46.9807 53.8495L48.0113 53.1549ZM52.5353 59.8663L53.2167 60.9057L54.2695 60.2155L53.5659 59.1716L52.5353 59.8663ZM48.061 62.7994L47.0484 63.5201L47.742 64.4947L48.7424 63.8388L48.061 62.7994ZM42.2941 54.696L43.3067 53.9754L42.9431 53.4644L42.3161 53.4533L42.2941 54.696ZM33.793 20.9897L32.704 20.3908L33.793 20.9897ZM39.1124 45.3994L37.9008 45.6764L37.9031 45.6866L37.9056 45.6968L39.1124 45.3994ZM46.0724 45.3994L47.2792 45.6968L47.2802 45.6927L46.0724 45.3994ZM46.0724 25.6131L44.8569 25.8724L44.8589 25.8819L44.8611 25.8914L46.0724 25.6131ZM52.933 34.9594C52.933 39.046 52.4786 42.6396 51.5888 45.754L53.9789 46.4369C54.945 43.0553 55.4187 39.2248 55.4187 34.9594H52.933ZM51.5888 45.754C50.7214 48.79 49.2772 50.8554 47.3361 52.1114L48.6865 54.1983C51.2528 52.5377 52.9903 49.8969 53.9789 46.4369L51.5888 45.754ZM46.9807 53.8495L51.5047 60.561L53.5659 59.1716L49.0419 52.4602L46.9807 53.8495ZM51.8539 58.8269L47.3796 61.76L48.7424 63.8388L53.2167 60.9057L51.8539 58.8269ZM49.0736 62.0788L43.3067 53.9754L41.2815 55.4166L47.0484 63.5201L49.0736 62.0788ZM42.3161 53.4533C39.0094 53.3948 36.6005 51.9714 34.945 49.0926C33.2329 46.1155 32.3016 41.5234 32.3016 35.1583H29.8158C29.8158 41.6857 30.757 46.7963 32.7901 50.3317C34.8798 53.9655 38.0886 55.8646 42.2721 55.9387L42.3161 53.4533ZM32.3016 35.1583C32.3016 29.1201 33.2042 24.6392 34.882 21.5887L32.704 20.3908C30.736 23.9688 29.8158 28.9337 29.8158 35.1583H32.3016ZM34.882 21.5887C35.6962 20.1083 36.7297 19.0447 37.9713 18.3432C39.2173 17.6393 40.7421 17.2611 42.5924 17.2611V14.7754C40.3993 14.7754 38.4358 15.2258 36.7486 16.179C35.0571 17.1347 33.7126 18.5569 32.704 20.3908L34.882 21.5887ZM42.5924 17.2611C46.0436 17.2611 48.5266 18.6335 50.2197 21.402C51.9736 24.27 52.933 28.732 52.933 34.9594H55.4187C55.4187 28.5595 54.4475 23.5508 52.3403 20.1051C50.1722 16.5599 46.8635 14.7754 42.5924 14.7754V17.2611ZM37.0741 34.86C37.0741 39.5876 37.3383 43.2152 37.9008 45.6764L40.324 45.1225C39.826 42.9436 39.5598 39.545 39.5598 34.86H37.0741ZM37.9056 45.6968C38.2192 46.9693 38.7315 48.0677 39.5325 48.8573C40.3644 49.6773 41.4158 50.0726 42.5924 50.0726V47.5869C42.0124 47.5869 41.6056 47.4104 41.2775 47.087C40.9185 46.7331 40.5691 46.1164 40.3192 45.1021L37.9056 45.6968ZM42.5924 50.0726C43.769 50.0726 44.8204 49.6773 45.6523 48.8573C46.4533 48.0677 46.9657 46.9693 47.2792 45.6967L44.8656 45.1021C44.6158 46.1164 44.2664 46.7331 43.9074 47.087C43.5793 47.4104 43.1724 47.5869 42.5924 47.5869V50.0726ZM47.2802 45.6927C47.8797 43.2241 48.1604 39.6066 48.1604 34.9097H45.6747C45.6747 39.5591 45.392 42.9348 44.8647 45.1061L47.2802 45.6927ZM48.1604 34.9097C48.1604 31.1117 47.8756 27.9113 47.2837 25.3349L44.8611 25.8914C45.3961 28.2201 45.6747 31.2175 45.6747 34.9097H48.1604ZM47.2879 25.3538C46.9974 23.992 46.5051 22.8171 45.7133 21.9687C44.8847 21.0809 43.8113 20.6417 42.5924 20.6417V23.1274C43.1632 23.1274 43.5647 23.3097 43.8961 23.6647C44.2643 24.0592 44.6171 24.7485 44.8569 25.8724L47.2879 25.3538ZM42.5924 20.6417C41.379 20.6417 40.3074 21.0726 39.4772 21.9502C38.683 22.7898 38.189 23.9533 37.8976 25.3008L40.3272 25.8261C40.5661 24.721 40.9173 24.045 41.283 23.6584C41.6129 23.3097 42.0161 23.1274 42.5924 23.1274V20.6417ZM37.8976 25.3008C37.342 27.8706 37.0741 31.0652 37.0741 34.86H39.5598C39.5598 31.1645 39.8223 28.1614 40.3272 25.8261L37.8976 25.3008Z" fill="#558ED5" mask="url(#path-2-outside-1_451_6088)"/>
<path d="M70.8422 54.2983V39.2349L61.8936 16.7143H69.8976L75.0182 32.2251L80.5365 16.7143H86.8005L78.1999 38.3897V53.7017L70.8422 54.2983Z" fill="#558ED5"/>
</svg>
