<svg width="20" height="20" viewBox="0 0 20 20" fill="none" xmlns="http://www.w3.org/2000/svg">
<path d="M15.6197 11.0862V9.19145C15.6204 7.91088 15.1719 6.6675 14.3466 5.66238C13.5213 4.65725 12.3675 3.94916 11.0718 3.65258C11.0817 3.61584 11.0894 3.57859 11.0948 3.541V1.05262C11.0948 0.773446 10.9795 0.505709 10.7741 0.308305C10.5688 0.110901 10.2904 0 10 0C9.70964 0 9.43117 0.110901 9.22585 0.308305C9.02054 0.505709 8.90519 0.773446 8.90519 1.05262V3.541C8.91064 3.57859 8.91831 3.61584 8.92818 3.65258C7.63249 3.94916 6.47871 4.65725 5.65343 5.66238C4.82815 6.6675 4.37961 7.91088 4.38034 9.19145V11.0862C4.38034 13.5977 2.33633 14.2251 2.33633 15.4808C2.33633 16.105 2.33633 16.7366 2.92534 16.7366H17.0747C17.6637 16.7366 17.6637 16.105 17.6637 15.4808C17.6637 14.2251 15.6197 13.5977 15.6197 11.0862Z" fill="#D1D1D6"/>
<path d="M1.09481 10.2441C0.804449 10.2441 0.525979 10.1332 0.320663 9.93577C0.115346 9.73837 0 9.47063 0 9.19146C0.00560607 6.69558 0.989569 4.29345 2.75564 2.46418C2.95294 2.25885 3.227 2.13729 3.51752 2.12623C3.80804 2.11518 4.09123 2.21554 4.30479 2.40524C4.51836 2.59493 4.64479 2.85843 4.65629 3.13775C4.66779 3.41708 4.56341 3.68936 4.3661 3.89469C2.97283 5.33592 2.19569 7.22908 2.18962 9.19672C2.18817 9.47498 2.07219 9.74137 1.86703 9.93763C1.66187 10.1339 1.38423 10.2441 1.09481 10.2441Z" fill="#D1D1D6"/>
<path d="M18.9052 10.2441C18.6148 10.2441 18.3364 10.1332 18.131 9.93577C17.9257 9.73836 17.8104 9.47062 17.8104 9.19145C17.8029 7.22564 17.0259 5.33459 15.6339 3.89469C15.4463 3.68798 15.3501 3.41904 15.3657 3.14514C15.3813 2.87124 15.5075 2.61401 15.7174 2.42824C15.9274 2.24246 16.2044 2.14281 16.4896 2.15051C16.7748 2.15821 17.0456 2.27264 17.2444 2.46944C19.0104 4.29871 19.9944 6.70084 20 9.19672C19.9986 9.47498 19.8826 9.74136 19.6774 9.93763C19.4722 10.1339 19.1946 10.2441 18.9052 10.2441Z" fill="#D1D1D6"/>
<path d="M6.52179 17.7892C6.81222 18.445 7.29679 19.0043 7.91522 19.3973C8.53366 19.7904 9.25865 20 10 20C10.7414 20 11.4663 19.7904 12.0848 19.3973C12.7032 19.0043 13.1878 18.445 13.4782 17.7892H6.52179Z" fill="#D1D1D6"/>
</svg>
