<svg width="27" height="25" viewBox="0 0 27 25" fill="none" xmlns="http://www.w3.org/2000/svg">
<path d="M13.5644 4.71664L13.9713 5.22356L13.9713 5.22354L13.5644 4.71664ZM3.98114 15.7119H4.63114V15.0619H3.98114V15.7119ZM10.8187 16.8847L11.1648 16.3345L10.1687 15.7081V16.8847H10.8187ZM13.5636 18.9284L13.1567 19.4353L13.1568 19.4354L13.5636 18.9284ZM21.1144 22.6451V23.2951H21.1145L21.1144 22.6451ZM4.8559 15.7119V15.0619H4.2059V15.7119H4.8559ZM9.94452 16.3885H10.5945V15.9878L10.2364 15.8078L9.94452 16.3885ZM14.1221 18.2757L13.7152 18.7826L13.7153 18.7827L14.1221 18.2757ZM14.1219 5.36904L14.5286 5.87603L14.5287 5.87598L14.1219 5.36904ZM18.9204 2.26301L19.4269 2.67034L20.8965 0.842697L18.6958 1.65305L18.9204 2.26301ZM18.9198 21.381L18.6953 21.991L20.8957 22.8008L19.4263 20.9736L18.9198 21.381ZM24.8516 11.8225L25.5016 11.8226V11.8225H24.8516ZM21.1149 0.35C17.9259 0.35 15.3916 2.4165 13.1575 4.20975L13.9713 5.22354C16.2902 3.36216 18.4636 1.65 21.1149 1.65V0.35ZM13.1576 4.20972C12.1185 5.04367 11.1545 5.8157 10.1888 6.3846C9.22828 6.95044 8.31875 7.28234 7.40048 7.28234V8.58234C8.63943 8.58234 9.78162 8.13327 10.8486 7.5047C11.9104 6.87919 12.9498 6.04338 13.9713 5.22356L13.1576 4.20972ZM7.40048 7.28234H3.82235V8.58234H7.40048V7.28234ZM3.82235 7.28234C1.92657 7.28234 0.35 8.78036 0.35 10.6668H1.65C1.65 9.53688 2.60538 8.58234 3.82235 8.58234V7.28234ZM0.35 10.6668V12.9777H1.65V10.6668H0.35ZM0.35 12.9777C0.35 14.8639 1.92661 16.3619 3.82235 16.3619V15.0619C2.60534 15.0619 1.65 14.1073 1.65 12.9777H0.35ZM3.82235 16.3619H3.98114V15.0619H3.82235V16.3619ZM3.33114 15.7119V21.0656H4.63114V15.7119H3.33114ZM3.33114 21.0656C3.33114 22.9517 4.90803 24.45 6.80376 24.45V23.15C5.58675 23.15 4.63114 22.1952 4.63114 21.0656H3.33114ZM6.80376 24.45H7.99638V23.15H6.80376V24.45ZM7.99638 24.45C9.8922 24.45 11.4687 22.9517 11.4687 21.0656H10.1687C10.1687 22.1952 9.21331 23.15 7.99638 23.15V24.45ZM11.4687 21.0656V16.8847H10.1687V21.0656H11.4687ZM10.4727 17.4349C11.3465 17.9845 12.2221 18.685 13.1567 19.4353L13.9705 18.4215C13.0484 17.6812 12.1135 16.9311 11.1648 16.3345L10.4727 17.4349ZM13.1568 19.4354C15.3909 21.228 17.9254 23.2951 21.1144 23.2951V21.9951C18.4631 21.9951 16.2897 20.2824 13.9704 18.4214L13.1568 19.4354ZM21.1145 23.2951C21.9756 23.295 22.7416 22.8959 23.3801 22.2724C24.0145 21.6529 24.5522 20.7869 24.988 19.7642C25.8604 17.7169 26.3761 14.92 26.3761 11.8225H25.0761C25.0761 14.7936 24.579 17.4079 23.792 19.2546C23.3982 20.1789 22.9446 20.8807 22.4719 21.3422C22.0033 21.7998 21.5463 21.995 21.1143 21.9951L21.1145 23.2951ZM26.3761 11.8225C26.3761 8.72493 25.8604 5.928 24.9881 3.88065C24.5523 2.85794 24.0147 1.99197 23.3803 1.37253C22.7419 0.749096 21.976 0.35 21.1149 0.35V1.65C21.5467 1.65 22.0035 1.84511 22.4721 2.30264C22.9447 2.76417 23.3983 3.46592 23.7921 4.39023C24.579 6.23693 25.0761 8.85127 25.0761 11.8225H26.3761ZM9.29452 21.0658C9.29452 21.728 8.73127 22.3028 7.99666 22.3028V23.6028C9.40992 23.6028 10.5945 22.4846 10.5945 21.0658H9.29452ZM7.99666 22.3028H6.80404V23.6028H7.99666V22.3028ZM6.80404 22.3028C6.06909 22.3028 5.5059 21.7279 5.5059 21.0658H4.2059C4.2059 22.4847 5.39056 23.6028 6.80404 23.6028V22.3028ZM5.5059 21.0658V15.7119H4.2059V21.0658H5.5059ZM4.8559 16.3619H7.40048V15.0619H4.8559V16.3619ZM7.40048 16.3619C8.14412 16.3619 8.88344 16.5827 9.65263 16.9693L10.2364 15.8078C9.35006 15.3623 8.40801 15.0619 7.40048 15.0619V16.3619ZM9.29452 16.3885V21.0658H10.5945V16.3885H9.29452ZM14.5291 17.7689C13.4926 16.9367 12.3914 16.0511 11.2308 15.3788C10.0646 14.7033 8.79224 14.2147 7.40048 14.2147V15.5147C8.48106 15.5147 9.52494 15.893 10.5792 16.5037C11.6391 17.1177 12.6626 17.9376 13.7152 18.7826L14.5291 17.7689ZM7.40048 14.2147H3.82235V15.5147H7.40048V14.2147ZM3.82235 14.2147C3.08773 14.2147 2.52448 13.6399 2.52448 12.9777H1.22448C1.22448 14.3966 2.40908 15.5147 3.82235 15.5147V14.2147ZM2.52448 12.9777V10.6668H1.22448V12.9777H2.52448ZM2.52448 10.6668C2.52448 10.0045 3.08786 9.42958 3.82235 9.42958V8.12958C2.40896 8.12958 1.22448 9.24808 1.22448 10.6668H2.52448ZM3.82235 9.42958H7.40021V8.12958H3.82235V9.42958ZM7.40021 9.42958C8.79199 9.42958 10.0643 8.94089 11.2305 8.26541C12.3909 7.5932 13.4921 6.70769 14.5286 5.87603L13.7151 4.86206C12.6623 5.70678 11.6388 6.52655 10.5788 7.14051C9.52457 7.7512 8.48076 8.12958 7.40021 8.12958V9.42958ZM14.5287 5.87598C16.0752 4.63481 17.5555 3.45823 19.145 2.87298L18.6958 1.65305C16.8703 2.32522 15.2225 3.65231 13.715 4.86211L14.5287 5.87598ZM18.4138 1.85569C16.8271 3.8289 15.8533 7.57093 15.8533 11.8225H17.1533C17.1533 7.68952 18.113 4.30437 19.4269 2.67034L18.4138 1.85569ZM15.8533 11.8225C15.8533 16.0733 16.8268 19.8156 18.4133 21.7883L19.4263 20.9736C18.1127 19.3402 17.1533 15.9548 17.1533 11.8225H15.8533ZM19.1443 20.771C17.5555 20.1863 16.0752 19.0097 14.529 17.7688L13.7153 18.7827C15.2224 19.9922 16.8703 21.3193 18.6953 21.991L19.1443 20.771ZM21.1149 21.1475C20.9146 21.1475 20.6156 21.0343 20.2463 20.6361C19.8821 20.2434 19.5081 19.6323 19.1721 18.8034C18.5018 17.15 18.028 14.7427 18.028 11.8225H16.728C16.728 14.8692 17.2204 17.4494 17.9673 19.2918C18.3399 20.2109 18.7873 20.9747 19.2931 21.52C19.7936 22.0598 20.4129 22.4475 21.1149 22.4475V21.1475ZM18.028 11.8225C18.028 8.90217 18.5017 6.49472 19.172 4.84126C19.508 4.01236 19.882 3.40117 20.2462 3.0085C20.6155 2.61023 20.9145 2.49698 21.1149 2.49698V1.19698C20.4129 1.19698 19.7935 1.58477 19.293 2.12454C18.7872 2.66992 18.3398 3.43378 17.9672 4.35286C17.2203 6.19538 16.728 8.77571 16.728 11.8225H18.028ZM21.1149 2.49698C21.3152 2.49698 21.6141 2.61017 21.9834 3.00848C22.3475 3.40116 22.7215 4.01235 23.0576 4.84126C23.7279 6.49473 24.2016 8.90219 24.2016 11.8225H25.5016C25.5016 8.77569 25.0093 6.19537 24.2623 4.35286C23.8897 3.43378 23.4424 2.66994 22.9367 2.12457C22.4362 1.58483 21.817 1.19698 21.1149 1.19698V2.49698ZM24.2016 11.8225C24.2015 14.7427 23.7277 17.15 23.0575 18.8034C22.7214 19.6323 22.3475 20.2434 21.9834 20.6361C21.6141 21.0344 21.3152 21.1475 21.1149 21.1475V22.4475C21.8169 22.4475 22.4362 22.0597 22.9366 21.52C23.4423 20.9747 23.8897 20.2109 24.2622 19.2918C25.0091 17.4494 25.5015 14.8692 25.5016 11.8226L24.2016 11.8225Z" fill="white" fill-opacity="0.65"/>
</svg>
