<svg width="20" height="20" viewBox="0 0 20 20" fill="none" xmlns="http://www.w3.org/2000/svg">
<path d="M1 5.0001H2.424C2.63173 5.65287 3.04175 6.22263 3.59472 6.62696C4.1477 7.03129 4.81497 7.24921 5.5 7.24921C6.18503 7.24921 6.8523 7.03129 7.40528 6.62696C7.95825 6.22263 8.36827 5.65287 8.576 5.0001H19C19.2652 5.0001 19.5196 4.89474 19.7071 4.7072C19.8946 4.51967 20 4.26531 20 4.0001C20 3.73488 19.8946 3.48053 19.7071 3.29299C19.5196 3.10545 19.2652 3.0001 19 3.0001H8.576C8.36827 2.34732 7.95825 1.77756 7.40528 1.37323C6.8523 0.968904 6.18503 0.750977 5.5 0.750977C4.81497 0.750977 4.1477 0.968904 3.59472 1.37323C3.04175 1.77756 2.63173 2.34732 2.424 3.0001H1C0.734784 3.0001 0.48043 3.10545 0.292893 3.29299C0.105357 3.48053 0 3.73488 0 4.0001C0 4.26531 0.105357 4.51967 0.292893 4.7072C0.48043 4.89474 0.734784 5.0001 1 5.0001Z" fill="#D1D1D6"/>
<path d="M19 9.0001H17.576C17.3683 8.34732 16.9583 7.77756 16.4053 7.37323C15.8523 6.9689 15.185 6.75098 14.5 6.75098C13.815 6.75098 13.1477 6.9689 12.5947 7.37323C12.0417 7.77756 11.6317 8.34732 11.424 9.0001H1C0.734784 9.0001 0.48043 9.10545 0.292893 9.29299C0.105357 9.48053 0 9.73488 0 10.0001C0 10.2653 0.105357 10.5197 0.292893 10.7072C0.48043 10.8947 0.734784 11.0001 1 11.0001H11.424C11.6317 11.6529 12.0417 12.2226 12.5947 12.627C13.1477 13.0313 13.815 13.2492 14.5 13.2492C15.185 13.2492 15.8523 13.0313 16.4053 12.627C16.9583 12.2226 17.3683 11.6529 17.576 11.0001H19C19.2652 11.0001 19.5196 10.8947 19.7071 10.7072C19.8946 10.5197 20 10.2653 20 10.0001C20 9.73488 19.8946 9.48053 19.7071 9.29299C19.5196 9.10545 19.2652 9.0001 19 9.0001Z" fill="#D1D1D6"/>
<path d="M19 15.0001H8.576C8.36827 14.3473 7.95825 13.7776 7.40528 13.3732C6.8523 12.9689 6.18503 12.751 5.5 12.751C4.81497 12.751 4.1477 12.9689 3.59472 13.3732C3.04175 13.7776 2.63173 14.3473 2.424 15.0001H1C0.734784 15.0001 0.48043 15.1055 0.292893 15.293C0.105357 15.4805 0 15.7349 0 16.0001C0 16.2653 0.105357 16.5197 0.292893 16.7072C0.48043 16.8947 0.734784 17.0001 1 17.0001H2.424C2.63173 17.6529 3.04175 18.2226 3.59472 18.627C4.1477 19.0313 4.81497 19.2492 5.5 19.2492C6.18503 19.2492 6.8523 19.0313 7.40528 18.627C7.95825 18.2226 8.36827 17.6529 8.576 17.0001H19C19.2652 17.0001 19.5196 16.8947 19.7071 16.7072C19.8946 16.5197 20 16.2653 20 16.0001C20 15.7349 19.8946 15.4805 19.7071 15.293C19.5196 15.1055 19.2652 15.0001 19 15.0001Z" fill="#D1D1D6"/>
</svg>
