<svg width="24" height="24" viewBox="0 0 24 24" fill="none" xmlns="http://www.w3.org/2000/svg">
<g clip-path="url(#clip0_616_2327)">
<path d="M12.0009 0C11.3909 0 10.7999 0.044 10.2139 0.133V3.418C11.3933 3.17884 12.6089 3.1802 13.7879 3.422V0.139C13.1966 0.0475428 12.5992 0.00107614 12.0009 0ZM9.38086 0.295C4.08486 1.5 0.13086 6.283 0.13086 12C0.12986 18.628 5.44086 24 12.0009 24C18.5609 24 23.8719 18.628 23.8719 12C23.8719 6.283 19.9189 1.501 14.6259 0.295V3.635C18.2009 4.748 20.8059 8.075 20.8059 12C20.8059 16.83 16.8569 20.76 12.0059 20.76C7.15586 20.76 3.20186 16.83 3.20186 12C3.20186 8.076 5.80686 4.753 9.38186 3.635L9.38086 0.295ZM12.0009 4.137C11.3849 4.137 10.7889 4.205 10.2179 4.337V19.53C10.8027 19.6643 11.4009 19.7314 12.0009 19.73C12.6169 19.73 13.2119 19.662 13.7879 19.53V4.343C13.2024 4.2043 12.6026 4.13515 12.0009 4.137Z" fill="white" fill-opacity="0.65"/>
</g>
<defs>
<clipPath id="clip0_616_2327">
<rect width="24" height="24" fill="white"/>
</clipPath>
</defs>
</svg>
