<svg width="57" height="57" viewBox="0 0 57 57" fill="none" xmlns="http://www.w3.org/2000/svg">
<mask id="mask0_3856_35401" style="mask-type:luminance" maskUnits="userSpaceOnUse" x="7" y="3" width="43" height="52">
<path d="M44.832 5.61914H12.1654C11.5465 5.61914 10.953 5.86497 10.5154 6.30256C10.0779 6.74014 9.83203 7.33364 9.83203 7.95247V49.9525C9.83203 50.5713 10.0779 51.1648 10.5154 51.6024C10.953 52.04 11.5465 52.2858 12.1654 52.2858H44.832C45.4509 52.2858 46.0444 52.04 46.482 51.6024C46.9195 51.1648 47.1654 50.5713 47.1654 49.9525V7.95247C47.1654 7.33364 46.9195 6.74014 46.482 6.30256C46.0444 5.86497 45.4509 5.61914 44.832 5.61914Z" fill="white" stroke="white" stroke-width="4" stroke-linecap="round" stroke-linejoin="round"/>
<path d="M20.332 35.9525H36.6654M20.332 42.9525H28.4987M23.832 25.4525L33.1654 16.1191M33.1654 25.4525L23.832 16.1191" stroke="black" stroke-width="4" stroke-linecap="round" stroke-linejoin="round"/>
</mask>
<g mask="url(#mask0_3856_35401)">
<path d="M0.5 0.953125H56.5V56.9531H0.5V0.953125Z" fill="#F2A808"/>
</g>
<rect x="19.168" y="10.2871" width="19.8333" height="19.8333" fill="#F2A808"/>
<circle cx="18.5" cy="21.9531" r="2" fill="white"/>
<circle cx="24.5" cy="21.9531" r="2" fill="white"/>
<circle cx="30.5" cy="21.9531" r="2" fill="white"/>
</svg>
