<svg width="26" height="26" viewBox="0 0 26 26" fill="none" xmlns="http://www.w3.org/2000/svg">
<path fill-rule="evenodd" clip-rule="evenodd" d="M10.7028 21.6879C16.5071 21.6879 21.2123 16.9826 21.2123 11.1784C21.2123 5.3742 16.5071 0.668945 10.7028 0.668945C4.89861 0.668945 0.193359 5.3742 0.193359 11.1784C0.193359 16.9826 4.89861 21.6879 10.7028 21.6879ZM10.7017 20.2865C15.732 20.2865 19.8099 16.2086 19.8099 11.1783C19.8099 6.14795 15.732 2.07007 10.7017 2.07007C5.67136 2.07007 1.59347 6.14795 1.59347 11.1783C1.59347 16.2086 5.67136 20.2865 10.7017 20.2865ZM23.5485 25.0138L19.2186 20.6839L18.9064 20.3717C18.6328 20.0981 18.6328 19.6545 18.9064 19.3809C19.18 19.1073 19.6237 19.1073 19.8973 19.3809L20.2094 19.6931L24.5393 24.0229L24.8515 24.3351C25.1251 24.6087 25.1251 25.0523 24.8515 25.326C24.5779 25.5996 24.1343 25.5996 23.8606 25.326L23.5485 25.0138Z" fill="#020202" fill-opacity="0.35"/>
<mask id="mask0_380_13231" style="mask-type:luminance" maskUnits="userSpaceOnUse" x="0" y="0" width="26" height="26">
<path fill-rule="evenodd" clip-rule="evenodd" d="M10.7028 21.6879C16.5071 21.6879 21.2123 16.9826 21.2123 11.1784C21.2123 5.3742 16.5071 0.668945 10.7028 0.668945C4.89861 0.668945 0.193359 5.3742 0.193359 11.1784C0.193359 16.9826 4.89861 21.6879 10.7028 21.6879ZM10.7017 20.2865C15.732 20.2865 19.8099 16.2086 19.8099 11.1783C19.8099 6.14795 15.732 2.07007 10.7017 2.07007C5.67136 2.07007 1.59347 6.14795 1.59347 11.1783C1.59347 16.2086 5.67136 20.2865 10.7017 20.2865ZM23.5485 25.0138L19.2186 20.6839L18.9064 20.3717C18.6328 20.0981 18.6328 19.6545 18.9064 19.3809C19.18 19.1073 19.6237 19.1073 19.8973 19.3809L20.2094 19.6931L24.5393 24.0229L24.8515 24.3351C25.1251 24.6087 25.1251 25.0523 24.8515 25.326C24.5779 25.5996 24.1343 25.5996 23.8606 25.326L23.5485 25.0138Z" fill="white"/>
</mask>
<g mask="url(#mask0_380_13231)">
</g>
</svg>
