<svg width="136" height="136" viewBox="0 0 136 136" fill="none" xmlns="http://www.w3.org/2000/svg">
<circle cx="68" cy="68" r="67.25" fill="#DCEAFF"/>
<g clip-path="url(#clip0_3859_36739)">
<path d="M68.2921 31.3497C74.0278 31.3495 79.5404 33.5723 83.6715 37.5512C87.8027 41.5301 90.2309 46.9554 90.446 52.687L90.4608 53.5184H94.1556C96.0199 53.5178 97.8155 54.2219 99.1825 55.4895C100.55 56.7572 101.387 58.4947 101.527 60.3537L101.545 60.9079V97.8558C101.546 99.7201 100.842 101.516 99.574 102.883C98.3064 104.25 96.5689 105.087 94.7098 105.227L94.1556 105.245H42.4286C40.5643 105.246 38.7687 104.542 37.4017 103.274C36.0347 102.007 35.1974 100.269 35.0575 98.41L35.0391 97.8558V60.9079C35.0385 59.0436 35.7426 57.248 37.0102 55.881C38.2779 54.514 40.0154 53.6767 41.8744 53.5368L42.4286 53.5184H46.1234C46.1234 47.6389 48.459 42.0002 52.6165 37.8427C56.7739 33.6853 62.4126 31.3497 68.2921 31.3497ZM94.1556 60.9079H42.4286V97.8558H94.1556V60.9079ZM68.2921 68.2975C69.8683 68.298 71.403 68.8024 72.6721 69.7372C73.9411 70.6719 74.8781 71.9879 75.3461 73.493C75.8141 74.998 75.7886 76.6133 75.2733 78.1029C74.758 79.5924 73.78 80.8782 72.482 81.7724L71.9869 82.0864V86.7714C71.9858 87.7131 71.6252 88.6189 70.9788 89.3037C70.3323 89.9885 69.4487 90.4005 68.5086 90.4557C67.5685 90.5109 66.6428 90.2051 65.9207 89.6006C65.1985 88.9962 64.7344 88.1388 64.6232 87.2037L64.5973 86.7714V82.0864C63.1887 81.273 62.0877 80.0176 61.4653 78.5147C60.8428 77.0119 60.7337 75.3457 61.1547 73.7745C61.5757 72.2033 62.5034 70.8149 63.7938 69.8246C65.0843 68.8344 66.6655 68.2976 68.2921 68.2975ZM68.2921 38.7392C64.3724 38.7392 60.6133 40.2963 57.8417 43.0679C55.0701 45.8396 53.513 49.5987 53.513 53.5184H83.0712C83.0712 49.5987 81.5142 45.8396 78.7425 43.0679C75.9709 40.2963 72.2118 38.7392 68.2921 38.7392Z" fill="#16396F"/>
</g>
<defs>
<clipPath id="clip0_3859_36739">
<rect width="88.6748" height="88.6748" fill="white" transform="translate(23.9609 23.9601)"/>
</clipPath>
</defs>
</svg>
